<svg width="79" height="79" viewBox="0 0 79 79" fill="none" xmlns="http://www.w3.org/2000/svg">
<circle cx="39.0863" cy="39.8363" r="39.0863" fill="#FF7834"/>
<path d="M45.559 44.5253L44.7121 45.3685C44.7121 45.3685 42.6964 47.3712 37.1964 41.9028C31.6964 36.4345 33.7121 34.4318 33.7121 34.4318L34.2444 33.8994C35.5603 32.5928 35.685 30.4934 34.5366 28.9597L32.1915 25.8272C30.7695 23.9287 28.0241 23.6775 26.3955 25.2967L23.4734 28.2003C22.6674 29.0044 22.1277 30.0429 22.1928 31.1969C22.3603 34.1507 23.6967 40.5032 31.1492 47.9147C39.0539 55.7729 46.471 56.0856 49.503 55.8026C50.4634 55.7133 51.2972 55.2257 51.9691 54.5556L54.6121 51.9275C56.3989 50.1538 55.8964 47.1106 53.6107 45.8692L50.0558 43.9353C48.5556 43.1219 46.7316 43.3602 45.559 44.5253Z" fill="white"/>
</svg>
