<svg width="79" height="79" viewBox="0 0 79 79" fill="none" xmlns="http://www.w3.org/2000/svg">
<circle cx="39.0863" cy="39.1449" r="39.0863" fill="#FF7834"/>
<path d="M52.1044 33.5561C52.1044 31.8451 51.7674 30.1509 51.1126 28.5702C50.4579 26.9895 49.4982 25.5532 48.2884 24.3434C47.0785 23.1335 45.6422 22.1739 44.0615 21.5191C42.4808 20.8643 40.7866 20.5273 39.0756 20.5273C37.3647 20.5273 35.6705 20.8643 34.0897 21.5191C32.509 22.1739 31.0727 23.1335 29.8629 24.3434C28.6531 25.5532 27.6934 26.9895 27.0386 28.5702C26.3839 30.1509 26.0469 31.8451 26.0469 33.5561C26.0469 36.1377 26.8081 38.5387 28.1036 40.5637H28.0887L39.0756 57.7524L50.0626 40.5637H50.0496C51.3913 38.4727 52.1045 36.0405 52.1044 33.5561ZM39.0756 39.1399C37.5947 39.1399 36.1745 38.5516 35.1273 37.5044C34.0802 36.4573 33.4919 35.037 33.4919 33.5561C33.4919 32.0752 34.0802 30.6549 35.1273 29.6078C36.1745 28.5606 37.5947 27.9723 39.0756 27.9723C40.5565 27.9723 41.9768 28.5606 43.0239 29.6078C44.0711 30.6549 44.6594 32.0752 44.6594 33.5561C44.6594 35.037 44.0711 36.4573 43.0239 37.5044C41.9768 38.5516 40.5565 39.1399 39.0756 39.1399Z" fill="white"/>
</svg>
