<svg width="79" height="79" viewBox="0 0 79 79" fill="none" xmlns="http://www.w3.org/2000/svg">
<circle cx="39.0863" cy="39.8597" r="39.0863" fill="#FF7834"/>
<g clip-path="url(#clip0_1095_993)">
<path d="M56.8629 24.9818C56.6937 24.9644 56.5233 24.9644 56.3541 24.9818H21.6108C21.3881 24.9853 21.1669 25.0186 20.9531 25.0811L38.8832 42.9367L56.8629 24.9818Z" fill="white"/>
<path d="M58.6984 26.6875L40.6319 44.6796C40.1669 45.1418 39.5379 45.4012 38.8823 45.4012C38.2267 45.4012 37.5977 45.1418 37.1327 44.6796L19.2275 26.824C19.1724 27.0263 19.1433 27.2348 19.1406 27.4444V52.2611C19.1406 52.9193 19.4021 53.5505 19.8675 54.0159C20.3329 54.4813 20.9641 54.7428 21.6223 54.7428H56.3656C57.0238 54.7428 57.655 54.4813 58.1205 54.0159C58.5859 53.5505 58.8473 52.9193 58.8473 52.2611V27.4444C58.8374 27.1859 58.7872 26.9305 58.6984 26.6875ZM23.3222 52.2611H21.5975V50.4867L30.6183 41.5403L32.3679 43.2899L23.3222 52.2611ZM56.3408 52.2611H54.6037L45.558 43.2899L47.3076 41.5403L56.3284 50.4867L56.3408 52.2611Z" fill="white"/>
</g>
<defs>
<clipPath id="clip0_1095_993">
<rect width="44.67" height="44.67" fill="white" transform="translate(16.75 17.5234)"/>
</clipPath>
</defs>
</svg>
