<svg width="169" height="36" viewBox="0 0 169 36" fill="none" xmlns="http://www.w3.org/2000/svg">
<path d="M40.418 22.845C39.5624 24.6432 36.8672 29.6432 31.049 32.845C25.9581 35.652 21.1666 35.6081 19.1987 35.4766C17.9153 35.3888 12.311 34.9064 6.92064 30.6081C3.28428 27.7134 1.35915 24.3362 0.417969 22.4502L18.0009 22.6257C17.9153 21.8362 17.6158 21.0906 17.1452 20.4766C16.5891 19.6871 15.8618 19.1169 15.1345 18.5467C14.664 18.152 14.1506 17.7573 13.7228 17.3187C12.6105 16.1783 11.5837 14.2485 12.2682 12.4502C12.3966 12.0994 12.6105 11.7485 12.9099 11.4415L13.1239 11.1783L13.1666 11.5292C13.295 12.6695 13.8511 13.7222 14.7923 14.6871C15.1773 15.0818 15.6051 15.4766 16.0329 15.8274C16.3324 16.0906 16.6747 16.3976 16.9741 16.6608C17.5303 17.1871 18.3431 18.0204 18.7709 19.0731C19.3698 20.3888 19.2843 21.7485 18.5998 22.7134L22.3645 22.7573C22.4073 20.345 21.6372 17.8888 19.6693 15.959C19.1132 15.4327 18.5142 14.9064 17.9581 14.3801C16.7174 13.2836 15.434 12.0994 14.4073 10.7836C12.696 8.5906 12.3966 5.78358 13.6372 3.5906C13.7228 3.41516 13.8083 3.28358 13.9367 3.152C14.7495 1.96779 15.9902 1.13446 17.3591 0.78358C17.9153 0.520422 18.5142 0.476562 19.1132 0.476562L19.9688 0.520422L19.1559 0.78358C18.8993 0.871299 18.3003 1.13446 17.6586 1.61691C17.1025 2.05551 16.5035 2.66954 16.0757 3.54674C15.6907 4.42393 15.5624 5.34498 15.6907 6.22218C15.8618 7.23095 16.3324 8.19586 17.1452 9.11691C17.7442 9.81867 18.557 10.3888 19.2843 10.9152C19.7121 11.2222 20.1399 11.5292 20.5677 11.8801C21.9367 13.0204 22.9634 14.2046 23.6479 15.3888C24.0329 16.0906 24.3752 16.8362 24.5891 17.5818C24.5891 17.6257 24.6319 17.6695 24.6319 17.6695C25.0597 19.2924 25.1452 21.0029 24.9313 22.6695C24.9313 22.7134 24.9313 22.7573 24.9313 22.8011C24.5891 25.3888 23.6051 27.845 22.2789 29.8625C22.1506 30.0818 21.9795 30.3011 21.8511 30.4766L21.295 31.266L22.1078 30.7836C23.2201 30.1257 24.2468 29.3362 25.1025 28.4152C26.5998 26.7924 27.6693 24.8187 28.2255 22.7134L40.418 22.845Z" fill="#FF7834"/>
<path d="M24.9792 22.6758C25.1931 21.0091 25.1075 19.3424 24.6797 17.6758C25.1503 19.3424 25.2786 21.053 24.9792 22.6758Z" fill="#FF7834"/>
<path d="M26.0523 15.1329L25.7956 15.3522V15.0014C25.7528 14.1242 25.4534 13.247 24.94 12.5014C24.3838 11.7119 23.6566 11.1417 22.9293 10.5715C22.4587 10.1768 21.9453 9.78207 21.5175 9.34348C20.4908 8.29084 19.5068 6.53646 19.9346 4.82593C19.9774 4.69435 20.0202 4.60663 20.063 4.47505C20.1913 4.12418 20.4052 3.7733 20.7047 3.46628L20.9186 3.20312L20.9614 3.554C21.0897 4.69435 21.6459 5.74698 22.587 6.7119C22.9721 7.10663 23.3999 7.50137 23.8277 7.85225C24.1272 8.11541 24.4694 8.42242 24.7689 8.68558C25.325 9.2119 26.1378 10.0452 26.6084 11.0979C26.694 11.2733 26.7796 11.4926 26.8223 11.668C27.1646 12.9838 26.8651 14.2996 26.0523 15.1329Z" fill="#FF7834"/>
<path d="M81.3126 14.5838C82.7847 16.0559 83.613 17.7756 83.8074 19.6876H68.1648H67.904V19.9484V21.3177V21.5785H68.1648H85.3165H85.5774V21.3177V20.8853C85.5774 17.8638 84.5427 15.3484 82.5496 13.2815L82.5496 13.2814L82.5463 13.2781C80.5507 11.2825 78.0338 10.247 75.1552 10.247C72.205 10.247 69.686 11.2824 67.6888 13.3535C65.6984 15.4177 64.661 17.8599 64.661 20.7412C64.661 23.6223 65.6986 26.0684 67.7676 28.0635C69.8317 30.0539 72.274 31.0912 75.1552 31.0912C77.7448 31.0912 80.1815 30.1287 82.2419 28.3632C82.2424 28.3628 82.2428 28.3624 82.2433 28.362L82.6729 28.004L82.9087 27.8075L82.6768 27.6065L81.5958 26.6697L81.4368 26.5319L81.2685 26.6581L80.9802 26.8743L80.972 26.8804L80.9644 26.8872C79.2038 28.4365 77.3176 29.2003 75.2273 29.2003C72.8438 29.2003 70.7489 28.3613 69.0699 26.6823C67.3885 25.0009 66.552 22.9771 66.552 20.6691C66.552 18.2846 67.3915 16.1924 69.066 14.5877L69.066 14.5877L69.0699 14.5838C70.7497 12.904 72.7729 12.0658 75.2273 12.0658C77.6085 12.0658 79.632 12.9032 81.3126 14.5838Z" fill="#FF7834" stroke="#FF7834" stroke-width="0.521664"/>
<path d="M114.763 10.9414V10.6806H114.502H113.133H112.872V10.9414V30.4713V30.7321H113.133H114.502H114.763V30.4713V10.9414Z" fill="#FF7834" stroke="#FF7834" stroke-width="0.521664"/>
<path d="M115.186 6.86754C114.838 6.52007 114.334 6.35974 113.851 6.35974C113.573 6.35974 113.323 6.39949 113.087 6.49602C112.85 6.59263 112.642 6.74063 112.444 6.93961C112.116 7.26688 111.864 7.76194 111.864 8.2747C111.864 8.82191 112.02 9.33846 112.454 9.69182C112.785 10.0187 113.277 10.2617 113.851 10.2617C114.329 10.2617 114.829 10.1045 115.176 9.76399C115.605 9.41373 115.766 8.90118 115.766 8.41884C115.766 7.79254 115.606 7.28783 115.186 6.86754ZM114.314 8.2747C114.314 8.35276 114.301 8.4063 114.282 8.4494C114.262 8.49362 114.23 8.54026 114.173 8.59712C114.116 8.65399 114.07 8.68641 114.025 8.70606C113.982 8.72521 113.929 8.73792 113.851 8.73792C113.773 8.73792 113.719 8.72521 113.676 8.70606C113.632 8.6864 113.585 8.65399 113.528 8.59712C113.443 8.5122 113.387 8.36774 113.387 8.20264C113.387 8.12458 113.4 8.07104 113.419 8.02794C113.439 7.98372 113.471 7.93708 113.528 7.88022C113.571 7.83744 113.63 7.80082 113.694 7.77506C113.76 7.74885 113.817 7.73942 113.851 7.73942C113.972 7.73942 114.057 7.76795 114.212 7.86559C114.221 7.88962 114.229 7.9119 114.236 7.9328C114.286 8.07378 114.314 8.15153 114.314 8.2747Z" fill="#FF7834" stroke="#FF7834" stroke-width="0.514888"/>
<path d="M144.743 4.66797V4.40714H144.483H143.113H142.852V4.66797V30.6117V30.8725H143.113H144.483H144.743V30.6117V4.66797Z" fill="#FF7834" stroke="#FF7834" stroke-width="0.521664"/>
<path d="M167.977 21.5785H168.238V21.3177V20.8853C168.238 17.8638 167.203 15.3484 165.21 13.2815L165.21 13.2814L165.206 13.2781C163.211 11.2825 160.694 10.247 157.815 10.247C154.865 10.247 152.346 11.2824 150.349 13.3535C148.359 15.4177 147.321 17.8599 147.321 20.7412C147.321 23.6223 148.359 26.0684 150.428 28.0635C152.492 30.0539 154.934 31.0912 157.815 31.0912C160.405 31.0912 162.842 30.1287 164.902 28.3632C164.903 28.3628 164.903 28.3624 164.903 28.362L165.333 28.004L165.569 27.8075L165.337 27.6065L164.256 26.6697L164.097 26.5319L163.929 26.6581L163.64 26.8743L163.632 26.8804L163.625 26.8872C161.864 28.4365 159.978 29.2003 157.887 29.2003C155.504 29.2003 153.409 28.3613 151.73 26.6823C150.049 25.0009 149.212 22.9771 149.212 20.6691C149.212 18.2846 150.052 16.1924 151.726 14.5877L151.726 14.5877L151.73 14.5838C153.41 12.904 155.433 12.0658 157.887 12.0658C160.269 12.0658 162.292 12.9032 163.973 14.5838C165.445 16.0559 166.273 17.7756 166.468 19.6876H150.969H150.708V19.9484V21.3177H150.825V21.5785H150.969H151.23H167.977Z" fill="#FF7834" stroke="#FF7834" stroke-width="0.521664"/>
<path d="M73.2532 5.03125V4.77042H72.9923H46.9766H46.7157V5.03125V6.4005V6.66133H46.9766H57.8859V31.2632V31.5241H58.1468H59.516H59.7769V31.2632V6.66133H72.9923H73.2532V6.4005V5.03125Z" fill="#FF7834" stroke="#FF7834" stroke-width="0.521664"/>
<path d="M106.602 14.9741C104.662 12.2338 101.482 10.5335 97.999 10.5335C92.2338 10.5335 87.5048 15.2625 87.5048 21.0277C87.5048 26.7905 92.2314 31.594 97.999 31.594C103.764 31.594 108.493 26.865 108.493 21.0998V4.95703V4.6962H108.232H106.863H106.602V4.95703V14.9741ZM105.548 17.2512C106.111 18.4489 106.458 19.7068 106.458 21.0277V21.0998C106.458 25.7842 102.683 29.5589 97.999 29.5589C93.3146 29.5589 89.5398 25.7842 89.5398 21.0998C89.5398 16.4154 93.3146 12.6407 97.999 12.6407C101.215 12.6407 104.079 14.3861 105.548 17.2512Z" fill="#FF7834" stroke="#FF7834" stroke-width="0.521664"/>
<path d="M129.778 10.5335C126.242 10.5335 123.08 12.2247 121.103 15.0838V4.95703V4.6962H120.842H119.473H119.212V4.95703V21.0277C119.212 26.7929 123.941 31.5219 129.706 31.5219C135.471 31.5219 140.2 26.7929 140.2 21.0277C140.2 15.2662 135.619 10.5335 129.778 10.5335ZM122.225 17.1861L122.226 17.1862L122.227 17.183C123.696 14.3156 126.561 12.5686 129.778 12.5686C134.462 12.5686 138.237 16.3434 138.237 21.0277C138.237 25.7121 134.462 29.4869 129.778 29.4869C125.094 29.4869 121.319 25.7121 121.319 21.0277V20.9557C121.319 19.6247 121.599 18.3701 122.225 17.1861Z" fill="#FF7834" stroke="#FF7834" stroke-width="0.521664"/>
</svg>
