<svg width="29" height="17" viewBox="0 0 29 17" fill="none" xmlns="http://www.w3.org/2000/svg">
<path d="M13.5966 0.387077L0.344639 14.2954C0.123412 14.5274 0 14.8357 0 15.1564C0 15.477 0.123412 15.7853 0.344639 16.0174L0.359613 16.0323C0.466859 16.1452 0.59595 16.2351 0.739034 16.2966C0.882117 16.358 1.0362 16.3897 1.19191 16.3897C1.34763 16.3897 1.50171 16.358 1.64479 16.2966C1.78788 16.2351 1.91697 16.1452 2.02421 16.0323L14.5025 2.93514L26.9758 16.0323C27.083 16.1452 27.2121 16.2351 27.3552 16.2966C27.4983 16.358 27.6524 16.3897 27.8081 16.3897C27.9638 16.3897 28.1179 16.358 28.261 16.2966C28.404 16.2351 28.5331 16.1452 28.6404 16.0323L28.6554 16.0174C28.8766 15.7853 29 15.477 29 15.1564C29 14.8357 28.8766 14.5274 28.6554 14.2954L15.4034 0.387077C15.2869 0.264759 15.1467 0.167381 14.9914 0.100845C14.8361 0.0343087 14.6689 0 14.5 0C14.3311 0 14.1639 0.0343087 14.0086 0.100845C13.8533 0.167381 13.7131 0.264759 13.5966 0.387077Z" fill="#494B4D"/>
</svg>
