<svg width="99" height="16" viewBox="0 0 99 16" fill="none" xmlns="http://www.w3.org/2000/svg">
<path d="M8.33684 0L10.2086 5.40058H16.2657L11.3654 8.73832L13.2371 14.1389L8.33684 10.8012L3.43657 14.1389L5.30831 8.73832L0.408034 5.40058H6.4651L8.33684 0Z" fill="#FF7834"/>
<path d="M29.1806 0L31.0523 5.40058H37.1094L32.2091 8.73832L34.0809 14.1389L29.1806 10.8012L24.2803 14.1389L26.1521 8.73832L21.2518 5.40058H27.3089L29.1806 0Z" fill="#FF7834"/>
<path d="M49.4994 0L51.2541 5.40058H56.9326L52.3386 8.73832L54.0934 14.1389L49.4994 10.8012L44.9054 14.1389L46.6601 8.73832L42.0661 5.40058H47.7446L49.4994 0Z" fill="#FF7834"/>
<path d="M69.8212 0L71.693 5.40058H77.75L72.8498 8.73832L74.7215 14.1389L69.8212 10.8012L64.9209 14.1389L66.7927 8.73832L61.8924 5.40058H67.9495L69.8212 0Z" fill="#FF7834"/>
<path d="M90.665 0L92.5367 5.40058H98.5938L93.6935 8.73832L95.5652 14.1389L90.665 10.8012L85.7647 14.1389L87.6364 8.73832L82.7362 5.40058H88.7932L90.665 0Z" fill="#FF7834"/>
</svg>
