<svg width="21" height="21" viewBox="0 0 21 21" fill="none" xmlns="http://www.w3.org/2000/svg">
<path d="M17.6602 7.76562H12.6602V2.76562C12.6602 2.10258 12.3968 1.4667 11.9279 0.997858C11.4591 0.529017 10.8232 0.265625 10.1602 0.265625C9.49712 0.265625 8.86123 0.529017 8.39239 0.997858C7.92355 1.4667 7.66016 2.10258 7.66016 2.76562L7.74891 7.76562H2.66016C1.99712 7.76562 1.36123 8.02902 0.892389 8.49786C0.423548 8.9667 0.160156 9.60258 0.160156 10.2656C0.160156 10.9287 0.423548 11.5646 0.892389 12.0334C1.36123 12.5022 1.99712 12.7656 2.66016 12.7656L7.74891 12.6769L7.66016 17.7656C7.66016 18.4287 7.92355 19.0646 8.39239 19.5334C8.86123 20.0022 9.49712 20.2656 10.1602 20.2656C10.8232 20.2656 11.4591 20.0022 11.9279 19.5334C12.3968 19.0646 12.6602 18.4287 12.6602 17.7656V12.6769L17.6602 12.7656C18.3232 12.7656 18.9591 12.5022 19.4279 12.0334C19.8968 11.5646 20.1602 10.9287 20.1602 10.2656C20.1602 9.60258 19.8968 8.9667 19.4279 8.49786C18.9591 8.02902 18.3232 7.76562 17.6602 7.76562Z" fill="white"/>
</svg>
