<svg width="40" height="41" viewBox="0 0 40 41" fill="none" xmlns="http://www.w3.org/2000/svg">
<rect y="0.632812" width="40" height="40" rx="20" fill="#FF7834"/>
<path d="M27.5 18.1328H22.5V13.1328C22.5 12.4698 22.2366 11.8339 21.7678 11.365C21.2989 10.8962 20.663 10.6328 20 10.6328C19.337 10.6328 18.7011 10.8962 18.2322 11.365C17.7634 11.8339 17.5 12.4698 17.5 13.1328L17.5887 18.1328H12.5C11.837 18.1328 11.2011 18.3962 10.7322 18.865C10.2634 19.3339 10 19.9698 10 20.6328C10 21.2959 10.2634 21.9317 10.7322 22.4006C11.2011 22.8694 11.837 23.1328 12.5 23.1328L17.5887 23.0441L17.5 28.1328C17.5 28.7959 17.7634 29.4317 18.2322 29.9006C18.7011 30.3694 19.337 30.6328 20 30.6328C20.663 30.6328 21.2989 30.3694 21.7678 29.9006C22.2366 29.4317 22.5 28.7959 22.5 28.1328V23.0441L27.5 23.1328C28.163 23.1328 28.7989 22.8694 29.2678 22.4006C29.7366 21.9317 30 21.2959 30 20.6328C30 19.9698 29.7366 19.3339 29.2678 18.865C28.7989 18.3962 28.163 18.1328 27.5 18.1328Z" fill="white"/>
</svg>
