<svg width="22" height="20" viewBox="0 0 22 20" fill="none" xmlns="http://www.w3.org/2000/svg">
<path d="M2.464 14.828C1 13.657 1 12.771 1 9C1 5.229 1 3.343 2.464 2.172C3.93 1 6.286 1 11 1C15.714 1 18.071 1 19.535 2.172C20.999 3.344 21 5.229 21 9C21 12.771 21 13.657 19.535 14.828C18.072 16 15.714 16 11 16C8.49 16 7.2 17.738 5 19V15.788C3.906 15.625 3.101 15.338 2.464 14.828Z" stroke="black" stroke-width="1.5" stroke-linecap="round" stroke-linejoin="round"/>
<path d="M7 7.514H13C13.5304 7.514 14.0391 7.72471 14.4142 8.09979C14.7893 8.47486 15 8.98357 15 9.514V12M7 7.514L9.39 10.027M7 7.514L9.39 5" stroke="black" stroke-width="1.5" stroke-linecap="round" stroke-linejoin="round"/>
</svg>
