<svg width="40" height="41" viewBox="0 0 40 41" fill="none" xmlns="http://www.w3.org/2000/svg">
<path d="M37.9969 9.74139C37.862 9.65722 37.7078 9.60876 37.549 9.60056C37.3902 9.59236 37.2319 9.62469 37.0891 9.69451C30.2672 13.0258 25.4188 11.4742 20.2859 9.83201C15.025 8.1492 9.58594 6.41014 2.08906 10.0726C1.93123 10.1496 1.79818 10.2694 1.70508 10.4183C1.61199 10.5672 1.56258 10.7392 1.5625 10.9148V29.6648C1.56258 29.8238 1.60308 29.9802 1.6802 30.1192C1.75733 30.2582 1.86853 30.3753 2.00337 30.4595C2.13821 30.5437 2.29226 30.5923 2.45102 30.6006C2.60978 30.6089 2.76805 30.5767 2.91094 30.507C9.73281 27.1758 14.5813 28.7273 19.7141 30.3695C22.6828 31.3211 25.7234 32.2914 29.1547 32.2914C31.7875 32.2914 34.6562 31.7195 37.9047 30.1289C38.0625 30.0519 38.1956 29.9322 38.2887 29.7833C38.3818 29.6344 38.4312 29.4623 38.4313 29.2867V10.5367C38.432 10.3782 38.3925 10.2222 38.3165 10.0831C38.2406 9.94399 38.1306 9.82644 37.9969 9.74139ZM36.5625 28.6914C30.0156 31.693 25.2859 30.1805 20.2859 28.5805C17.3094 27.6258 14.2766 26.6601 10.8453 26.6601C8.58125 26.6601 6.14531 27.082 3.4375 28.2101V11.5039C9.98438 8.50233 14.7141 10.0148 19.7141 11.6148C24.6531 13.1976 29.7516 14.8289 36.5625 11.9898V28.6914ZM20 15.4101C19.0729 15.4101 18.1666 15.6851 17.3958 16.2001C16.6249 16.7152 16.0241 17.4473 15.6693 18.3038C15.3145 19.1603 15.2217 20.1028 15.4026 21.0121C15.5834 21.9214 16.0299 22.7566 16.6854 23.4122C17.341 24.0678 18.1762 24.5142 19.0855 24.6951C19.9948 24.8759 20.9373 24.7831 21.7938 24.4283C22.6504 24.0735 23.3824 23.4727 23.8975 22.7019C24.4126 21.931 24.6875 21.0247 24.6875 20.0976C24.6875 18.8544 24.1936 17.6622 23.3146 16.7831C22.4355 15.904 21.2432 15.4101 20 15.4101ZM20 22.9101C19.4437 22.9101 18.9 22.7452 18.4375 22.4361C17.9749 22.1271 17.6145 21.6879 17.4016 21.1739C17.1887 20.66 17.133 20.0945 17.2415 19.5489C17.3501 19.0034 17.6179 18.5022 18.0113 18.1089C18.4046 17.7156 18.9057 17.4477 19.4513 17.3392C19.9969 17.2307 20.5624 17.2864 21.0763 17.4992C21.5902 17.7121 22.0295 18.0726 22.3385 18.5351C22.6475 18.9976 22.8125 19.5414 22.8125 20.0976C22.8125 20.8436 22.5162 21.5589 21.9887 22.0864C21.4613 22.6138 20.7459 22.9101 20 22.9101ZM8.4375 15.0976V22.5976C8.4375 22.8463 8.33873 23.0847 8.16291 23.2606C7.9871 23.4364 7.74864 23.5351 7.5 23.5351C7.25136 23.5351 7.0129 23.4364 6.83709 23.2606C6.66127 23.0847 6.5625 22.8463 6.5625 22.5976V15.0976C6.5625 14.849 6.66127 14.6105 6.83709 14.4347C7.0129 14.2589 7.25136 14.1601 7.5 14.1601C7.74864 14.1601 7.9871 14.2589 8.16291 14.4347C8.33873 14.6105 8.4375 14.849 8.4375 15.0976ZM31.5625 25.0976V17.5976C31.5625 17.349 31.6613 17.1105 31.8371 16.9347C32.0129 16.7589 32.2514 16.6601 32.5 16.6601C32.7486 16.6601 32.9871 16.7589 33.1629 16.9347C33.3387 17.1105 33.4375 17.349 33.4375 17.5976V25.0976C33.4375 25.3463 33.3387 25.5847 33.1629 25.7606C32.9871 25.9364 32.7486 26.0351 32.5 26.0351C32.2514 26.0351 32.0129 25.9364 31.8371 25.7606C31.6613 25.5847 31.5625 25.3463 31.5625 25.0976Z" fill="white"/>
</svg>
