<svg width="40" height="41" viewBox="0 0 40 41" fill="none" xmlns="http://www.w3.org/2000/svg">
<path d="M17.5 7.59766C17.5 6.13897 16.9205 4.74002 15.8891 3.70857C14.8576 2.67712 13.4587 2.09766 12 2.09766C10.5413 2.09766 9.14236 2.67712 8.11091 3.70857C7.07946 4.74002 6.5 6.13897 6.5 7.59766C6.5 9.05635 7.07946 10.4553 8.11091 11.4867C9.14236 12.5182 10.5413 13.0977 12 13.0977C13.4587 13.0977 14.8576 12.5182 15.8891 11.4867C16.9205 10.4553 17.5 9.05635 17.5 7.59766ZM8.5 7.59766C8.5 7.13803 8.59053 6.6829 8.76642 6.25826C8.94231 5.83362 9.20012 5.44779 9.52513 5.12278C9.85013 4.79778 10.236 4.53997 10.6606 4.36408C11.0852 4.18819 11.5404 4.09766 12 4.09766C12.4596 4.09766 12.9148 4.18819 13.3394 4.36408C13.764 4.53997 14.1499 4.79778 14.4749 5.12278C14.7999 5.44779 15.0577 5.83362 15.2336 6.25826C15.4095 6.6829 15.5 7.13803 15.5 7.59766C15.5 8.52591 15.1313 9.41615 14.4749 10.0725C13.8185 10.7289 12.9283 11.0977 12 11.0977C11.0717 11.0977 10.1815 10.7289 9.52513 10.0725C8.86875 9.41615 8.5 8.52591 8.5 7.59766ZM5 15.0977H13.366C13.038 15.7177 12.794 16.3897 12.65 17.0977H5C4.73478 17.0977 4.48043 17.203 4.29289 17.3905C4.10536 17.5781 4 17.8324 4 18.0977V19.0977C4 21.6177 6.198 24.3257 10.192 24.9577C9.548 25.3977 9.012 25.9837 8.63 26.6657C4.41 25.5237 2 22.2717 2 19.0977V18.0977C2 17.302 2.31607 16.5389 2.87868 15.9763C3.44129 15.4137 4.20435 15.0977 5 15.0977ZM15.758 15.0977C16.766 13.8777 18.292 13.0977 20 13.0977C21.1977 13.0956 22.3633 13.4854 23.3188 14.2076C24.2743 14.9298 24.9673 15.9448 25.292 17.0977C25.5815 18.1266 25.5652 19.2177 25.2451 20.2375C24.9249 21.2574 24.3149 22.1621 23.4893 22.8411C22.6638 23.5201 21.6584 23.9441 20.5959 24.0614C19.5335 24.1787 18.4598 23.9842 17.506 23.5017C16.7716 23.1279 16.1306 22.5939 15.6304 21.9391C15.1301 21.2844 14.7833 20.5256 14.6157 19.7188C14.4481 18.912 14.4639 18.0778 14.662 17.278C14.86 16.4781 15.2333 15.733 15.758 15.0977ZM16.84 17.0977C16.643 17.5132 16.5298 17.9634 16.5068 18.4226C16.4838 18.8819 16.5515 19.3412 16.7061 19.7743C17.0181 20.649 17.6649 21.3638 18.504 21.7617C19.3431 22.1595 20.306 22.2077 21.1806 21.8956C22.0553 21.5835 22.7702 20.9368 23.168 20.0977C23.5658 19.2582 23.6139 18.2952 23.3017 17.4203C22.9894 16.5455 22.3424 15.8305 21.503 15.4327C20.6636 15.0348 19.7005 14.9868 18.8257 15.299C17.9508 15.6113 17.2358 16.2582 16.838 17.0977M31.37 26.6657C30.9898 25.9827 30.4549 25.3984 29.808 24.9597C33.8 24.3257 36 21.6157 36 19.0977V18.0977C36 17.8324 35.8946 17.5781 35.7071 17.3905C35.5196 17.203 35.2652 17.0977 35 17.0977H27.35C27.2094 16.4001 26.9689 15.7265 26.636 15.0977H35C35.7957 15.0977 36.5587 15.4137 37.1213 15.9763C37.6839 16.5389 38 17.302 38 18.0977V19.0977C38 22.2717 35.588 25.5217 31.37 26.6657ZM28.974 26.8397C28.4275 26.3616 27.7261 26.0979 27 26.0977H13C12.6057 26.0966 12.2152 26.1735 11.8507 26.3239C11.4862 26.4743 11.1551 26.6952 10.8763 26.974C10.5975 27.2528 10.3766 27.5839 10.2262 27.9484C10.0758 28.3128 9.99894 28.7034 10 29.0977V30.0977C10 34.0397 13.72 38.0977 20 38.0977C26.28 38.0977 30 34.0397 30 30.0977V29.0977C30 28.1977 29.604 27.3897 28.974 26.8377M12 29.0977C12 28.8324 12.1054 28.5781 12.2929 28.3905C12.4804 28.203 12.7348 28.0977 13 28.0977H27C27.2652 28.0977 27.5196 28.203 27.7071 28.3905C27.8946 28.5781 28 28.8324 28 29.0977V30.0977C28 32.9737 25.136 36.0977 20 36.0977C14.864 36.0977 12 32.9737 12 30.0977V29.0977ZM28 2.09766C29.4587 2.09766 30.8576 2.67712 31.8891 3.70857C32.9205 4.74002 33.5 6.13897 33.5 7.59766C33.5 9.05635 32.9205 10.4553 31.8891 11.4867C30.8576 12.5182 29.4587 13.0977 28 13.0977C26.5413 13.0977 25.1424 12.5182 24.1109 11.4867C23.0795 10.4553 22.5 9.05635 22.5 7.59766C22.5 6.13897 23.0795 4.74002 24.1109 3.70857C25.1424 2.67712 26.5413 2.09766 28 2.09766ZM28 4.09766C27.0717 4.09766 26.1815 4.46641 25.5251 5.12278C24.8687 5.77916 24.5 6.6694 24.5 7.59766C24.5 8.52591 24.8687 9.41615 25.5251 10.0725C26.1815 10.7289 27.0717 11.0977 28 11.0977C28.9283 11.0977 29.8185 10.7289 30.4749 10.0725C31.1313 9.41615 31.5 8.52591 31.5 7.59766C31.5 6.6694 31.1313 5.77916 30.4749 5.12278C29.8185 4.46641 28.9283 4.09766 28 4.09766Z" fill="white"/>
</svg>
