<svg width="40" height="41" viewBox="0 0 40 41" fill="none" xmlns="http://www.w3.org/2000/svg">
<path d="M35 16.6585H33.4016C33.1535 13.2738 31.6339 10.1082 29.1479 7.79777C26.662 5.48733 23.3938 4.20313 20 4.20312C16.6062 4.20312 13.338 5.48733 10.8521 7.79777C8.36611 10.1082 6.84648 13.2738 6.59844 16.6585H5C4.75136 16.6585 4.5129 16.7573 4.33709 16.9331C4.16127 17.1089 4.0625 17.3474 4.0625 17.596C4.06808 20.5437 4.8882 23.4324 6.43231 25.9432C7.97642 28.4541 10.1844 30.4893 12.8125 31.8241V32.596C12.8125 33.1762 13.043 33.7326 13.4532 34.1428C13.8634 34.5531 14.4198 34.7835 15 34.7835H25C25.5802 34.7835 26.1366 34.5531 26.5468 34.1428C26.957 33.7326 27.1875 33.1762 27.1875 32.596V31.8241C29.8156 30.4893 32.0236 28.4541 33.5677 25.9432C35.1118 23.4324 35.9319 20.5437 35.9375 17.596C35.9375 17.3474 35.8387 17.1089 35.6629 16.9331C35.4871 16.7573 35.2486 16.6585 35 16.6585ZM27.225 8.57883C27.6787 8.9421 28.1044 9.33906 28.4984 9.76633C26.7582 10.3081 25.1466 11.1986 23.7618 12.3835C22.377 13.5685 21.248 15.023 20.4437 16.6585H15.2094C15.9477 14.3069 17.416 12.2516 19.4011 10.7907C21.3863 9.3298 23.7852 8.53918 26.25 8.53352C26.575 8.53352 26.9016 8.55071 27.225 8.57883ZM29.7344 11.3679C30.7564 12.9575 31.3704 14.7748 31.5219 16.6585H22.575C23.3589 15.3468 24.3954 14.2037 25.6243 13.2955C26.8533 12.3874 28.2503 11.7322 29.7344 11.3679ZM20 6.03352C21.4323 6.03126 22.8524 6.29621 24.1875 6.81477C21.6087 7.22185 19.2034 8.36864 17.2636 10.116C15.3238 11.8633 13.9328 14.1361 13.2594 16.6585H8.47812C8.71673 13.7654 10.0335 11.0676 12.1676 9.09968C14.3016 7.13176 17.0971 6.03741 20 6.03352ZM25.8594 30.3835C25.6961 30.4584 25.5577 30.5786 25.4607 30.7298C25.3638 30.8811 25.3123 31.057 25.3125 31.2366V32.596C25.3125 32.6789 25.2796 32.7584 25.221 32.817C25.1624 32.8756 25.0829 32.9085 25 32.9085H15C14.9171 32.9085 14.8376 32.8756 14.779 32.817C14.7204 32.7584 14.6875 32.6789 14.6875 32.596V31.2366C14.6877 31.057 14.6362 30.8811 14.5393 30.7298C14.4423 30.5786 14.3039 30.4584 14.1406 30.3835C11.8408 29.3229 9.86867 27.6632 8.4309 25.5783C6.99314 23.4934 6.1427 21.0601 5.96875 18.5335H34.0312C33.8573 21.0601 33.0069 23.4934 31.5691 25.5783C30.1313 27.6632 28.1592 29.3229 25.8594 30.3835Z" fill="white"/>
</svg>
