<svg width="80" height="81" viewBox="0 0 80 81" fill="none" xmlns="http://www.w3.org/2000/svg">
<path d="M79.7119 2.42377C79.5119 1.42377 79.3119 1.02377 78.3119 1.02377C75.1119 0.823773 72.0119 1.02377 68.8119 1.42377C61.3119 2.42377 54.0119 4.62377 47.3119 8.12377C40.0119 11.9238 33.5119 17.0238 28.1119 23.5238C22.8119 29.8238 19.0119 36.9238 16.5119 44.7238C16.3119 45.3238 16.5119 45.9238 16.9119 46.3238C18.1119 47.3238 19.1119 48.5238 20.3119 49.7238C21.3119 50.7238 22.1119 51.5238 23.1119 52.5238C23.3119 52.9238 23.9119 52.9238 24.3119 52.7238C24.7119 52.5238 24.9119 52.1238 24.9119 51.7238C24.9119 51.3238 24.7119 50.9238 24.5119 50.7238C22.7119 48.9238 20.9119 47.1238 19.2119 45.4238C19.0119 45.2238 18.8119 45.0238 19.0119 44.6238C21.2119 38.3238 24.1119 32.3238 28.3119 27.0238C34.2119 19.1238 41.7119 13.2238 50.6119 9.02377C57.9119 5.42377 65.6119 3.72377 73.7119 3.32377C74.9119 3.32377 76.3119 3.32377 77.5119 3.32377C77.5119 3.72377 77.7119 3.92377 77.7119 4.32377C77.7119 10.2238 76.9119 16.0238 75.3119 21.5238C72.3119 31.6238 67.2119 40.5238 59.5119 48.0238C52.8119 54.2238 45.1119 58.9238 36.4119 61.9238C36.0119 62.1238 35.8119 62.1238 35.4119 61.7238C33.6119 59.9238 31.8119 58.1238 30.1119 56.4238C29.5119 55.8238 28.7119 55.8238 28.3119 56.4238C27.9119 57.0238 28.1119 57.6238 28.5119 58.0238C30.5119 60.0238 32.6119 62.2238 34.6119 64.1238C35.0119 64.7238 35.4119 64.7238 36.0119 64.5238C38.0119 63.7238 39.9119 63.1238 41.7119 62.3238C53.5119 57.2238 63.0119 49.0238 69.9119 38.2238C76.9119 27.1238 80.1119 15.2238 79.7119 2.42377Z" fill="#FF7834"/>
<path d="M66.4119 26.3238C66.4119 19.6238 61.1119 14.2238 54.2119 14.2238C47.7119 14.2238 42.4119 19.7238 42.4119 26.3238C42.4119 33.0238 47.7119 38.4238 54.4119 38.4238C61.1119 38.4238 66.4119 33.0238 66.4119 26.3238ZM44.3119 26.5238C44.3119 21.0238 48.6119 16.6238 54.2119 16.6238C59.8119 16.6238 64.1119 21.0238 64.1119 26.5238C64.1119 31.8238 59.8119 36.2238 54.2119 36.4238C48.7119 36.4238 44.3119 32.0238 44.3119 26.5238Z" fill="#FF7834"/>
<path d="M48.5119 59.9238C47.9119 59.9238 47.5119 60.3238 47.3119 61.1238C46.3119 66.2238 44.1119 70.6238 40.2119 74.2238C39.0119 75.2238 37.6119 76.2238 36.3119 77.0238C35.9119 74.2238 35.3119 71.7238 35.1119 68.9238C34.7119 67.5238 34.5119 66.3238 34.3119 65.1238C34.1119 64.7238 33.7119 64.3238 33.3119 64.3238C32.7119 64.3238 32.3119 64.5238 32.1119 64.9238C32.1119 65.1238 32.1119 65.5238 32.1119 65.9238C32.9119 70.1238 33.7119 74.4238 34.5119 78.6238C34.7119 80.0238 35.3119 80.4238 36.7119 79.6238C42.8119 76.2238 46.8119 71.3238 48.9119 64.6238C49.3119 63.6238 49.5119 62.4238 49.7119 61.4238C49.7119 60.5238 49.3119 59.9238 48.5119 59.9238Z" fill="#FF7834"/>
<path d="M10.0119 47.7238C11.6119 48.1238 13.4119 48.3238 14.9119 48.7238C15.7119 48.9238 16.1119 48.5238 16.3119 47.9238C16.5119 47.3238 16.1119 46.7238 15.5119 46.5238C15.3119 46.5238 15.3119 46.5238 15.1119 46.5238C12.5119 45.9238 9.8119 45.5238 7.0119 44.9238C6.0119 44.7238 4.8119 44.5238 3.6119 44.3238C3.8119 44.1238 3.8119 43.9238 3.6119 43.3238C6.6119 38.8238 10.5119 35.6238 15.6119 33.8238C16.8119 33.4238 18.2119 33.2238 19.4119 32.8238C20.2119 32.6238 20.6119 32.0238 20.4119 31.4238C20.2119 30.8238 19.6119 30.4238 19.0119 30.6238C19.0119 30.8238 18.8119 30.8238 18.6119 30.8238C13.5119 32.0238 8.9119 34.2238 5.2119 38.1238C3.4119 39.9238 2.0119 42.1238 0.911899 44.2238C0.511899 45.3238 0.711899 45.9238 1.7119 46.1238C1.9119 46.1238 1.9119 46.1238 2.1119 46.1238C4.8119 46.7238 7.4119 47.1238 10.0119 47.7238Z" fill="#FF7834"/>
<path d="M35.0119 45.9238C34.4119 45.5238 33.8119 45.5238 33.2119 46.1238C31.8119 47.5238 30.6119 48.7238 29.3119 50.1238C25.5119 53.9238 22.0119 57.4238 18.2119 61.2238C18.0119 61.4238 17.8119 61.8238 17.6119 62.0238C17.6119 62.6238 17.8119 63.0238 18.4119 63.2238C18.8119 63.4238 19.2119 63.4238 19.6119 63.0238C20.4119 62.4238 21.0119 61.6238 21.6119 61.0238C26.1119 56.6238 30.5119 52.1238 34.8119 47.7238C35.4119 47.1238 35.4119 46.3238 35.0119 45.9238Z" fill="#FF7834"/>
<path d="M13.3119 69.0238C13.5119 68.6238 13.7119 68.2238 13.5119 67.8238C13.3119 67.4238 12.9119 67.2238 12.5119 67.0238C12.1119 67.2238 11.9119 67.4238 11.5119 67.6238C10.3119 68.8238 9.3119 69.8238 8.1119 71.0238C6.5119 72.6238 4.9119 74.2238 3.4119 75.7238C3.0119 76.1238 3.0119 76.5238 3.2119 77.1238C3.4119 77.5238 3.8119 77.7238 4.2119 77.7238C4.6119 77.7238 4.8119 77.5238 5.2119 77.3238C7.8119 74.9238 10.1119 72.4238 12.5119 70.0238C12.7119 69.6238 13.1119 69.2238 13.3119 69.0238Z" fill="#FF7834"/>
<path d="M3.9119 68.8238C6.5119 66.2238 9.0119 63.7238 11.6119 61.1238C11.8119 60.9238 11.8119 60.7238 12.0119 60.5238C12.3119 59.9238 11.7119 58.9238 10.8119 58.9238C10.8119 58.9238 10.4119 59.1238 10.2119 59.5238C9.4119 60.1238 8.8119 60.7238 8.0119 61.5238C6.0119 63.5238 4.1119 65.5238 2.1119 67.4238C1.7119 67.8238 1.7119 68.6238 2.1119 69.0238C2.5119 69.6238 3.1119 69.4238 3.7119 69.0238L3.9119 68.8238Z" fill="#FF7834"/>
<path d="M21.2119 68.8238C20.6119 68.6238 20.2119 68.8238 19.8119 69.2238C17.0119 72.0238 14.5119 74.5238 11.7119 77.3238C11.1119 77.7238 11.1119 78.5238 11.5119 78.9238C12.1119 79.5238 12.7119 79.5238 13.3119 78.9238C16.1119 76.1238 18.6119 73.6238 21.4119 70.8238C21.6119 70.4238 21.8119 70.2238 21.8119 70.0238C21.8119 69.2238 21.6119 69.0238 21.2119 68.8238Z" fill="#FF7834"/>
</svg>
