<svg width="40" height="41" viewBox="0 0 40 41" fill="none" xmlns="http://www.w3.org/2000/svg">
<path d="M26.6667 3.62109C25.9594 3.62109 25.2811 3.90205 24.781 4.40214C24.281 4.90224 24 5.58052 24 6.28776C24 6.995 24.281 7.67328 24.781 8.17338C25.2811 8.67348 25.9594 8.95443 26.6667 8.95443C27.3739 8.95443 28.0522 8.67348 28.5523 8.17338C29.0524 7.67328 29.3333 6.995 29.3333 6.28776C29.3333 5.58052 29.0524 4.90224 28.5523 4.40214C28.0522 3.90205 27.3739 3.62109 26.6667 3.62109ZM21.72 8.93843C21.3728 8.93987 21.0399 9.07668 20.792 9.31976L13.752 15.9864C13.6108 16.1195 13.5004 16.2819 13.4285 16.4621C13.3565 16.6423 13.3248 16.836 13.3354 17.0298C13.3461 17.2235 13.3989 17.4126 13.4902 17.5838C13.5815 17.755 13.7091 17.9043 13.864 18.0211L18.6667 21.6211V28.9544C18.64 30.7571 21.36 30.7571 21.3333 28.9544V20.9544C21.3333 20.7474 21.2851 20.5433 21.1926 20.3581C21.1 20.173 20.9656 20.012 20.8 19.8878L18.7547 18.3491L23.6027 13.7624L25.6 16.4238C25.7245 16.5889 25.8856 16.7228 26.0708 16.8149C26.2559 16.907 26.4599 16.9547 26.6667 16.9544H30.6667C32.4693 16.9811 32.4693 14.2611 30.6667 14.2878H27.3333L25.3333 11.6211L23.7333 9.48776C23.6152 9.32485 23.4617 9.19081 23.2843 9.09567C23.107 9.00053 22.9104 8.94678 22.7093 8.93843H21.72ZM8 19.6211C5.87827 19.6211 3.84344 20.4639 2.34315 21.9642C0.842855 23.4645 0 25.4994 0 27.6211C0 29.7428 0.842855 31.7777 2.34315 33.278C3.84344 34.7782 5.87827 35.6211 8 35.6211C10.1217 35.6211 12.1566 34.7782 13.6569 33.278C15.1571 31.7777 16 29.7428 16 27.6211C16 25.4994 15.1571 23.4645 13.6569 21.9642C12.1566 20.4639 10.1217 19.6211 8 19.6211ZM32 19.6211C29.8783 19.6211 27.8434 20.4639 26.3431 21.9642C24.8429 23.4645 24 25.4994 24 27.6211C24 29.7428 24.8429 31.7777 26.3431 33.278C27.8434 34.7782 29.8783 35.6211 32 35.6211C34.1217 35.6211 36.1566 34.7782 37.6569 33.278C39.1571 31.7777 40 29.7428 40 27.6211C40 25.4994 39.1571 23.4645 37.6569 21.9642C36.1566 20.4639 34.1217 19.6211 32 19.6211ZM8 22.2878C9.41449 22.2878 10.771 22.8497 11.7712 23.8499C12.7714 24.8501 13.3333 26.2066 13.3333 27.6211C13.3333 29.0356 12.7714 30.3921 11.7712 31.3923C10.771 32.3925 9.41449 32.9544 8 32.9544C6.58551 32.9544 5.22896 32.3925 4.22876 31.3923C3.22857 30.3921 2.66667 29.0356 2.66667 27.6211C2.66667 26.2066 3.22857 24.8501 4.22876 23.8499C5.22896 22.8497 6.58551 22.2878 8 22.2878ZM32 22.2878C33.4145 22.2878 34.771 22.8497 35.7712 23.8499C36.7714 24.8501 37.3333 26.2066 37.3333 27.6211C37.3333 29.0356 36.7714 30.3921 35.7712 31.3923C34.771 32.3925 33.4145 32.9544 32 32.9544C30.5855 32.9544 29.229 32.3925 28.2288 31.3923C27.2286 30.3921 26.6667 29.0356 26.6667 27.6211C26.6667 26.2066 27.2286 24.8501 28.2288 23.8499C29.229 22.8497 30.5855 22.2878 32 22.2878Z" fill="white"/>
</svg>
