<svg width="80" height="80" viewBox="0 0 80 80" fill="none" xmlns="http://www.w3.org/2000/svg">
<path d="M32.525 55.3352C31.5615 55.5337 30.839 55.7322 30.1164 56.1292C29.153 54.9382 28.4305 53.5486 27.467 52.5561C25.781 50.571 23.8541 48.7844 22.1681 46.7994C19.5187 43.8217 17.351 40.8441 16.3876 37.0725C14.2199 27.7426 20.4821 18.6112 31.3207 15.0381C45.5313 10.2739 61.9096 18.2142 64.0773 30.7202C65.0407 36.4769 62.873 41.2411 59.0193 45.8068C57.3333 47.7919 55.1656 49.777 53.4796 51.9606C52.2753 53.3501 51.5528 54.7397 50.3485 56.1292C49.8668 56.7247 49.385 57.3203 48.6624 57.5188C43.1227 59.3053 37.583 60.8934 32.0433 62.4815C31.3207 62.68 30.839 62.4815 30.5981 62.0845C30.3573 61.4889 30.3573 60.8934 31.0799 60.6949C31.5616 60.4964 32.0433 60.2979 32.525 60.2979C37.3421 58.9083 42.1593 57.5188 46.9764 55.9307C47.4581 55.7322 47.9398 55.3352 48.1807 54.9382C50.1076 51.9606 52.5162 49.5785 54.9248 46.7994C57.3333 44.2188 59.501 41.8367 60.4644 38.6605C62.873 32.3083 61.187 26.7501 55.8882 21.9859C49.8667 16.4276 42.1593 14.6411 33.4885 16.8247C24.8176 19.0082 20.0004 23.9709 18.3144 31.3157C17.1101 36.4769 19.2778 40.8441 22.8907 44.8143C25.0584 47.1964 27.2261 49.5785 29.3939 51.9606C30.839 52.7546 31.5615 53.9456 32.525 55.3352Z" fill="#FF7834"/>
<path d="M31.3202 74.9903C31.0793 74.7918 30.5977 74.5933 30.5977 74.1963C30.5977 73.7992 30.8385 73.4022 31.0794 73.0052C31.0794 72.8067 31.5611 72.8067 31.8019 72.8067C37.1008 71.2186 42.6406 69.6306 47.9394 68.0425C49.1437 67.6455 49.6254 67.844 49.8662 68.4395C50.1071 69.035 49.6254 69.6306 48.662 70.0276C43.1222 71.6157 37.8234 73.2037 32.2837 74.9903C32.0428 74.7918 31.8019 74.7918 31.3202 74.9903Z" fill="#FF7834"/>
<path d="M31.3202 68.4406C31.0793 68.2421 30.5977 68.0436 30.5977 67.6466C30.5977 67.2496 30.8385 66.8525 31.0794 66.4555C31.0794 66.257 31.5611 66.257 31.8019 66.257C37.1008 64.669 42.6406 63.0809 47.9394 61.4928C49.1437 61.0958 49.6254 61.2943 49.8662 61.8899C50.1071 62.4854 49.8662 63.0809 48.662 63.4779C43.1222 65.066 37.8234 66.8525 32.2837 68.4406C32.0428 68.4406 31.8019 68.4406 31.3202 68.4406Z" fill="#FF7834"/>
<path d="M48.6608 73.9973C46.9748 78.7615 37.5814 81.5406 31.8008 78.96C37.3405 77.3719 42.8802 75.5854 48.6608 73.9973Z" fill="#FF7834"/>
<path d="M41.4359 4.51845C41.4359 5.31249 41.4359 6.10652 41.4359 6.90055C41.4359 7.49607 40.9542 7.89309 40.2316 7.89309C39.5091 7.89309 39.0273 7.49607 39.0273 6.90055C39.0273 5.31249 39.0273 3.72442 39.0273 1.93785C39.0273 1.34233 39.5091 0.945312 40.2316 0.945312C40.9542 0.945312 41.4359 1.34233 41.4359 1.93785C41.4359 2.73188 41.4359 3.72442 41.4359 4.51845Z" fill="#FF7834"/>
<path d="M5.06587 32.3103C6.0293 32.3103 6.99276 32.3103 7.95619 32.3103C8.91962 32.3103 9.40135 32.7073 9.40135 33.3028C9.40135 33.8983 8.91962 34.2953 7.95619 34.2953C6.02933 34.2953 4.10249 34.2953 2.17563 34.2953C1.2122 34.2953 0.730469 33.8983 0.730469 33.3028C0.730469 32.7073 1.2122 32.3103 2.17563 32.3103C3.13906 32.3103 4.10244 32.3103 5.06587 32.3103Z" fill="#FF7834"/>
<path d="M75.3954 34.493C74.432 34.493 73.4685 34.493 72.5051 34.493C71.7825 34.493 71.3008 34.096 71.3008 33.5004C71.3008 32.9049 71.7825 32.5079 72.5051 32.5079C74.4319 32.5079 76.5996 32.5079 78.5265 32.5079C79.2491 32.5079 79.7308 32.9049 79.7308 33.5004C79.7308 34.096 79.2491 34.493 78.5265 34.493C77.3222 34.493 76.3588 34.493 75.3954 34.493Z" fill="#FF7834"/>
<path d="M12.7689 9.67938C13.2506 9.87788 13.4915 10.0764 13.7323 10.2749C15.1775 11.4659 16.3818 12.4585 17.8269 13.6495C18.5495 14.2451 18.5495 14.6421 17.8269 15.2376C17.3452 15.6346 16.6226 15.6346 15.9 15.2376C14.4549 14.0465 13.0098 13.054 11.8055 11.863C11.5646 11.6645 11.3237 11.0689 11.5646 10.6719C11.8055 10.0764 12.528 9.87788 12.7689 9.67938Z" fill="#FF7834"/>
<path d="M63.1101 51.1688C63.5918 51.3673 63.8326 51.5658 64.0735 51.7643C65.5186 52.7568 66.7229 53.9479 68.1681 54.9404C68.8906 55.5359 68.8907 56.1315 68.4089 56.5285C67.9272 56.9255 67.2046 56.9255 66.482 56.33C65.0369 55.1389 63.8327 54.1464 62.3875 52.9553C62.1467 52.7568 61.9058 52.1613 62.1466 51.7643C62.1466 51.5658 62.6283 51.3673 63.1101 51.1688Z" fill="#FF7834"/>
<path d="M68.8943 10.872C68.6535 11.269 68.4126 11.4676 68.1718 11.6661C66.7266 12.8571 65.5223 13.8496 64.0772 15.0407C63.5955 15.4377 62.8729 15.6362 62.1503 15.0407C61.6686 14.6437 61.6686 14.0482 62.1503 13.4526C63.5955 12.2616 64.7997 11.0705 66.2449 10.078C66.4857 9.87949 67.2083 9.68098 67.69 9.87949C68.1718 10.078 68.4126 10.6735 68.8943 10.872Z" fill="#FF7834"/>
<path d="M12.7736 56.9242C12.5327 56.7257 12.051 56.5272 11.8102 56.1302C11.5693 55.9317 11.8102 55.3361 11.8102 55.1376C13.2553 53.9466 14.7004 52.557 16.3864 51.366C16.8682 50.969 17.5907 50.969 18.0724 51.366C18.5541 51.763 18.5541 52.3585 18.0724 52.7555C16.6273 53.9466 15.1821 55.1376 13.737 56.3287C13.4961 56.7257 13.2553 56.9242 12.7736 56.9242Z" fill="#FF7834"/>
</svg>
