<svg width="24" height="25" viewBox="0 0 24 25" fill="none" xmlns="http://www.w3.org/2000/svg">
<path d="M21 11.5547C21 16.8047 16.75 21.0547 11.5 21.0547C6.25 21.0547 2 16.8047 2 11.5547C2 6.30469 6.25 2.05469 11.5 2.05469" stroke="#FEFEFF" stroke-width="1.5" stroke-linecap="round" stroke-linejoin="round"/>
<path d="M22 22.0547L20 20.0547" stroke="#FEFEFF" stroke-width="1.5" stroke-linecap="round" stroke-linejoin="round"/>
<path d="M14.4999 6.18575C14.1499 5.08575 14.5599 3.71575 15.7199 3.34575C16.3299 3.14575 17.0799 3.31575 17.5099 3.90575C17.9099 3.29575 18.6899 3.15575 19.2899 3.34575C20.4499 3.71575 20.8599 5.08575 20.5099 6.18575C19.9599 7.93575 18.0399 8.84575 17.5099 8.84575C16.9699 8.84575 15.0699 7.95575 14.4999 6.18575Z" stroke="#FEFEFF" stroke-width="1.5" stroke-linecap="round" stroke-linejoin="round"/>
</svg>
