<svg width="24" height="25" viewBox="0 0 24 25" fill="none" xmlns="http://www.w3.org/2000/svg">
<path d="M22 5.20468V7.90469C22 10.1547 21.1 11.0547 18.85 11.0547H16.15C13.9 11.0547 13 10.1547 13 7.90469V5.20468C13 2.95468 13.9 2.05469 16.15 2.05469H18.85C21.1 2.05469 22 2.95468 22 5.20468Z" stroke="#FEFEFF" stroke-width="1.5" stroke-linecap="round" stroke-linejoin="round"/>
<path d="M11 16.2047V18.9047C11 21.1547 10.1 22.0547 7.85 22.0547H5.15C2.9 22.0547 2 21.1547 2 18.9047V16.2047C2 13.9547 2.9 13.0547 5.15 13.0547H7.85C10.1 13.0547 11 13.9547 11 16.2047Z" stroke="#FEFEFF" stroke-width="1.5" stroke-linecap="round" stroke-linejoin="round"/>
<path d="M17.3811 11.0558V13.6758C17.3811 16.3658 16.3111 17.4358 13.6211 17.4358H11.0011V16.2058C11.0011 13.9558 10.1011 13.0558 7.85109 13.0558H6.62109V10.4358C6.62109 7.74579 7.69109 6.67578 10.3811 6.67578H13.0011V7.90579C13.0011 10.1558 13.9011 11.0558 16.1511 11.0558H17.3811Z" stroke="#FEFEFF" stroke-width="1.5" stroke-linecap="round" stroke-linejoin="round"/>
</svg>
