<svg width="24" height="25" viewBox="0 0 24 25" fill="none" xmlns="http://www.w3.org/2000/svg">
<path d="M18.9688 22.0547H4.96875C1.96875 22.0547 1.96875 20.7047 1.96875 19.0547V18.0547C1.96875 17.5047 2.41875 17.0547 2.96875 17.0547H20.9688C21.5188 17.0547 21.9688 17.5047 21.9688 18.0547V19.0547C21.9688 20.7047 21.9688 22.0547 18.9688 22.0547Z" stroke="#FEFEFF" stroke-width="1.5" stroke-linecap="round" stroke-linejoin="round"/>
<path d="M20.7195 13.0547V17.0547H3.26953V13.0547C3.26953 9.21469 5.97953 6.00469 9.58953 5.23469C10.1295 5.11469 10.6895 5.05469 11.2695 5.05469H12.7195C13.2995 5.05469 13.8695 5.11469 14.4095 5.23469C18.0195 6.01469 20.7195 9.21469 20.7195 13.0547Z" stroke="#FEFEFF" stroke-width="1.5" stroke-linecap="round" stroke-linejoin="round"/>
<path d="M14.5 4.55469C14.5 4.79469 14.47 5.01469 14.41 5.23469C13.87 5.11469 13.3 5.05469 12.72 5.05469H11.27C10.69 5.05469 10.13 5.11469 9.59 5.23469C9.53 5.01469 9.5 4.79469 9.5 4.55469C9.5 3.17469 10.62 2.05469 12 2.05469C13.38 2.05469 14.5 3.17469 14.5 4.55469Z" stroke="#FEFEFF" stroke-width="1.5" stroke-linecap="round" stroke-linejoin="round"/>
<path d="M15 11.0547H9" stroke="#FEFEFF" stroke-width="1.5" stroke-linecap="round" stroke-linejoin="round"/>
</svg>
