<svg width="24" height="25" viewBox="0 0 24 25" fill="none" xmlns="http://www.w3.org/2000/svg">
<path d="M12 14.0547C13.1046 14.0547 14 13.1593 14 12.0547C14 10.9501 13.1046 10.0547 12 10.0547C10.8954 10.0547 10 10.9501 10 12.0547C10 13.1593 10.8954 14.0547 12 14.0547Z" stroke="white"/>
<path d="M5.39978 5.93596L5.64978 5.50196C5.55163 5.44521 5.4371 5.42351 5.32499 5.4404C5.21288 5.4573 5.10984 5.5118 5.03278 5.59496L5.39978 5.93596ZM3.40078 9.39996L2.92278 9.25196C2.88951 9.36017 2.89395 9.47647 2.93536 9.58183C2.97678 9.68719 3.05273 9.77537 3.15078 9.83196L3.40078 9.39996ZM3.39878 14.711L3.14878 14.278C3.05052 14.3346 2.97442 14.4229 2.93299 14.5285C2.89156 14.6341 2.88726 14.7506 2.92078 14.859L3.39878 14.711ZM5.39878 18.175L5.03178 18.515C5.10884 18.5981 5.21188 18.6526 5.32399 18.6695C5.4361 18.6864 5.55063 18.6647 5.64878 18.608L5.39878 18.175ZM9.99878 20.83H9.49878C9.49872 20.9435 9.53731 21.0537 9.60819 21.1424C9.67907 21.2311 9.77802 21.293 9.88878 21.318L9.99878 20.83ZM13.9998 20.832L14.1108 21.32C14.2213 21.2948 14.3201 21.2328 14.3908 21.1441C14.4614 21.0554 14.4999 20.9454 14.4998 20.832H13.9998ZM18.6008 18.176L18.3508 18.609C18.4489 18.6657 18.5635 18.6874 18.6756 18.6705C18.7877 18.6536 18.8907 18.5991 18.9678 18.516L18.6008 18.176ZM20.5988 14.71L21.0768 14.858C21.11 14.7497 21.1056 14.6335 21.0642 14.5281C21.0228 14.4227 20.9468 14.3345 20.8488 14.278L20.5988 14.71ZM20.6008 9.39896L20.8508 9.83196C20.949 9.77533 21.0251 9.68698 21.0666 9.5814C21.108 9.47583 21.1123 9.3593 21.0788 9.25096L20.6008 9.39896ZM18.6008 5.93396L18.9678 5.59396C18.8907 5.5108 18.7877 5.4563 18.6756 5.4394C18.5635 5.42251 18.4489 5.44421 18.3508 5.50096L18.6008 5.93396ZM14.0008 3.28096H14.5008C14.5007 3.16773 14.4621 3.0579 14.3914 2.96943C14.3208 2.88096 14.2222 2.8191 14.1118 2.79396L14.0008 3.28096ZM10.0008 3.27896L9.88978 2.79096C9.77902 2.81594 9.68007 2.87786 9.60919 2.96656C9.53831 3.05525 9.49972 3.16542 9.49978 3.27896H10.0008ZM3.87878 9.54796C4.25397 8.32908 4.89894 7.21038 5.76578 6.27496L5.03278 5.59496C4.06364 6.64034 3.34245 7.88963 2.92278 9.25196L3.87878 9.54796ZM4.63878 16.306C4.32098 15.7555 4.06572 15.1712 3.87778 14.564L2.92178 14.86C3.13245 15.5383 3.41822 16.191 3.77378 16.806L4.63878 16.306ZM5.76678 17.836C5.3353 17.3695 4.95629 16.8563 4.63878 16.306L3.77378 16.806C4.12842 17.4211 4.55071 17.9946 5.03278 18.516L5.76678 17.836ZM13.8898 20.346C12.6463 20.6291 11.355 20.6284 10.1118 20.344L9.88978 21.318C11.279 21.6359 12.7221 21.637 14.1118 21.321L13.8898 20.346ZM20.1228 14.564C19.7476 15.7828 19.1026 16.9015 18.2358 17.837L18.9688 18.517C19.9379 17.4716 20.6591 16.2213 21.0788 14.859L20.1228 14.564ZM19.3628 7.80596C19.6868 8.36896 19.9398 8.95296 20.1248 9.54796L21.0798 9.25196C20.8692 8.57356 20.5834 7.92084 20.2278 7.30596L19.3628 7.80596ZM18.2348 6.27596C18.6666 6.74212 19.0456 7.25535 19.3628 7.80596L20.2278 7.30596C19.8732 6.69081 19.4509 6.11725 18.9688 5.59596L18.2348 6.27596ZM10.1118 3.76596C11.3553 3.48286 12.6466 3.48355 13.8898 3.76796L14.1118 2.79396C12.7225 2.47595 11.2795 2.47492 9.88978 2.79096L10.1118 3.76596ZM10.5008 5.12796V3.27796H9.50078V5.12796H10.5008ZM7.25078 6.42596L5.64978 5.50196L5.14978 6.36696L6.74978 7.29196L7.25078 6.42596ZM4.75078 13.354L3.14878 14.278L3.64978 15.144L5.24978 14.22L4.75078 13.354ZM5.25078 9.88996L3.65078 8.96696L3.15078 9.83296L4.75078 10.756L5.25078 9.88996ZM10.5008 20.83V18.983H9.50078V20.83H10.5008ZM6.75078 16.818L5.14978 17.742L5.64978 18.608L7.24978 17.684L6.75078 16.818ZM18.8518 17.743L17.2508 16.818L16.7508 17.685L18.3508 18.609L18.8518 17.743ZM14.5008 20.833V18.983H13.5008V20.833H14.5008ZM20.3518 8.96596L18.7508 9.88996L19.2508 10.756L20.8508 9.83196L20.3518 8.96596ZM20.8498 14.277L19.2508 13.356L18.7508 14.222L20.3508 15.145L20.8498 14.277ZM14.5008 5.12796V3.28096H13.5008V5.12796H14.5008ZM18.3518 5.50196L16.7508 6.42696L17.2508 7.29296L18.8518 6.36796L18.3518 5.50196ZM13.5008 5.12796C13.5008 7.05196 15.5838 8.25496 17.2508 7.29296L16.7508 6.42696C16.5227 6.55865 16.2639 6.62796 16.0005 6.62792C15.7372 6.62788 15.4784 6.55849 15.2504 6.42672C15.0223 6.29495 14.833 6.10546 14.7014 5.8773C14.5698 5.64913 14.5006 5.39135 14.5008 5.12796H13.5008ZM18.7508 9.89096C17.0838 10.853 17.0838 13.259 18.7508 14.221L19.2508 13.355C19.0228 13.2233 18.8334 13.0339 18.7018 12.8059C18.5701 12.5779 18.5008 12.3193 18.5008 12.056C18.5008 11.7927 18.5701 11.534 18.7018 11.306C18.8334 11.078 19.0228 10.8886 19.2508 10.757L18.7508 9.89096ZM17.2508 16.819C15.5838 15.857 13.5008 17.058 13.5008 18.983H14.5008C14.5008 18.7197 14.5701 18.462 14.7018 18.234C14.8334 18.0059 15.0228 17.8166 15.2508 17.6849C15.4788 17.5533 15.7375 17.484 16.0008 17.484C16.2641 17.484 16.5228 17.5533 16.7508 17.685L17.2508 16.819ZM10.5008 18.983C10.5008 17.059 8.41778 15.857 6.75078 16.819L7.25078 17.685C7.47888 17.5533 7.73763 17.484 8.00102 17.484C8.26441 17.484 8.52314 17.5534 8.7512 17.6852C8.97925 17.817 9.16859 18.0065 9.30018 18.2346C9.43176 18.4628 9.50095 18.7216 9.50078 18.985L10.5008 18.983ZM5.25078 14.221C6.91778 13.259 6.91778 10.853 5.25078 9.89096L4.75078 10.757C5.75078 11.334 5.75078 12.776 4.75078 13.354L5.25078 14.221ZM9.50078 5.12796C9.5006 5.39118 9.43115 5.64971 9.29943 5.8776C9.1677 6.10548 8.97833 6.29469 8.75033 6.42622C8.52233 6.55775 8.26374 6.62697 8.00052 6.62692C7.7373 6.62688 7.47873 6.55757 7.25078 6.42596L6.75078 7.29296C8.41778 8.25496 10.5008 7.05296 10.5008 5.12796H9.50078Z" fill="white"/>
</svg>
