<svg width="41" height="36" viewBox="0 0 41 36" fill="none" xmlns="http://www.w3.org/2000/svg">
<path d="M40.418 22.845C39.5624 24.6432 36.8672 29.6432 31.049 32.845C25.9581 35.652 21.1666 35.6081 19.1987 35.4766C17.9153 35.3888 12.311 34.9064 6.92064 30.6081C3.28428 27.7134 1.35915 24.3362 0.417969 22.4502L18.0009 22.6257C17.9153 21.8362 17.6158 21.0906 17.1452 20.4766C16.5891 19.6871 15.8618 19.1169 15.1345 18.5467C14.664 18.152 14.1506 17.7573 13.7228 17.3187C12.6105 16.1783 11.5837 14.2485 12.2682 12.4502C12.3966 12.0994 12.6105 11.7485 12.9099 11.4415L13.1239 11.1783L13.1666 11.5292C13.295 12.6695 13.8511 13.7222 14.7923 14.6871C15.1773 15.0818 15.6051 15.4766 16.0329 15.8274C16.3324 16.0906 16.6747 16.3976 16.9741 16.6608C17.5303 17.1871 18.3431 18.0204 18.7709 19.0731C19.3698 20.3888 19.2843 21.7485 18.5998 22.7134L22.3645 22.7573C22.4073 20.345 21.6372 17.8888 19.6693 15.959C19.1132 15.4327 18.5142 14.9064 17.9581 14.3801C16.7174 13.2836 15.434 12.0994 14.4073 10.7836C12.696 8.5906 12.3966 5.78358 13.6372 3.5906C13.7228 3.41516 13.8083 3.28358 13.9367 3.152C14.7495 1.96779 15.9902 1.13446 17.3591 0.78358C17.9153 0.520422 18.5142 0.476562 19.1132 0.476562L19.9688 0.520422L19.1559 0.78358C18.8993 0.871299 18.3003 1.13446 17.6586 1.61691C17.1025 2.05551 16.5035 2.66954 16.0757 3.54674C15.6907 4.42393 15.5624 5.34498 15.6907 6.22218C15.8618 7.23095 16.3324 8.19586 17.1452 9.11691C17.7442 9.81867 18.557 10.3888 19.2843 10.9152C19.7121 11.2222 20.1399 11.5292 20.5677 11.8801C21.9367 13.0204 22.9634 14.2046 23.6479 15.3888C24.0329 16.0906 24.3752 16.8362 24.5891 17.5818C24.5891 17.6257 24.6319 17.6695 24.6319 17.6695C25.0597 19.2924 25.1452 21.0029 24.9313 22.6695C24.9313 22.7134 24.9313 22.7573 24.9313 22.8011C24.5891 25.3888 23.6051 27.845 22.2789 29.8625C22.1506 30.0818 21.9795 30.3011 21.8511 30.4766L21.295 31.266L22.1078 30.7836C23.2201 30.1257 24.2468 29.3362 25.1025 28.4152C26.5998 26.7924 27.6693 24.8187 28.2255 22.7134L40.418 22.845Z" fill="#FF7834"/>
</svg>
