<svg width="28" height="28" viewBox="0 0 28 28" fill="none" xmlns="http://www.w3.org/2000/svg">
<g clip-path="url(#clip0_5431_15837)">
<path d="M9.66631 1.38461C6.97633 2.31779 4.6565 4.08899 3.04756 6.43805C1.43862 8.78712 0.625374 11.5902 0.727282 14.4356C0.82919 17.2811 1.84088 20.0188 3.61374 22.2468C5.38661 24.4747 7.8272 26.0754 10.577 26.8138C12.8064 27.389 15.1421 27.4143 17.3834 26.8874C19.4138 26.4313 21.2909 25.4558 22.831 24.0563C24.4339 22.5553 25.5974 20.6457 26.1963 18.533C26.8473 16.2355 26.9632 13.8193 26.5349 11.47H14.016V16.6631H21.2661C21.1212 17.4914 20.8107 18.2819 20.3532 18.9874C19.8956 19.6928 19.3005 20.2987 18.6033 20.7688C17.718 21.3544 16.72 21.7485 15.6734 21.9256C14.6237 22.1208 13.5471 22.1208 12.4974 21.9256C11.4335 21.7057 10.4271 21.2666 9.54221 20.6363C8.12068 19.6301 7.0533 18.2005 6.4924 16.5517C5.92201 14.8719 5.92201 13.0509 6.4924 11.3712C6.89166 10.1938 7.5517 9.12175 8.42324 8.23513C9.42062 7.20187 10.6833 6.46328 12.0728 6.10042C13.4623 5.73755 14.9249 5.76442 16.3002 6.17808C17.3745 6.50786 18.3569 7.08406 19.1691 7.86074C19.9866 7.04745 20.8027 6.23207 21.6174 5.41457C22.038 4.97498 22.4966 4.55642 22.9109 4.10631C21.6711 2.95259 20.2159 2.05485 18.6286 1.46454C15.738 0.414959 12.5752 0.386753 9.66631 1.38461Z" fill="white"/>
<path d="M9.66901 1.38563C12.5776 0.387096 15.7404 0.41456 18.6313 1.46346C20.2189 2.05778 21.6735 2.95984 22.9115 4.11785C22.4909 4.56796 22.0471 4.98862 21.618 5.42611C20.8019 6.2408 19.9865 7.05268 19.1718 7.86176C18.3596 7.08508 17.3772 6.50888 16.3029 6.1791C14.9281 5.76399 13.4655 5.73557 12.0757 6.09695C10.6858 6.45833 9.42232 7.19556 8.42385 8.22774C7.5523 9.11436 6.89226 10.1864 6.493 11.3638L2.13281 7.98796C3.69349 4.89305 6.39572 2.52568 9.66901 1.38563Z" fill="#E33629"/>
<path d="M0.97565 11.3326C1.21 10.1711 1.59908 9.04631 2.13248 7.98828L6.49266 11.3725C5.92227 13.0522 5.92227 14.8733 6.49266 16.553C5.03997 17.6748 3.58657 18.8022 2.13248 19.9351C0.797184 17.2772 0.389943 14.2488 0.97565 11.3326Z" fill="#F8BD00"/>
<path d="M14.0166 11.4688H26.5355C26.9638 13.818 26.8479 16.2342 26.1969 18.5317C25.5979 20.6444 24.4345 22.554 22.8316 24.055C21.4245 22.9571 20.011 21.8676 18.6039 20.7696C19.3015 20.2991 19.897 19.6925 20.3545 18.9863C20.8121 18.2801 21.1223 17.4888 21.2667 16.6597H14.0166C14.0145 14.9308 14.0166 13.1998 14.0166 11.4688Z" fill="#587DBD"/>
<path d="M2.12891 19.9329C3.583 18.8112 5.0364 17.6838 6.48909 16.5508C7.05111 18.2002 8.12002 19.6298 9.54311 20.6354C10.4307 21.2628 11.4393 21.6983 12.5046 21.9142C13.5543 22.1094 14.6309 22.1094 15.6806 21.9142C16.7272 21.7371 17.7252 21.3431 18.6105 20.7574C20.0177 21.8554 21.4311 22.9449 22.8382 24.0428C21.2983 25.443 19.4212 26.4193 17.3906 26.876C15.1493 27.4029 12.8136 27.3776 10.5843 26.8024C8.82105 26.3316 7.17409 25.5017 5.74662 24.3646C4.23572 23.1651 3.00169 21.6534 2.12891 19.9329Z" fill="#319F43"/>
</g>
<defs>
<clipPath id="clip0_5431_15837">
<path d="M0.289062 6.68001C0.289062 6.51288 0.289062 6.42931 0.290728 6.35864C0.366209 3.15571 2.94477 0.577147 6.1477 0.501665C6.21837 0.5 6.30194 0.5 6.46906 0.5H21.0316C21.1987 0.5 21.2823 0.5 21.3529 0.501665C24.5559 0.577147 27.1344 3.15571 27.2099 6.35864C27.2116 6.42931 27.2116 6.51287 27.2116 6.68V21.2425C27.2116 21.4096 27.2116 21.4932 27.2099 21.5639C27.1344 24.7668 24.5559 27.3454 21.3529 27.4208C21.2823 27.4225 21.1987 27.4225 21.0316 27.4225H6.46907C6.30194 27.4225 6.21837 27.4225 6.1477 27.4208C2.94477 27.3454 0.366209 24.7668 0.290728 21.5639C0.289062 21.4932 0.289062 21.4096 0.289062 21.2425V6.68001Z" fill="white"/>
</clipPath>
</defs>
</svg>
