<svg width="27" height="26" viewBox="0 0 27 26" fill="none" xmlns="http://www.w3.org/2000/svg">
<path d="M17.9834 1.11688L13.5807 5.4389L12.6794 6.32141L7.32916 11.5486L2.07138 6.40061C3.40027 4.25091 5.36472 2.50853 7.69894 1.43368C8.11494 1.24134 8.54249 1.07162 8.9816 0.92454C10.3105 0.471973 11.7318 0.234375 13.2109 0.234375C14.898 0.234375 16.5158 0.551172 17.9834 1.11688Z" fill="#027AFC"/>
<path d="M12.6909 18.552L6.99405 24.1299C4.74072 22.9193 2.88027 21.0751 1.69005 18.8349C1.48205 18.4389 1.29716 18.0429 1.12383 17.6243C0.534493 16.1874 0.210938 14.6147 0.210938 12.9628C0.210938 11.0281 0.650049 9.19521 1.44738 7.54334L12.6909 18.552Z" fill="#027AFC"/>
<path d="M24.986 18.3597C23.8883 20.6565 22.1087 22.5799 19.9132 23.8697C19.5318 24.096 19.1389 24.2997 18.746 24.4807C17.0705 25.2614 15.1985 25.6913 13.2109 25.6913C11.4314 25.6913 9.74427 25.3406 8.19583 24.707L19.8323 13.3136L24.986 18.3597Z" fill="#027AFC"/>
<path d="M26.2109 12.9628C26.2109 14.4111 25.9683 15.8027 25.506 17.1038L14.482 6.31009L19.2198 1.67128C21.5078 2.83664 23.3914 4.64691 24.6278 6.86449C24.8474 7.24917 25.0438 7.64517 25.2172 8.05248C25.8527 9.56858 26.2109 11.2205 26.2109 12.9628Z" fill="#027AFC"/>
<path d="M13.5807 7.1926L18.9425 12.4311L13.5807 17.6695L8.23049 12.4311L13.5807 7.1926Z" fill="#CC1227"/>
</svg>
