<svg width="24" height="22" viewBox="0 0 24 22" fill="none" xmlns="http://www.w3.org/2000/svg">
<path d="M23.3722 4.89833C23.0781 4.08949 22.5634 3.35417 21.9751 2.69239C20.7251 1.44235 19.1074 0.707031 17.4162 0.707031C15.2838 0.707031 13.3719 1.66294 12.1954 3.35417C11.0189 1.66294 9.10711 0.707031 6.97469 0.707031C5.20993 0.707031 3.59224 1.44235 2.41573 2.69239C1.16569 3.94242 0.503906 5.70718 0.503906 7.47194C0.503906 9.16317 1.01863 10.7809 1.97454 12.4721C2.93045 14.1633 4.32755 15.8545 6.23937 17.5458C8.00413 19.0899 9.84242 20.487 11.8278 21.6635C11.9748 21.7371 12.0484 21.7371 12.1954 21.7371C12.3425 21.7371 12.4896 21.6635 12.5631 21.6635C14.5484 20.487 16.3867 19.0899 18.1515 17.5458C19.9898 15.8545 21.4604 14.1633 22.4163 12.4721C23.3722 10.7809 23.887 9.08964 23.887 7.47194C23.8134 6.58956 23.6664 5.70718 23.3722 4.89833Z" fill="#FF7834"/>
</svg>
