<svg width="51" height="52" viewBox="0 0 51 52" fill="none" xmlns="http://www.w3.org/2000/svg">
<rect x="1.5" y="1.5" width="48" height="49" rx="24" stroke="#073126" stroke-width="3"/>
<path d="M26.3174 32.8545H24.6675L23.9712 16.8701H27.0137L26.3174 32.8545ZM23.6685 37.4258C23.6685 36.7194 23.84 36.2199 24.1831 35.9272C24.5262 35.6245 24.9551 35.4731 25.4697 35.4731C25.9743 35.4731 26.3981 35.6245 26.7412 35.9272C27.0944 36.2199 27.271 36.7194 27.271 37.4258C27.271 38.1221 27.0944 38.6317 26.7412 38.9546C26.3981 39.2674 25.9743 39.4238 25.4697 39.4238C24.9551 39.4238 24.5262 39.2674 24.1831 38.9546C23.84 38.6317 23.6685 38.1221 23.6685 37.4258Z" fill="#073126"/>
</svg>
