<svg width="74" height="13" viewBox="0 0 74 13" fill="none" xmlns="http://www.w3.org/2000/svg">
<path d="M6.48569 0.917969L7.862 4.8891H12.3159L8.71262 7.3434L10.0889 11.3145L6.48569 8.86024L2.88243 11.3145L4.25875 7.3434L0.655503 4.8891H5.10937L6.48569 0.917969Z" fill="#FF7834"/>
<path d="M21.8099 0.917969L23.1862 4.8891H27.6401L24.0368 7.3434L25.4132 11.3145L21.8099 8.86024L18.2067 11.3145L19.583 7.3434L15.9797 4.8891H20.4336L21.8099 0.917969Z" fill="#FF7834"/>
<path d="M36.7549 0.917969L38.0452 4.8891H42.2207L38.8426 7.3434L40.1329 11.3145L36.7549 8.86024L33.3768 11.3145L34.6671 7.3434L31.2891 4.8891H35.4646L36.7549 0.917969Z" fill="#FF7834"/>
<path d="M51.6966 0.917969L53.0729 4.8891H57.5268L53.9236 7.3434L55.2999 11.3145L51.6966 8.86024L48.0934 11.3145L49.4697 7.3434L45.8664 4.8891H50.3203L51.6966 0.917969Z" fill="#FF7834"/>
<path d="M67.0208 0.917969L68.3972 4.8891H72.851L69.2478 7.3434L70.6241 11.3145L67.0208 8.86024L63.4176 11.3145L64.7939 7.3434L61.1907 4.8891H65.6445L67.0208 0.917969Z" fill="#FF7834"/>
</svg>
