<svg width="19" height="19" viewBox="0 0 19 19" fill="none" xmlns="http://www.w3.org/2000/svg">
<path d="M2 2H3.305C4.115 2 4.7525 2.6975 4.685 3.5L4.0625 10.97C3.9575 12.1925 4.92499 13.2425 6.15499 13.2425H14.1425C15.2225 13.2425 16.1675 12.3575 16.25 11.285L16.655 5.66C16.745 4.415 15.8 3.4025 14.5475 3.4025H4.86501" stroke="#292D32" stroke-width="1.125" stroke-miterlimit="10" stroke-linecap="round" stroke-linejoin="round"/>
<path d="M12.6875 17C13.2053 17 13.625 16.5803 13.625 16.0625C13.625 15.5447 13.2053 15.125 12.6875 15.125C12.1697 15.125 11.75 15.5447 11.75 16.0625C11.75 16.5803 12.1697 17 12.6875 17Z" stroke="#292D32" stroke-width="1.125" stroke-miterlimit="10" stroke-linecap="round" stroke-linejoin="round"/>
<path d="M6.6875 17C7.20527 17 7.625 16.5803 7.625 16.0625C7.625 15.5447 7.20527 15.125 6.6875 15.125C6.16973 15.125 5.75 15.5447 5.75 16.0625C5.75 16.5803 6.16973 17 6.6875 17Z" stroke="#292D32" stroke-width="1.125" stroke-miterlimit="10" stroke-linecap="round" stroke-linejoin="round"/>
<path d="M7.25 6.5H16.25" stroke="#292D32" stroke-width="1.125" stroke-miterlimit="10" stroke-linecap="round" stroke-linejoin="round"/>
</svg>
