<svg width="19" height="19" viewBox="0 0 19 19" fill="none" xmlns="http://www.w3.org/2000/svg">
<path d="M9.5 5.33203V7.82953" stroke="#191B1D" stroke-width="1.125" stroke-miterlimit="10" stroke-linecap="round"/>
<path d="M9.51614 2C6.75614 2 4.52114 4.235 4.52114 6.995V8.57C4.52114 9.08 4.31114 9.845 4.04864 10.28L3.09614 11.87C2.51114 12.8525 2.91614 13.9475 3.99614 14.3075C7.58114 15.5 11.4586 15.5 15.0436 14.3075C16.0561 13.97 16.4911 12.785 15.9436 11.87L14.9911 10.28C14.7286 9.845 14.5186 9.0725 14.5186 8.57V6.995C14.5111 4.25 12.2611 2 9.51614 2Z" stroke="#191B1D" stroke-width="1.125" stroke-miterlimit="10" stroke-linecap="round"/>
<path d="M11.9989 14.6172C11.9989 15.9897 10.8739 17.1147 9.50141 17.1147C8.81891 17.1147 8.18891 16.8297 7.73891 16.3797C7.28891 15.9297 7.00391 15.2997 7.00391 14.6172" stroke="#191B1D" stroke-width="1.125" stroke-miterlimit="10"/>
</svg>
