<svg width="27" height="26" viewBox="0 0 27 26" fill="none" xmlns="http://www.w3.org/2000/svg">
<path d="M25.42 13.1067H9.1114M3.35488 13.1067H1M3.35488 13.1067C3.35488 12.3435 3.65806 11.6115 4.19771 11.0719C4.73736 10.5322 5.46929 10.2291 6.23248 10.2291C6.99567 10.2291 7.7276 10.5322 8.26725 11.0719C8.80691 11.6115 9.11008 12.3435 9.11008 13.1067C9.11008 13.8698 8.80691 14.6018 8.26725 15.1414C7.7276 15.6811 6.99567 15.9843 6.23248 15.9843C5.46929 15.9843 4.73736 15.6811 4.19771 15.1414C3.65806 14.6018 3.35488 13.8698 3.35488 13.1067ZM25.42 21.8279H17.8326M17.8326 21.8279C17.8326 22.5913 17.5287 23.324 16.989 23.8638C16.4492 24.4036 15.7171 24.7068 14.9537 24.7068C14.1905 24.7068 13.4586 24.4023 12.919 23.8627C12.3793 23.323 12.0761 22.5911 12.0761 21.8279M17.8326 21.8279C17.8326 21.0645 17.5287 20.3331 16.989 19.7933C16.4492 19.2535 15.7171 18.9503 14.9537 18.9503C14.1905 18.9503 13.4586 19.2535 12.919 19.7931C12.3793 20.3328 12.0761 21.0647 12.0761 21.8279M12.0761 21.8279H1M25.42 4.38541H21.3214M15.5649 4.38541H1M15.5649 4.38541C15.5649 3.62223 15.8681 2.8903 16.4077 2.35064C16.9474 1.81099 17.6793 1.50781 18.4425 1.50781C18.8204 1.50781 19.1946 1.58224 19.5437 1.72686C19.8928 1.87147 20.21 2.08343 20.4773 2.35064C20.7445 2.61785 20.9564 2.93508 21.101 3.2842C21.2457 3.63333 21.3201 4.00752 21.3201 4.38541C21.3201 4.7633 21.2457 5.1375 21.101 5.48662C20.9564 5.83575 20.7445 6.15297 20.4773 6.42018C20.21 6.68739 19.8928 6.89936 19.5437 7.04397C19.1946 7.18858 18.8204 7.26301 18.4425 7.26301C17.6793 7.26301 16.9474 6.95984 16.4077 6.42018C15.8681 5.88053 15.5649 5.1486 15.5649 4.38541Z" stroke="black" stroke-width="1.98" stroke-miterlimit="10" stroke-linecap="round"/>
</svg>
