<svg width="168" height="82" viewBox="0 0 168 82" fill="none" xmlns="http://www.w3.org/2000/svg">
<g clip-path="url(#clip0_5131_16191)">
<path d="M31.4261 35.9342C32.0292 35.0934 32.6062 34.2263 33.2355 33.4118C34.0223 32.387 34.6516 31.047 35.6744 30.5215C36.6709 30.0223 38.1132 30.3901 39.372 30.3638C40.9979 30.3638 42.6238 30.3638 44.3546 30.3638C43.9875 32.4921 43.6203 34.5153 43.2794 36.5385C42.4927 41.0579 41.6797 45.5772 40.893 50.0966C40.2636 53.7226 43.4892 56.4815 47.1344 55.4568C49.783 54.6948 51.2778 52.8555 51.7498 50.1754C52.8775 43.8431 54.0051 37.5107 55.1065 31.1521C55.2114 30.4952 55.4474 30.3376 56.0768 30.3376C58.3059 30.3638 60.5349 30.3638 62.8689 30.3638C62.5804 32.0192 62.3182 33.5694 62.0559 35.0934C61.1905 40.0069 60.4825 44.9204 59.4073 49.7813C58.6992 52.9606 61.7413 56.718 65.8322 55.4042C68.4547 54.5634 70.0019 52.7504 70.5001 50.044C71.6016 43.8431 72.6767 37.6684 73.7782 31.4674C73.8306 31.1258 73.9355 30.7843 74.0142 30.3901C76.5317 30.3901 79.023 30.3901 81.593 30.3901C81.016 33.6483 80.4653 36.8538 79.9146 40.0594C81.0423 38.7194 82.0388 37.3005 83.2713 36.1181C87.7819 31.809 93.1316 29.6544 99.3992 30.6792C104.67 31.5462 108.211 34.7255 109.994 39.823C110.125 40.2171 110.23 40.6112 110.413 41.1893C110.649 40.7951 110.781 40.5324 110.938 40.2696C115.055 33.8322 120.798 30.285 128.534 30.4689C135.615 30.6529 141.305 36.3546 141.62 43.4489C141.62 43.738 141.646 44.027 141.673 44.316C141.751 44.3423 141.83 44.3686 141.909 44.4211C142.118 43.9744 142.433 43.554 142.538 43.0811C142.8 41.925 143.01 40.7426 143.194 39.5602C144.4 30.9682 153.893 22.455 163.229 22.8491C164.776 22.9017 166.323 22.8491 168.002 22.8491C167.687 24.6096 167.425 26.2649 167.11 27.9202C166.953 28.7611 167.005 29.8909 166.481 30.3376C166.009 30.758 164.907 30.4689 164.068 30.4952C162.914 30.5215 161.734 30.4164 160.58 30.5215C156.148 30.9156 151.664 35.146 150.904 39.5602C150.746 40.5061 150.563 41.4257 150.379 42.4768C153.29 42.4768 156.122 42.4768 159.085 42.4768C158.692 44.7364 158.325 46.8647 157.932 49.0456C155.021 49.0456 152.162 49.0456 149.225 49.0456C148.884 50.8849 148.57 52.6978 148.255 54.5108C147.783 57.2172 147.311 59.9236 146.813 62.6036C146.76 62.8401 146.472 63.2342 146.288 63.2342C143.902 63.2868 141.542 63.2605 139.024 63.2605C139.863 58.4784 140.676 53.8277 141.489 49.1507C141.384 49.0981 141.305 49.0456 141.201 48.993C141.017 49.2558 140.781 49.466 140.676 49.755C137.923 56.3238 133.15 60.7118 126.331 62.6825C122.555 63.786 118.779 63.5495 115.212 61.7628C111.856 60.0812 109.705 57.4011 108.735 53.7489C108.656 53.4073 108.551 53.0657 108.42 52.5402C105.562 57.2172 101.654 60.4753 96.567 62.3672C96.803 62.8138 96.9866 63.208 97.1964 63.5758C99.4779 67.5697 102.31 71.1168 105.981 73.9283C106.375 74.2173 106.926 74.4275 107.424 74.4275C114.819 74.5326 122.031 73.6393 128.901 70.7227C131.786 69.514 134.461 67.9112 136.926 65.9669C136.978 66.0194 137.031 66.072 137.083 66.1245C135.825 67.4908 134.618 68.9097 133.281 70.2235C127.721 75.6625 121.244 79.4198 113.508 80.7861C108.368 81.6795 103.307 81.2591 98.324 79.814C91.5582 77.8696 85.6315 74.3224 79.9933 69.9344C83.1664 70.7753 86.1822 71.5635 89.434 72.4043C89.2504 72.0102 89.1718 71.8525 89.0669 71.6949C87.205 69.1987 86.3396 66.3873 86.3658 63.2605C86.3658 62.9978 86.1298 62.5774 85.92 62.4723C81.4356 60.7906 78.6559 57.6376 77.5807 52.9606C77.5544 52.8818 77.5282 52.803 77.4495 52.619C77.2398 53.0132 77.0562 53.3547 76.8726 53.67C74.1715 58.5047 70.3428 61.9205 64.8095 63.0503C62.9476 63.4444 61.0856 63.2868 59.25 62.735C57.2569 62.1307 55.7359 60.922 54.7394 58.9514C52.7988 61.1059 50.5173 62.3934 47.79 62.8927C43.5941 63.6546 39.608 63.3919 36.4873 60.0024C34.1534 57.5062 33.1044 54.432 33.2355 51.0688C33.3142 48.7303 33.8649 46.4181 34.2321 44.1058C34.6779 41.3732 35.1761 38.6406 35.7006 35.7766C34.2321 35.7766 32.8684 35.7766 31.4785 35.7766C31.3998 35.9079 31.4261 35.9342 31.4261 35.9342ZM126.148 38.1151C121.165 38.4041 116.943 42.1615 116.13 47.1012C115.317 51.9359 118.569 55.7458 123.447 55.6932C127.826 55.6407 132.914 51.3315 133.7 46.9961C134.566 42.4242 130.658 37.8786 126.148 38.1151ZM102.887 45.6823C102.861 41.8462 99.7926 38.4566 95.9901 38.1413C90.5092 37.6684 85.0546 42.7658 85.0284 48.415C85.0021 52.4351 87.5459 55.2466 91.5319 55.667C96.1212 56.1399 101.733 51.8308 102.677 47.1012C102.782 46.6283 102.808 46.1553 102.887 45.6823ZM95.4394 62.3409C94.7051 60.344 93.7872 58.7412 91.8991 57.9004C90.8763 57.4274 89.8536 57.6113 88.962 58.3208C87.6245 59.3981 86.8903 62.1044 87.4934 63.8911C90.1158 63.3919 92.712 62.8927 95.4394 62.3409Z" fill="#F1F6FA"/>
<path d="M31.4008 35.9144C31.4008 35.967 31.3745 36.0458 31.427 36.0983C33.7872 39.7243 34.1805 43.6656 33.3938 47.8697C32.4497 52.8094 31.6368 57.7755 30.7452 62.7415C30.7189 62.8991 30.6665 63.0831 30.6403 63.2933C28.0965 63.2933 25.579 63.2933 22.9828 63.2933C23.1139 62.505 23.2188 61.7956 23.3762 60.9022C22.9041 61.1387 22.537 61.3226 22.1698 61.4803C17.8428 63.5035 13.3847 64.1078 8.84795 62.3474C2.9475 60.0614 -0.382973 54.1232 0.561098 47.7909C1.87231 38.9361 8.95284 31.8155 17.7904 30.6331C23.0615 29.9237 27.6507 31.3688 31.0598 35.6779C31.1385 35.783 31.2959 35.8619 31.4008 35.9407C31.427 35.9407 31.4008 35.9144 31.4008 35.9144ZM15.5876 55.6209C20.439 55.6209 25.1332 51.6008 25.8412 46.7924C26.6017 41.7738 23.1401 37.8062 18.2887 38.1215C13.5159 38.4368 9.39866 42.0103 8.42836 46.6873C7.43184 51.5482 10.6836 55.6209 15.5876 55.6209Z" fill="#F1F6FA"/>
<path d="M95.1273 20.0653C92.872 21.0113 90.7216 21.9046 88.4663 22.8505C88.3352 22.5878 88.1779 22.2725 88.0205 21.9834C86.1848 18.5414 83.7198 15.7562 79.9435 14.4162C79.2616 14.1797 78.5011 13.9958 77.7931 13.8907C77.0064 13.7856 76.6392 13.3389 76.7441 12.6294C76.849 11.9988 77.0064 11.3419 77.3473 10.7902C78.6847 8.58304 80.704 7.1379 82.8806 5.85041C83.0379 5.74531 83.4051 5.82414 83.5886 5.92924C88.7024 9.5815 92.7933 14.0746 95.1273 20.0653Z" fill="#F1F6FA"/>
<path d="M89.2773 2.88284C91.7686 2.35734 94.0764 1.83183 96.3841 1.35888C97.2757 1.17495 98.1936 1.06985 99.1114 1.0173C99.3474 0.991022 99.767 1.28005 99.8457 1.49025C101.445 6.77159 102.704 12.1317 103.176 17.6496C103.202 17.8598 103.176 18.07 103.176 18.2802C101.603 18.5692 100.055 18.8845 98.4296 19.1735C95.9907 13.5243 93.447 7.87515 89.2773 2.88284Z" fill="#F1F6FA"/>
<path d="M112.198 0.911891C112.539 6.61363 112.775 12.184 111.936 17.8069C110.336 17.8069 108.789 17.8069 107.137 17.8069C107.189 12.1052 107.268 6.37715 106.219 0.570312C108.238 0.701689 110.152 0.80679 112.198 0.911891Z" fill="#F1F6FA"/>
<path d="M123.841 3.54063C121.586 8.40155 120.51 13.3939 119.54 18.4387C117.993 18.2548 116.498 18.0971 114.898 17.9132C115.738 12.5531 116.577 7.24544 117.442 1.75391C119.566 2.35824 121.638 2.93629 123.841 3.54063Z" fill="#F1F6FA"/>
<path d="M8.74164 69.6279C10.3675 70.4687 10.7085 72.2817 9.18745 73.832C8.63674 74.3837 7.82379 74.9618 7.08952 75.0669C4.91291 75.3297 2.7363 75.3297 0.402344 75.4348C1.05795 71.7562 1.66111 68.2879 2.26426 64.8458C4.3622 64.8458 6.46013 64.6882 8.50562 64.8984C10.2102 65.056 10.8134 66.6063 9.89551 68.104C9.55459 68.6557 9.10878 69.1287 8.74164 69.6279ZM3.47058 73.5429C4.54577 73.4116 5.48984 73.3853 6.38146 73.1751C7.06329 73.0174 7.37798 72.3868 7.27309 71.7037C7.22064 71.3884 6.90595 70.9417 6.6437 70.8891C5.85698 70.7578 5.04403 70.7578 4.2573 70.7578C4.12618 70.7578 3.94261 70.9417 3.91639 71.0731C3.73282 71.8088 3.62792 72.5708 3.47058 73.5429ZM4.30975 68.9185C5.09648 68.8659 5.77831 68.8922 6.40769 68.7608C7.11574 68.6295 7.45666 68.0514 7.37798 67.3682C7.32553 66.7376 6.77483 66.6325 6.25034 66.6063C4.62444 66.5012 4.62444 66.5012 4.38842 68.104C4.3622 68.3404 4.3622 68.5506 4.30975 68.9185Z" fill="#F1F6FA"/>
<path d="M125.968 19.7539C124.578 19.4386 123.24 19.1496 121.641 18.7817C123.555 14.1573 125.443 9.63794 127.384 4.96094C128.695 5.61782 129.849 6.19588 130.95 6.72138C129.272 11.1356 127.62 15.4185 125.968 19.7539Z" fill="#F1F6FA"/>
<path d="M47.7644 67.3057C46.7678 68.3568 45.9024 69.3289 44.9584 70.196C44.4863 70.6427 44.4863 70.958 44.7748 71.4835C45.4304 72.6659 46.0073 73.9008 46.6892 75.2934C45.6926 75.2934 44.8797 75.3197 44.0667 75.2672C43.857 75.2409 43.5947 74.9519 43.4898 74.7154C43.0178 73.7957 42.5982 72.8498 42.1524 71.9039C41.1559 72.4032 41.051 73.2702 40.9985 74.1373C40.9198 75.057 40.5789 75.4774 39.6086 75.3197C39.189 75.2409 38.7432 75.3197 38.2188 75.3197C38.8744 71.5623 39.53 67.9101 40.1593 64.2578C40.9985 64.2578 41.759 64.2578 42.6769 64.2578C42.3097 66.3861 41.9688 68.4619 41.6017 70.5376C41.6541 70.5639 41.7066 70.5902 41.759 70.6427C42.4933 69.8807 43.28 69.1713 43.9356 68.3305C44.5912 67.4897 45.378 67.1744 46.4007 67.3057C46.8203 67.332 47.2399 67.3057 47.7644 67.3057Z" fill="#F1F6FA"/>
<path d="M67.1156 71.7512C67.0632 72.9862 67.4828 73.5117 68.5317 73.6956C69.9479 73.9583 71.2328 73.5117 72.4392 72.8022C72.649 74.5364 72.3867 75.0882 70.7608 75.2721C69.3709 75.4298 67.9286 75.4035 66.5387 75.167C65.2013 74.9305 64.4932 73.7744 64.467 72.3818C64.3621 68.677 68.1122 66.0232 71.5738 67.337C72.9899 67.8625 73.8028 70.3586 72.9112 71.5147C72.7801 71.6724 72.4392 71.6987 72.1769 71.6987C70.8133 71.725 69.4496 71.6987 68.0859 71.6987C67.7975 71.7512 67.4566 71.7512 67.1156 71.7512ZM67.3779 70.2273C68.5055 70.2273 69.5807 70.2273 70.6559 70.2273C70.787 69.3339 70.4986 68.8347 69.6594 68.677C68.6104 68.4668 67.745 69.0449 67.3779 70.2273Z" fill="#F1F6FA"/>
<path d="M31.1661 71.7493C31.0087 72.8792 31.4545 73.6149 32.4773 73.6412C33.5262 73.6674 34.5752 73.4047 35.598 73.2208C35.9126 73.1682 36.1749 72.958 36.4896 72.8003C36.6469 74.6396 36.4634 75.0337 34.7588 75.2702C33.4476 75.4542 32.0839 75.4542 30.7989 75.2177C29.173 74.9286 28.4387 73.7463 28.5174 72.0646C28.7534 67.5716 32.8706 66.4417 35.5455 67.3088C36.778 67.7029 37.355 68.8328 37.1714 70.3305C37.0141 71.7231 37.0141 71.7231 35.6504 71.7231C34.1556 71.7493 32.6346 71.7493 31.1661 71.7493ZM34.6014 70.2779C34.7326 69.1744 34.4441 68.754 33.5525 68.6489C32.4511 68.5438 31.5594 69.2006 31.4808 70.2779C32.5035 70.2779 33.5262 70.2779 34.6014 70.2779Z" fill="#F1F6FA"/>
<path d="M50.7274 71.7516C50.5963 72.9077 51.0159 73.6434 52.0387 73.6434C53.1138 73.6697 54.189 73.3806 55.238 73.1967C55.5003 73.1441 55.7625 72.9602 56.051 72.8288C56.1821 74.6156 55.9723 75.0885 54.3464 75.2987C53.009 75.4564 51.6191 75.4564 50.3079 75.2199C48.7869 74.9309 48.0526 73.7485 48.0788 72.1982C48.1575 68.5722 51.724 66.1024 55.1331 67.3373C56.6017 67.8628 57.3884 70.1225 56.5492 71.4888C56.4443 71.6465 56.1034 71.7253 55.8674 71.7253C54.4775 71.7516 53.0614 71.7253 51.6715 71.7253C51.3568 71.7516 51.0421 71.7516 50.7274 71.7516ZM51.0159 70.2276C52.0911 70.2276 53.1663 70.2276 54.2153 70.2276C54.2939 69.1766 54.0317 68.7562 53.1925 68.6511C52.1173 68.4934 51.2257 69.124 51.0159 70.2276Z" fill="#F1F6FA"/>
<path d="M14.1213 71.7764C13.9902 72.8799 14.436 73.6157 15.4588 73.6419C16.5077 73.6682 17.5567 73.4055 18.5794 73.2215C18.8941 73.169 19.1564 72.9588 19.6022 72.7486C19.4973 73.4055 19.4448 73.9572 19.2875 74.509C19.235 74.7192 18.999 74.9557 18.7892 75.0345C17.0847 75.6126 15.3539 75.744 13.6231 75.2185C12.1283 74.7718 11.3678 73.5631 11.4989 72.0129C11.8136 68.4657 14.8556 66.3374 18.291 67.257C19.9431 67.7037 20.8872 70.0685 19.9693 71.4874C19.8644 71.645 19.5235 71.7238 19.2875 71.7238C17.8976 71.7501 16.4815 71.7238 15.0916 71.7501C14.7507 71.7501 14.436 71.7764 14.1213 71.7764ZM14.3836 70.2261C15.5112 70.2261 16.5602 70.2261 17.6091 70.2261C17.6878 69.1751 17.4518 68.8073 16.6913 68.6496C15.6161 68.4657 14.7245 69.0438 14.3836 70.2261Z" fill="#F1F6FA"/>
<path d="M130.529 21.1686C129.663 20.8796 128.929 20.6431 128.09 20.3541C129.611 16.2551 131.683 12.4715 133.912 8.50391C135.065 9.58119 136.141 10.5534 137.19 11.5781C137.295 11.6832 137.242 12.1036 137.137 12.2875C136.901 12.6554 136.613 13.0233 136.298 13.3386C134.095 15.7033 131.866 18.0681 130.529 21.1686Z" fill="#F1F6FA"/>
<path d="M61.8974 67.279C62.7103 67.279 63.4184 67.279 64.2313 67.279C64.1526 67.8045 64.1526 68.2775 63.9691 68.6453C63.8904 68.8556 63.4708 68.9869 63.2086 68.9869C61.5564 69.0658 61.5564 69.0395 61.2418 70.6423C61.1369 71.1941 61.032 71.7458 60.9533 72.3239C60.7959 73.5063 61.1631 73.8741 62.3169 73.6902C62.553 73.6639 62.7628 73.6114 62.9988 73.5588C63.025 75.2667 62.8939 75.3981 61.2155 75.4506C58.4882 75.5032 57.9375 74.8463 58.4095 72.14C58.5931 71.1415 58.7505 70.143 58.934 69.1183C58.5931 69.0395 58.3046 68.9869 57.9375 68.9344C58.1735 68.2512 57.7015 67.2265 59.0389 67.2528C59.1438 67.2528 59.3012 66.9637 59.3274 66.7798C59.8256 64.8354 59.9043 64.7829 62.1334 65.1507C62.0809 65.4923 62.0285 65.8339 61.976 66.1755C62.0285 66.4908 61.976 66.8061 61.8974 67.279Z" fill="#F1F6FA"/>
<path d="M25.1066 67.3085C25.0804 67.7289 25.0542 67.9916 25.028 68.2281C25.8671 67.9128 26.6801 67.5975 27.5193 67.3085C27.729 67.2296 27.9913 67.3085 28.3584 67.3085C28.2273 68.123 28.0962 68.8587 27.9388 69.7258C27.1259 69.7258 26.3392 69.6995 25.5524 69.7258C24.9755 69.7521 24.6084 69.9885 24.5297 70.698C24.3723 71.9855 24.0577 73.273 23.8741 74.5605C23.7954 75.1648 23.5332 75.375 22.9562 75.3224C22.4055 75.2699 21.8548 75.3224 21.1992 75.3224C21.645 72.6949 22.0908 70.225 22.5367 67.7552C22.5629 67.5975 22.8251 67.361 23.0087 67.361C23.6643 67.2822 24.3461 67.3085 25.1066 67.3085Z" fill="#F1F6FA"/>
<path d="M102.496 63.9711C105.643 63.6295 108.685 63.3142 111.884 62.9727C109.078 65.8892 104.594 66.3622 102.496 63.9711Z" fill="#F1F6FA"/>
<path d="M92.6602 23.9273C93.4207 23.8222 94.1812 23.612 94.9417 23.6645C97.8788 23.8747 100.449 25.2411 102.94 26.765C99.5309 25.9242 96.0955 25.0834 92.6864 24.2689C92.6864 24.1375 92.6602 24.0324 92.6602 23.9273Z" fill="#F1F6FA"/>
<path d="M130.502 24.0835C127.355 24.8718 124.286 25.6338 121.113 26.3958C123.578 24.031 129.007 22.6384 130.502 24.0835Z" fill="#F1F6FA"/>
<path d="M128.169 46.6596C128.143 47.658 127.304 48.4463 126.307 48.4463C125.285 48.42 124.498 47.6055 124.524 46.607C124.55 45.6086 125.363 44.8203 126.386 44.8203C127.383 44.8466 128.195 45.6874 128.169 46.6596Z" fill="#F1F6FA"/>
<path d="M97.273 46.8677C97.273 47.8399 96.4338 48.707 95.4635 48.707C94.467 48.707 93.6278 47.8924 93.6016 46.894C93.6016 45.9218 94.4407 45.0547 95.411 45.0547C96.4076 45.0547 97.273 45.8955 97.273 46.8677Z" fill="#F1F6FA"/>
</g>
<defs>
<clipPath id="clip0_5131_16191">
<rect width="167.546" height="80.7965" fill="white" transform="translate(0.40625 0.578125)"/>
</clipPath>
</defs>
</svg>
