<svg width="52" height="82" viewBox="0 0 52 82" fill="none" xmlns="http://www.w3.org/2000/svg">
<g clip-path="url(#clip0_5131_16132)">
<path fill-rule="evenodd" clip-rule="evenodd" d="M12.616 54.7732L13.8971 55.4115C13.461 56.5551 12.8886 57.0604 11.9072 57.0604C10.5443 57.0604 9.69922 56.1562 9.69922 54.1349C9.69922 52.1403 10.4352 51.1562 11.9345 51.1562C13.0249 51.1562 13.5428 51.7945 13.8699 52.8052L12.5069 53.4169C12.3434 52.752 12.2343 52.5392 11.9072 52.5392C11.4983 52.5392 11.362 52.9381 11.362 54.1349C11.362 55.2785 11.5256 55.6775 11.9617 55.6775C12.2071 55.6775 12.3706 55.4913 12.616 54.7732Z" fill="#F1F6FA"/>
<path fill-rule="evenodd" clip-rule="evenodd" d="M17.4169 59.2656C17.6077 59.2656 17.7167 59.3188 17.8258 59.372L17.635 60.3826C17.4987 60.2497 17.3896 60.1699 17.1988 60.1699C17.008 60.1699 16.8717 60.2497 16.8172 60.489V62.6432H15.8086V59.3454H16.8444V59.5582C17.008 59.3986 17.1716 59.2656 17.4169 59.2656Z" fill="#F1F6FA"/>
<path fill-rule="evenodd" clip-rule="evenodd" d="M18.9436 56.9503H17.2263V53.227C17.2263 52.8015 17.09 52.5887 16.8174 52.5887C16.5993 52.5887 16.4357 52.6685 16.2995 52.8015V56.9503H14.6094V49.7164L16.2995 49.0781V51.6047C16.5993 51.3387 16.9264 51.1526 17.4989 51.1526C18.4529 51.1526 18.9709 51.7111 18.9709 52.9344V56.9503H18.9436Z" fill="#F1F6FA"/>
<path fill-rule="evenodd" clip-rule="evenodd" d="M20.6328 61.2869V61.0475C20.6328 59.8773 20.1966 59.2656 19.3788 59.2656C18.5338 59.2656 18.0977 59.8773 18.0977 61.0209C18.0977 62.0847 18.5338 62.7496 19.3788 62.7496C19.9785 62.7496 20.2784 62.4837 20.5783 62.0847L19.9785 61.606C19.7605 61.8986 19.6242 61.9783 19.4334 61.9783H19.3788C19.1608 61.9517 19.0517 61.7922 19.0517 61.2869H20.6328ZM19.0245 60.6486C19.0517 60.1699 19.1335 60.0103 19.3516 60.0103H19.3788C19.5969 60.0103 19.706 60.1965 19.7332 60.6486H19.0245Z" fill="#F1F6FA"/>
<path fill-rule="evenodd" clip-rule="evenodd" d="M19.7305 49.9018C19.7305 49.3965 20.1394 49.0508 20.6845 49.0508C21.257 49.0508 21.6386 49.3965 21.6386 49.9018C21.6386 50.4071 21.257 50.7529 20.6845 50.7529C20.1394 50.7529 19.7305 50.4071 19.7305 49.9018Z" fill="#F1F6FA"/>
<path d="M21.5299 51.2852H19.8398V56.95H21.5299V51.2852Z" fill="#F1F6FA"/>
<path fill-rule="evenodd" clip-rule="evenodd" d="M22.706 59.2656C22.5697 59.2656 22.4606 59.2922 22.3516 59.3454C22.2698 59.372 22.1608 59.4518 22.079 59.5316V59.3454H21.0977V63.9198L22.079 63.5475V62.5103C22.188 62.59 22.2698 62.6432 22.3516 62.6964C22.4606 62.723 22.5697 62.7762 22.6787 62.7762C23.2784 62.7762 23.6055 62.2177 23.6055 61.0209C23.6055 59.8241 23.2784 59.2656 22.706 59.2656ZM22.3516 61.9252C22.2153 61.9252 22.1608 61.872 22.0517 61.8188V60.2231C22.1608 60.1433 22.2153 60.0901 22.3243 60.0901H22.3516C22.5424 60.0901 22.6242 60.2231 22.6242 61.0209C22.6242 61.8188 22.5424 61.9252 22.3516 61.9252Z" fill="#F1F6FA"/>
<path fill-rule="evenodd" clip-rule="evenodd" d="M24.5322 57.0838C23.1693 57.0838 22.3242 56.1796 22.3242 54.1584C22.3242 52.1637 23.0875 51.1797 24.5867 51.1797C25.6771 51.1797 26.195 51.818 26.5221 52.8286L25.1592 53.4403C24.9956 52.7754 24.8866 52.5626 24.5595 52.5626C24.1506 52.5626 24.0143 52.9616 24.0143 54.1584C24.0143 55.302 24.1779 55.7009 24.5867 55.7009C24.8593 55.7009 25.0501 55.5147 25.2682 54.7966L26.5221 55.4349C26.1133 56.5785 25.5408 57.0838 24.5322 57.0838Z" fill="#F1F6FA"/>
<path fill-rule="evenodd" clip-rule="evenodd" d="M25.5928 59.3438H26.6014V62.6948H25.5928V62.5086C25.4293 62.6682 25.2112 62.7745 24.8841 62.7745C24.3117 62.7745 24.0391 62.4554 24.0391 61.7107V59.3438H25.0477V61.5512C25.0477 61.8171 25.1294 61.9235 25.293 61.9235C25.4293 61.9235 25.5111 61.8969 25.5928 61.8171V59.3438Z" fill="#F1F6FA"/>
<path fill-rule="evenodd" clip-rule="evenodd" d="M28.784 59.2703C28.6477 59.2703 28.5387 59.2969 28.4296 59.35C28.3478 59.3766 28.2388 59.4564 28.157 59.5362V58.0469L27.1484 58.4458V62.7011H28.157V62.5149C28.2388 62.5947 28.3478 62.6479 28.4296 62.7011C28.5387 62.7276 28.6477 62.7808 28.7567 62.7808C29.3564 62.7808 29.7108 62.2223 29.7108 61.0255C29.7108 59.8288 29.3564 59.2703 28.784 59.2703ZM28.4296 61.9298C28.2933 61.9298 28.2115 61.8766 28.1298 61.8234V60.2277C28.2115 60.1479 28.2933 60.0947 28.4024 60.0947H28.4296C28.5932 60.0947 28.7022 60.2277 28.7022 61.0255C28.7022 61.8234 28.5932 61.9298 28.4296 61.9298Z" fill="#F1F6FA"/>
<path fill-rule="evenodd" clip-rule="evenodd" d="M20.1133 38.4961C22.0487 39.1875 23.7115 37.512 25.5379 37.512C27.3643 37.4854 29.2997 39.1609 30.9897 38.4695C28.7545 40.0918 26.8191 42.2194 25.5379 45.2247C24.2567 42.2194 22.3485 40.0918 20.1133 38.4961Z" fill="#F1F6FA"/>
<path fill-rule="evenodd" clip-rule="evenodd" d="M30.1719 58.4458L31.1805 58.0469V62.6745H30.1719V58.4458Z" fill="#F1F6FA"/>
<path fill-rule="evenodd" clip-rule="evenodd" d="M31.7243 56.9503H29.9251L29.2437 54.5302L28.8893 55.0887V56.9503H27.1992V49.7164L28.8893 49.0781V51.6845C28.8893 52.1366 28.862 52.7749 28.8348 53.1472C28.9983 52.8015 29.2982 52.243 29.598 51.6845L29.8434 51.2589H31.6697L30.4703 53.0408L31.7243 56.9503Z" fill="#F1F6FA"/>
<path fill-rule="evenodd" clip-rule="evenodd" d="M32.7894 58.5209C32.7894 58.8401 32.5713 59.0528 32.217 59.0528C31.8899 59.0528 31.6445 58.8401 31.6445 58.5209C31.6445 58.2284 31.8899 58.0156 32.217 58.0156C32.5713 58.0156 32.7894 58.2284 32.7894 58.5209Z" fill="#F1F6FA"/>
<path d="M32.7352 59.3438H31.7266V62.6948H32.7352V59.3438Z" fill="#F1F6FA"/>
<path fill-rule="evenodd" clip-rule="evenodd" d="M34.9438 61.4252L35.6798 61.7976C35.4345 62.4625 35.1074 62.7816 34.5077 62.7816C33.7171 62.7816 33.1992 62.2497 33.1992 61.0529C33.1992 59.8827 33.6626 59.3242 34.5349 59.3242C35.1891 59.3242 35.489 59.7231 35.6798 60.2817L34.8893 60.654C34.7803 60.2816 34.7257 60.1487 34.5349 60.1487C34.3168 60.1487 34.2078 60.388 34.2078 61.0795C34.2078 61.771 34.3168 61.9837 34.5622 61.9837C34.6985 61.9306 34.7803 61.8242 34.9438 61.4252Z" fill="#F1F6FA"/>
<path fill-rule="evenodd" clip-rule="evenodd" d="M33.7724 54.6105C33.7997 55.4349 34.045 55.7275 34.3721 55.7807H34.4539C34.8083 55.7807 35.0264 55.6211 35.408 55.1424L36.4166 55.9137C35.9259 56.6051 35.3807 57.0838 34.3994 57.0838H34.3721C32.9274 57.0838 32.1914 55.9668 32.1914 54.1584C32.1914 52.2169 32.9819 51.1797 34.3721 51.1797V52.4297H34.3449C34.0178 52.4297 33.827 52.6956 33.7724 53.5201H34.3449H34.9446C34.9173 52.7488 34.7538 52.4297 34.3449 52.4297V51.1797H34.3721C35.7624 51.1797 36.4984 52.1903 36.4984 54.2116V54.6105H33.7724Z" fill="#F1F6FA"/>
<path fill-rule="evenodd" clip-rule="evenodd" d="M41.5959 52.9381V56.954H39.9059V53.2307C39.9059 52.8052 39.7423 52.5924 39.4697 52.5924C39.2516 52.5924 39.0881 52.6988 38.9518 52.8052V56.954H37.2617V51.2892H38.9518V51.6084C39.2516 51.3424 39.606 51.1562 40.1512 51.1562C41.1053 51.1562 41.5959 51.7148 41.5959 52.9381Z" fill="#F1F6FA"/>
<path fill-rule="evenodd" clip-rule="evenodd" d="M49.5 50.2239L39.7685 35.7561C53.7797 36.8465 53.2345 20.9957 44.1027 21.0223C48.4369 13.8947 40.2591 5.62361 34.0168 10.464C33.9895 3.25663 29.6553 0.543911 25.839 0.570506C21.1776 0.597101 17.1432 4.69278 17.4704 10.5171C11.2007 5.75659 3.73168 13.2565 7.19361 21.0223C-1.69292 21.3946 -1.99277 36.3146 11.1735 35.8093L3.07745 49.0005C-1.33855 55.676 0.0516718 60.4099 6.04872 63.8673C20.0872 70.2768 21.6956 69.7715 26.057 81.3404C30.6366 65.8088 39.7412 68.8406 47.5101 62.7237C52.5531 59.1334 52.3623 54.8515 49.5 50.2239ZM8.52931 33.3359C5.63983 32.937 1.22382 29.719 4.2496 24.9052C5.83064 22.4052 9.15627 23.2563 10.2194 25.2775C11.8549 28.3892 14.5536 30.8094 15.6167 30.2243C16.5981 29.6924 16.3255 27.1126 14.6899 25.2243C13.2452 23.602 10.8464 22.4584 9.6742 20.4638C7.76605 17.1394 8.74739 13.5756 11.337 11.9799C14.9625 9.71929 18.3154 13.6288 18.3154 18.1234C18.3154 23.9744 20.3326 26.0754 21.532 25.9424C22.895 25.8094 23.3856 23.3095 23.0858 20.3042C22.7314 17.1128 19.8692 13.5756 19.8419 10.2246C19.8419 6.39488 22.0499 2.93749 25.7572 2.93749C29.519 2.93749 31.727 6.39488 31.6997 10.2246C31.6724 13.6022 28.783 17.1394 28.4559 20.3042C28.1287 23.3095 28.6739 25.7828 30.0096 25.9424C31.1818 26.0754 33.199 23.9744 33.199 18.1234C33.199 13.6288 36.5246 9.71929 40.1773 11.9799C42.767 13.5756 43.7483 17.1394 41.8129 20.4638C40.668 22.4318 38.2692 23.602 36.8245 25.2243C35.1889 27.1126 34.889 29.6924 35.8704 30.2243C36.9335 30.8094 39.6322 28.3892 41.2677 25.2775C42.3308 23.2563 45.6565 22.4052 47.2375 24.9052C50.2633 29.6924 45.8473 32.937 42.9578 33.3359C38.5418 33.9476 33.1172 32.4051 25.7027 32.4051C18.3427 32.4051 12.9181 33.9742 8.52931 33.3359ZM48.5459 58.3621C48.0008 59.2397 47.292 59.9578 46.4742 60.6227C45.6837 61.2876 44.7842 61.8461 43.8028 62.3514C42.8215 62.8567 41.7584 63.362 40.6953 63.8141C39.6049 64.2662 38.4873 64.7184 37.3424 65.1971C36.2247 65.7024 35.0799 66.2077 33.9895 66.7928C32.8991 67.3779 31.8087 68.0428 30.8274 68.814C29.8188 69.5853 28.9193 70.4895 28.0742 71.5268C27.2564 72.564 26.5204 73.7342 25.948 75.1437C25.3483 73.7608 24.6396 72.564 23.8218 71.5268C23.0313 70.4629 22.1044 69.5853 21.1231 68.814C20.1418 68.0428 19.0787 67.3779 17.9883 66.7928C16.8979 66.2077 15.753 65.6758 14.6354 65.1971C13.5178 64.7184 12.3729 64.2662 11.2825 63.7875C10.1921 63.3354 9.12902 62.8567 8.14768 62.3514C7.16635 61.8195 6.26679 61.2876 5.44901 60.6227C4.65849 59.9844 3.94975 59.2397 3.40456 58.3621C2.61405 57.1121 2.75034 55.3302 3.43182 53.309C4.14057 51.3143 13.9539 35.8093 14.4991 35.171C14.6354 35.0114 20.1963 34.0008 25.7299 34.0008C31.2636 34.0008 36.2793 34.905 36.4428 35.0646C37.0153 35.7295 47.6191 51.3143 48.3824 53.3356C49.1457 55.3302 49.3637 57.1121 48.5459 58.3621Z" fill="#F1F6FA"/>
<path d="M12.616 54.7732L13.8971 55.4115C13.461 56.5551 12.8886 57.0604 11.9072 57.0604C10.5443 57.0604 9.69922 56.1562 9.69922 54.1349C9.69922 52.1403 10.4352 51.1562 11.9345 51.1562C13.0249 51.1562 13.5428 51.7945 13.8699 52.8052L12.5069 53.4169C12.3434 52.752 12.2343 52.5392 11.9072 52.5392C11.4983 52.5392 11.362 52.9381 11.362 54.1349C11.362 55.2785 11.5256 55.6775 11.9617 55.6775C12.2071 55.6775 12.3706 55.4913 12.616 54.7732Z" fill="#F1F6FA"/>
<path d="M17.4169 59.2656C17.6077 59.2656 17.7167 59.3188 17.8258 59.372L17.635 60.3826C17.4987 60.2497 17.3896 60.1699 17.1988 60.1699C17.008 60.1699 16.8717 60.2497 16.8172 60.489V62.6432H15.8086V59.3454H16.8444V59.5582C17.008 59.3986 17.1716 59.2656 17.4169 59.2656Z" fill="#F1F6FA"/>
<path d="M16.2721 56.9503H14.582V49.7164L16.2721 49.0781V51.6047C16.572 51.3387 16.8991 51.1526 17.4715 51.1526C18.4256 51.1526 18.9435 51.7111 18.9435 52.9344V56.9503H17.2262V53.227C17.2262 52.8015 17.0899 52.5887 16.8173 52.5887C16.5992 52.5887 16.4357 52.6685 16.2994 52.8015V56.9503H16.2721Z" fill="#F1F6FA"/>
<path d="M20.6328 61.2869V61.0475C20.6328 59.8773 20.1966 59.2656 19.3788 59.2656C18.5338 59.2656 18.0977 59.8773 18.0977 61.0209C18.0977 62.0847 18.5338 62.7496 19.3788 62.7496C19.9785 62.7496 20.2784 62.4837 20.5783 62.0847L19.9785 61.606C19.7605 61.8986 19.6242 61.9783 19.4334 61.9783H19.3788C19.1608 61.9517 19.0517 61.7922 19.0517 61.2869H20.6328ZM19.0245 60.6486C19.0517 60.1699 19.1335 60.0103 19.3516 60.0103H19.3788C19.5969 60.0103 19.706 60.1965 19.7332 60.6486H19.0245Z" fill="#F1F6FA"/>
<path d="M19.7305 49.9018C19.7305 49.3965 20.1394 49.0508 20.6845 49.0508C21.257 49.0508 21.6386 49.3965 21.6386 49.9018C21.6386 50.4071 21.257 50.7529 20.6845 50.7529C20.1394 50.7529 19.7305 50.4071 19.7305 49.9018Z" fill="#F1F6FA"/>
<path d="M21.5299 51.2852H19.8398V56.95H21.5299V51.2852Z" fill="#F1F6FA"/>
<path d="M22.706 59.2656C22.5697 59.2656 22.4606 59.2922 22.3516 59.3454C22.2698 59.372 22.1608 59.4518 22.079 59.5316V59.3454H21.0977V63.9198L22.079 63.5475V62.5103C22.188 62.59 22.2698 62.6432 22.3516 62.6964C22.4606 62.723 22.5697 62.7762 22.6787 62.7762C23.2784 62.7762 23.6055 62.2177 23.6055 61.0209C23.6055 59.8241 23.2784 59.2656 22.706 59.2656ZM22.3516 61.9252C22.2153 61.9252 22.1608 61.872 22.0517 61.8188V60.2231C22.1608 60.1433 22.2153 60.0901 22.3243 60.0901H22.3516C22.5424 60.0901 22.6242 60.2231 22.6242 61.0209C22.6242 61.8188 22.5424 61.9252 22.3516 61.9252Z" fill="#F1F6FA"/>
<path d="M24.0143 54.1349C24.0143 55.2785 24.1779 55.6775 24.5867 55.6775C24.8593 55.6775 25.0501 55.4913 25.2682 54.7732L26.5221 55.4115C26.1133 56.5551 25.5408 57.0604 24.5322 57.0604C23.1693 57.0604 22.3242 56.1562 22.3242 54.1349C22.3242 52.1403 23.0875 51.1562 24.5867 51.1562C25.6771 51.1562 26.195 51.7945 26.5221 52.8052L25.1592 53.4169C24.9956 52.752 24.8866 52.5392 24.5595 52.5392C24.1506 52.5658 24.0143 52.9647 24.0143 54.1349Z" fill="#F1F6FA"/>
<path d="M25.5928 59.3438H26.6014V62.6948H25.5928V62.5086C25.4293 62.6682 25.2112 62.7745 24.8841 62.7745C24.3117 62.7745 24.0391 62.4554 24.0391 61.7107V59.3438H25.0477V61.5512C25.0477 61.8171 25.1294 61.9235 25.293 61.9235C25.4293 61.9235 25.5111 61.8969 25.5928 61.8171V59.3438Z" fill="#F1F6FA"/>
<path d="M28.784 59.2703C28.6477 59.2703 28.5387 59.2969 28.4296 59.35C28.3478 59.3766 28.2388 59.4564 28.157 59.5362V58.0469L27.1484 58.4458V62.7011H28.157V62.5149C28.2388 62.5947 28.3478 62.6479 28.4296 62.7011C28.5387 62.7276 28.6477 62.7808 28.7567 62.7808C29.3564 62.7808 29.7108 62.2223 29.7108 61.0255C29.7108 59.8288 29.3564 59.2703 28.784 59.2703ZM28.4296 61.9298C28.2933 61.9298 28.2115 61.8766 28.1298 61.8234V60.2277C28.2115 60.1479 28.2933 60.0947 28.4024 60.0947H28.4296C28.5932 60.0947 28.7022 60.2277 28.7022 61.0255C28.7022 61.8234 28.5932 61.9298 28.4296 61.9298Z" fill="#F1F6FA"/>
<path d="M20.1133 38.4961C22.0487 39.1875 23.7115 37.512 25.5379 37.512C27.3643 37.4854 29.2997 39.1609 30.9897 38.4695C28.7545 40.0918 26.8191 42.2194 25.5379 45.2247C24.2567 42.2194 22.3485 40.0918 20.1133 38.4961Z" fill="#F1F6FA"/>
<path d="M30.1719 58.4458L31.1805 58.0469V62.6745H30.1719V58.4458Z" fill="#F1F6FA"/>
<path d="M31.7243 56.9503H29.9251L29.2437 54.5302L28.8893 55.0887V56.9503H27.1992V49.7164L28.8893 49.0781V51.6845C28.8893 52.1366 28.862 52.7749 28.8348 53.1472C28.9983 52.8015 29.2982 52.243 29.598 51.6845L29.8434 51.2589H31.6697L30.4703 53.0408L31.7243 56.9503Z" fill="#F1F6FA"/>
<path d="M32.7894 58.5209C32.7894 58.8401 32.5713 59.0528 32.217 59.0528C31.8899 59.0528 31.6445 58.8401 31.6445 58.5209C31.6445 58.2284 31.8899 58.0156 32.217 58.0156C32.5713 58.0156 32.7894 58.2284 32.7894 58.5209Z" fill="#F1F6FA"/>
<path d="M32.7352 59.3438H31.7266V62.6948H32.7352V59.3438Z" fill="#F1F6FA"/>
<path d="M34.9438 61.4252L35.6798 61.7976C35.4345 62.4625 35.1074 62.7816 34.5077 62.7816C33.7171 62.7816 33.1992 62.2497 33.1992 61.0529C33.1992 59.8827 33.6626 59.3242 34.5349 59.3242C35.1891 59.3242 35.489 59.7231 35.6798 60.2817L34.8893 60.654C34.7803 60.2816 34.7257 60.1487 34.5349 60.1487C34.3168 60.1487 34.2078 60.388 34.2078 61.0795C34.2078 61.771 34.3168 61.9837 34.5622 61.9837C34.6985 61.9306 34.7803 61.8242 34.9438 61.4252Z" fill="#F1F6FA"/>
<path d="M41.5959 52.9381V56.954H39.9059V53.2307C39.9059 52.8052 39.7423 52.5924 39.4697 52.5924C39.2516 52.5924 39.0881 52.6988 38.9518 52.8052V56.954H37.2617V51.2892H38.9518V51.6084C39.2516 51.3424 39.606 51.1562 40.1512 51.1562C41.1053 51.1562 41.5959 51.7148 41.5959 52.9381Z" fill="#F1F6FA"/>
<path d="M30.9897 38.4684C28.7545 40.0907 26.8191 42.2183 25.5379 45.2236C24.2567 42.2183 22.3485 40.0907 20.1133 38.4684C22.0487 39.1599 23.7115 37.4844 25.5379 37.4844C27.3643 37.4844 29.2997 39.1865 30.9897 38.4684Z" fill="#F1F6FA"/>
<path fill-rule="evenodd" clip-rule="evenodd" d="M17.8492 59.372L17.6584 60.3826C17.5221 60.2497 17.4131 60.1699 17.2223 60.1699C17.0314 60.1699 16.8951 60.2497 16.8406 60.489V62.6432H15.832V59.3454H16.8406V59.5582C17.0042 59.3986 17.195 59.2922 17.4403 59.2922C17.6039 59.2656 17.7402 59.3188 17.8492 59.372Z" fill="#F1F6FA"/>
<path fill-rule="evenodd" clip-rule="evenodd" d="M19.3516 60.0103L19.3788 59.2656C18.5338 59.2656 18.0977 59.8773 18.0977 61.0209C18.0977 62.0847 18.5338 62.7496 19.3788 62.7496V61.9783C19.1608 61.9517 19.0517 61.7922 19.0517 61.2869H19.3788V60.6486H19.0245C19.0517 60.1699 19.1335 60.0103 19.3516 60.0103ZM19.9785 61.606C19.7605 61.8986 19.6242 61.9783 19.4334 61.9783H19.3788V62.7496C19.9785 62.7496 20.2784 62.4837 20.5783 62.0847L19.9785 61.606ZM19.3788 59.2656V60.0103C19.5969 60.0103 19.706 60.1965 19.7332 60.6486H19.3788V61.2869H20.6328V61.0475C20.6328 59.8773 20.1966 59.2656 19.3788 59.2656Z" fill="#F1F6FA"/>
<path fill-rule="evenodd" clip-rule="evenodd" d="M22.3516 60.0901V59.3454C22.2698 59.372 22.1608 59.4518 22.079 59.5316V59.3454H21.0977V63.9198L22.079 63.5475V62.5103C22.188 62.59 22.2698 62.6432 22.3516 62.6964V61.9252C22.2425 61.9252 22.1608 61.872 22.079 61.8188V60.2231C22.1608 60.1433 22.2153 60.0901 22.3516 60.0901ZM22.706 59.2656C22.5697 59.2656 22.4606 59.2922 22.3516 59.3454V60.0901H22.3788C22.5697 60.0901 22.6514 60.2231 22.6514 61.0209C22.6514 61.8188 22.5697 61.9252 22.3788 61.9252H22.3516V62.6964C22.4606 62.723 22.5697 62.7762 22.6787 62.7762C23.2784 62.7762 23.6055 62.2177 23.6055 61.0209C23.6055 59.8241 23.2784 59.2656 22.706 59.2656Z" fill="#F1F6FA"/>
<path fill-rule="evenodd" clip-rule="evenodd" d="M26.6014 59.3438V62.6948H25.5928V62.5086C25.4293 62.6682 25.2112 62.7745 24.8841 62.7745C24.3117 62.7745 24.0391 62.4554 24.0391 61.7107V59.3438H25.0477V61.5512C25.0477 61.8171 25.1294 61.9235 25.293 61.9235C25.4293 61.9235 25.5111 61.8969 25.5928 61.8171V59.3438H26.6014Z" fill="#F1F6FA"/>
<path fill-rule="evenodd" clip-rule="evenodd" d="M28.4023 60.0947V59.35C28.3205 59.3766 28.2115 59.4564 28.1297 59.5362V58.0469L27.1211 58.4458V62.7011H28.1297V62.5149C28.2115 62.5947 28.3205 62.6479 28.4023 62.7011V61.9298C28.2932 61.9298 28.1842 61.8766 28.1297 61.8234V60.2277C28.2115 60.1479 28.2932 60.0947 28.4023 60.0947ZM28.7839 59.2703C28.6476 59.2703 28.5386 59.2969 28.4295 59.35V60.0947H28.4568C28.6204 60.0947 28.7294 60.2277 28.7294 61.0255C28.7294 61.8234 28.6204 61.9298 28.4568 61.9298H28.4295V62.7011C28.5386 62.7276 28.6476 62.7808 28.7567 62.7808C29.3564 62.7808 29.7107 62.2223 29.7107 61.0255C29.7107 59.8288 29.3564 59.2703 28.7839 59.2703Z" fill="#F1F6FA"/>
<path fill-rule="evenodd" clip-rule="evenodd" d="M31.1805 58.0469V62.6745H30.1719V58.4458L31.1805 58.0469Z" fill="#F1F6FA"/>
<path fill-rule="evenodd" clip-rule="evenodd" d="M31.7263 59.3454V62.6964H32.7349V59.3454H31.7263ZM32.217 58.0156C31.8899 58.0156 31.6445 58.2284 31.6445 58.5209C31.6445 58.8401 31.8899 59.0528 32.217 59.0528C32.5713 59.0528 32.7894 58.8401 32.7894 58.5209C32.7894 58.2284 32.5713 58.0156 32.217 58.0156Z" fill="#F1F6FA"/>
<path fill-rule="evenodd" clip-rule="evenodd" d="M35.6798 61.7663C35.4345 62.4312 35.1074 62.7504 34.5077 62.7504C33.7171 62.7504 33.1992 62.2185 33.1992 61.0217C33.1992 59.8515 33.6626 59.293 34.5349 59.293C35.1891 59.293 35.489 59.6919 35.6798 60.2504L34.8893 60.6227C34.7803 60.2504 34.7257 60.1174 34.5349 60.1174C34.3168 60.1174 34.2078 60.3568 34.2078 61.0483C34.2078 61.7397 34.3168 61.9525 34.5622 61.9525C34.6985 61.9525 34.8075 61.8461 34.9711 61.4472L35.6798 61.7663Z" fill="#F1F6FA"/>
<path fill-rule="evenodd" clip-rule="evenodd" d="M13.8971 55.4115C13.461 56.5551 12.8886 57.0604 11.9072 57.0604C10.5443 57.0604 9.69922 56.1562 9.69922 54.1349C9.69922 52.1403 10.4352 51.1562 11.9345 51.1562C13.0249 51.1562 13.5428 51.7945 13.8699 52.8052L12.5069 53.4169C12.3434 52.752 12.2343 52.5392 11.9072 52.5392C11.4983 52.5392 11.362 52.9381 11.362 54.1349C11.362 55.2785 11.5256 55.6775 11.9617 55.6775C12.2343 55.6775 12.3979 55.4913 12.616 54.7732L13.8971 55.4115Z" fill="#F1F6FA"/>
<path fill-rule="evenodd" clip-rule="evenodd" d="M18.9436 52.9344V56.9503H17.2263V53.227C17.2263 52.8015 17.09 52.5887 16.8174 52.5887C16.5993 52.5887 16.4357 52.6685 16.2995 52.8015V56.9503H14.6094V49.7164L16.2995 49.0781V51.6047C16.5993 51.3387 16.9264 51.1526 17.4989 51.1526C18.4257 51.1792 18.9436 51.7111 18.9436 52.9344Z" fill="#F1F6FA"/>
<path fill-rule="evenodd" clip-rule="evenodd" d="M19.8395 51.2848V56.9496H21.5296V51.2848H19.8395ZM20.6845 49.0508C20.1121 49.0508 19.7305 49.3965 19.7305 49.9018C19.7305 50.4071 20.1394 50.7529 20.6845 50.7529C21.257 50.7529 21.6386 50.4071 21.6386 49.9018C21.6659 49.3965 21.257 49.0508 20.6845 49.0508Z" fill="#F1F6FA"/>
<path fill-rule="evenodd" clip-rule="evenodd" d="M26.5221 55.4115C26.1133 56.5551 25.5408 57.0604 24.5322 57.0604C23.1693 57.0604 22.3242 56.1562 22.3242 54.1349C22.3242 52.1403 23.0875 51.1562 24.5867 51.1562C25.6771 51.1562 26.195 51.7945 26.5221 52.8052L25.1592 53.4169C24.9956 52.752 24.8866 52.5392 24.5595 52.5392C24.1506 52.5392 24.0143 52.9381 24.0143 54.1349C24.0143 55.2785 24.1779 55.6775 24.5867 55.6775C24.8593 55.6775 25.0501 55.4913 25.2682 54.7732L26.5221 55.4115Z" fill="#F1F6FA"/>
<path fill-rule="evenodd" clip-rule="evenodd" d="M31.7243 56.9503H29.9251L29.2437 54.5302L28.8893 55.0887V56.9503H27.1992V49.7164L28.8893 49.0781V51.6845C28.8893 52.1366 28.862 52.7749 28.8348 53.1472C28.9983 52.8015 29.2982 52.243 29.598 51.6845L29.8434 51.2589H31.6697L30.4703 53.0408L31.7243 56.9503Z" fill="#F1F6FA"/>
<path fill-rule="evenodd" clip-rule="evenodd" d="M33.7724 54.6136H34.3449V53.5232H33.7724C33.827 52.6988 33.9905 52.4328 34.3449 52.4328H34.3721V51.1828C32.9819 51.1828 32.1914 52.2201 32.1914 54.1615C32.1914 55.97 32.9274 57.087 34.3721 57.087V55.7838C34.0178 55.7306 33.7997 55.4381 33.7724 54.6136ZM35.3807 55.1455C35.0264 55.6243 34.781 55.7838 34.4267 55.7838H34.3449V57.087H34.3721C35.3535 57.087 35.8987 56.6349 36.3893 55.9168L35.3807 55.1455ZM34.3721 51.1562L34.3449 52.4062C34.7538 52.4062 34.8901 52.7254 34.9446 53.4966H34.3449V54.587H36.4711V54.1881C36.4711 52.1669 35.7624 51.1562 34.3721 51.1562Z" fill="#F1F6FA"/>
<path fill-rule="evenodd" clip-rule="evenodd" d="M41.5959 52.9381V56.954H39.9059V53.2307C39.9059 52.8052 39.7423 52.5924 39.4697 52.5924C39.2516 52.5924 39.0881 52.6988 38.9518 52.8052V56.954H37.2617V51.2892H38.9518V51.6084C39.2516 51.3424 39.606 51.1562 40.1512 51.1562C41.1053 51.1562 41.5959 51.7148 41.5959 52.9381Z" fill="#F1F6FA"/>
</g>
<defs>
<clipPath id="clip0_5131_16132">
<rect width="51.0294" height="80.7965" fill="white" transform="translate(0.488281 0.578125)"/>
</clipPath>
</defs>
</svg>
