<svg width="74" height="80" viewBox="0 0 74 80" fill="none" xmlns="http://www.w3.org/2000/svg">
<g clip-path="url(#clip0_5131_16096)">
<path d="M18.883 6.9898C16.5548 6.9898 14.462 7.48448 12.4216 8.26554C12.2385 8.34364 12.0554 8.39571 11.8722 8.42175C11.7676 8.42175 11.6368 8.36968 11.5845 8.29157C11.5583 8.2395 11.5845 8.08329 11.6368 8.00518C12.1338 7.48448 12.6309 6.96377 13.1802 6.49513C14.122 5.662 15.1683 4.98508 16.3455 4.51644C16.5548 4.43833 16.6594 4.30816 16.6333 4.07384C16.581 3.83952 16.3978 3.83952 16.2147 3.83952C15.9008 3.86555 15.6131 3.91763 15.2991 3.91763C15.1683 3.91763 15.0375 3.86555 14.9067 3.83952C14.9591 3.73538 14.9591 3.57917 15.0637 3.50106C15.5346 3.1626 15.9793 2.7981 16.5025 2.56378C18.6999 1.5484 21.0019 0.819413 23.4348 0.533023C25.4752 0.298705 27.5157 0.480952 29.5561 0.897519C31.7797 1.36616 33.8986 2.12118 35.7821 3.39692C38.3457 5.08922 40.3338 7.30223 41.5895 10.1401C42.5051 12.1708 43.0021 14.2797 43.2114 16.4667C43.2637 16.9874 43.2637 17.5341 43.2899 18.0548C43.2899 18.2371 43.2899 18.4193 43.2114 18.5756C43.1591 18.7057 43.0544 18.8099 42.9498 18.914C42.8452 18.8099 42.7144 18.7318 42.662 18.6276C41.6941 16.675 40.5954 14.7744 39.3659 12.9779C39.2613 12.8478 39.1043 12.7436 38.9474 12.6395C38.9212 12.8217 38.8689 13.004 38.8951 13.1602C39.0259 14.1235 39.209 15.0868 39.3659 16.0501C39.4706 16.8051 39.8368 17.43 40.3338 17.9507C41.1448 18.8359 41.5372 19.8773 41.6941 21.0229C41.7464 21.4134 41.6941 21.4915 41.2756 21.4655C37.9533 21.2312 34.7095 21.6998 31.4657 22.3247C30.3147 22.5329 29.2945 23.0536 28.5097 23.9128C28.2481 24.1992 27.9604 24.3554 27.5156 24.3033C26.8355 24.2252 26.1554 24.3294 25.5275 24.6158C25.109 24.8241 24.7166 24.7459 24.298 24.5377C23.6702 24.1992 23.0162 23.8607 22.3361 23.6004C21.5251 23.288 20.6357 23.288 19.7724 23.314C18.1505 23.3921 16.5025 23.4702 14.9067 23.7826C14.3836 23.8868 13.8865 23.9649 13.3633 24.069C12.9186 24.1471 12.7617 24.043 12.6832 23.6264C12.657 23.4702 12.6309 23.34 12.6047 23.1838C12.5262 22.585 12.657 22.0903 13.2064 21.7519C13.5464 21.5436 13.6249 21.2051 13.6511 20.8146C13.7034 19.7992 13.7557 18.7838 13.8865 17.7685C14.1481 15.8418 14.8021 14.0454 15.927 12.4312C16.5548 11.52 17.3919 10.9472 18.4644 10.6868C19.9817 10.3223 21.5251 10.2182 23.0685 10.5567C23.4086 10.6348 23.7487 10.7389 24.0887 10.8691C24.4288 10.9732 24.6643 10.8951 24.8735 10.6348C25.0828 10.3744 25.3182 10.1401 25.5537 9.90577C25.8938 9.56731 25.8938 9.35902 25.4752 9.09867C24.952 8.76021 24.4288 8.44779 23.8795 8.1614C22.2576 7.40637 20.5834 6.96377 18.883 6.9898Z" fill="#F1F6FA"/>
<path d="M28.4571 46.409C28.4833 46.2267 28.5356 46.0705 28.5356 45.8883C28.5094 45.4977 28.4571 45.0812 28.3525 44.6906C28.274 44.3782 28.0647 44.1699 27.6985 44.1179C27.4369 44.0658 27.1491 44.0137 26.8875 43.9096C26.5736 43.7794 26.5736 43.6232 26.8091 43.3889C27.3846 42.8682 28.0647 42.6078 28.8233 42.5818C29.922 42.5557 31.0207 42.5557 32.0933 42.2173C32.8781 41.983 33.6367 41.6185 34.4215 41.306C34.9708 41.0717 35.651 41.1759 36.0695 41.6185C36.2003 41.7486 36.2527 41.9569 36.2788 42.1392C36.3835 42.6859 36.4881 43.2327 36.5927 43.7534C36.5927 43.8054 36.6189 43.8835 36.645 43.9356C36.7235 44.0398 36.8282 44.222 36.9328 44.248C37.0374 44.2741 37.1944 44.1439 37.2729 44.0398C37.6391 43.5711 37.6129 42.9723 37.6653 42.4256C37.6914 42.0871 37.6914 41.7226 37.7961 41.3841C37.8484 41.1238 38.0053 40.8634 38.1623 40.6552C38.5285 40.1344 38.764 39.5617 38.8163 38.9368C38.8686 38.0516 38.7901 37.1404 38.5809 36.2812C38.4501 35.7865 38.1361 35.4741 37.6653 35.3439C36.7497 35.0836 36.0957 34.5368 35.4679 33.8599C34.84 33.183 34.2645 32.454 33.4013 32.0895C33.0612 31.9333 32.6688 31.8292 32.3026 31.751C31.8055 31.6469 31.5963 31.8812 31.8055 32.3238C32.2764 33.3913 32.041 33.4954 31.2823 34.0942C30.6283 34.6149 29.922 35.0315 29.0849 35.1356C27.777 35.3179 26.1027 34.693 25.3441 33.3652C25.0825 32.8966 25.161 32.428 25.2133 31.9333C25.318 31.2043 25.4488 30.4493 25.4749 29.7203C25.5011 29.1735 25.3703 28.6008 25.3441 28.028C25.318 27.7937 25.318 27.5333 25.3703 27.299C25.6319 26.1274 25.7627 25.9972 26.966 25.7369C27.4107 25.6327 27.9078 25.9712 28.117 26.3878C28.3525 26.8564 28.5617 27.325 28.8757 27.7416C29.3727 28.4185 29.7912 28.3404 30.2883 27.5593C30.3406 27.4552 30.3144 27.273 30.2621 27.1428C30.2098 27.0126 30.079 26.9085 30.0267 26.7523C30.0005 26.6741 29.9744 26.5179 30.0267 26.4659C30.1052 26.4138 30.236 26.3878 30.3406 26.4138C30.6283 26.4919 30.8899 26.6221 31.1777 26.7262C32.4334 27.1167 33.6367 26.9345 34.8662 26.5179C35.1278 26.4398 35.3894 26.3357 35.651 26.2576C36.0172 26.1534 36.3573 26.2315 36.5404 26.544C36.7758 26.9345 37.0636 27.0647 37.5083 27.0126C37.6653 26.9866 37.8222 27.0126 37.9792 27.0126C38.2931 27.0126 38.4239 27.1949 38.3977 27.5073C38.3193 28.3144 37.953 28.9653 37.3514 29.486C37.1944 29.6422 37.0898 29.7724 37.1682 30.0067C37.3514 30.5013 37.5345 30.5795 37.953 30.267C38.8948 29.5901 39.418 28.6528 39.6011 27.5333C39.758 26.6221 39.8365 25.6848 39.9412 24.7475C39.9935 24.357 40.0981 24.0185 40.4643 23.8103C40.8044 23.602 41.1183 23.3677 41.4584 23.1854C41.8246 22.9771 42.0339 23.0292 42.1647 23.4458C42.2955 23.8623 42.374 24.2789 42.4525 24.6955C42.5571 25.2943 42.6617 25.8931 42.7664 26.4919C42.8449 26.8564 43.028 26.9345 43.2896 26.6481C43.8912 26.0233 44.022 25.5546 43.4465 24.9037C43.2373 24.6694 43.1065 24.4091 43.2634 24.0706C43.4465 23.7061 43.7343 23.4458 44.1267 23.4718C44.336 23.4718 44.5714 23.628 44.7022 23.7842C45.1207 24.3049 45.1731 24.9558 45.1992 25.5807C45.2777 27.5593 44.7283 29.4339 44.1005 31.2824C43.7866 32.1676 43.6035 33.1309 43.368 34.0422C43.3419 34.1463 43.3419 34.2504 43.2896 34.3025C43.2373 34.3806 43.1065 34.4848 43.028 34.4848C42.9495 34.4848 42.8187 34.4067 42.7664 34.3025C42.6879 34.1984 42.6356 34.0422 42.5309 33.8339C42.4525 33.9901 42.374 34.0942 42.3217 34.1984C42.1647 34.5368 42.0862 34.9013 41.877 35.2138C41.6415 35.6043 41.5892 36.0209 41.6415 36.4635C41.9031 38.5723 41.9554 40.6812 41.4846 42.764C41.066 44.6386 40.2027 46.2788 38.8948 47.6847C37.9792 48.6741 37.0374 49.5853 35.9126 50.3143C35.3894 50.6527 34.997 50.6527 34.5 50.2882C34.3692 50.1841 34.186 50.132 34.0291 50.08C34.0291 50.2622 33.9506 50.4965 34.0029 50.6527C34.3692 51.5379 34.0553 52.319 33.6105 53.074C33.3489 53.5166 33.0612 53.9592 32.8781 54.4539C32.7211 54.8705 32.6688 55.3652 32.5903 55.8078C32.538 56.1202 32.4595 56.1983 32.1718 56.1462C31.9886 56.0941 31.8055 56.0421 31.6747 55.9379C30.5237 55.1308 29.3204 54.3758 28.3525 53.3604C27.6985 52.6835 27.123 51.9285 27.0445 50.9652C26.9922 50.3403 27.0183 49.6634 27.123 49.0385C27.3584 47.8409 27.3584 46.6433 26.9137 45.4977C26.8352 45.2895 26.9399 45.1593 27.1491 45.2634C27.3322 45.3415 27.4892 45.4717 27.62 45.6279C27.8554 45.8883 28.0647 46.1486 28.3001 46.409C28.3525 46.409 28.4048 46.409 28.4571 46.409Z" fill="#F1F6FA"/>
<path d="M61.3641 69.6059C61.0502 68.929 60.7624 68.2781 60.4747 67.6273C58.722 63.8001 56.9954 59.9468 55.2427 56.1196C54.458 54.3752 53.647 52.6569 52.8622 50.9386C52.8099 50.8084 52.7576 50.6782 52.7053 50.548C52.5745 50.1575 52.6791 49.9492 53.0977 49.9492C53.4639 49.9492 53.8301 49.9753 54.2225 50.0013C55.4259 50.0794 56.6554 50.1835 57.8587 50.2616C60.9978 50.522 64.137 50.6001 67.2238 51.251C68.898 51.6155 70.4153 52.3445 71.8017 53.3599C71.9849 53.49 71.9064 53.6202 71.8541 53.7764C70.6769 56.9788 69.1335 59.9728 67.2238 62.7847C65.6019 65.1539 63.7446 67.3409 61.6518 69.3196C61.5734 69.4237 61.4949 69.5018 61.3641 69.6059Z" fill="#F1F6FA"/>
<path d="M36.7739 59.0136C36.9046 58.9876 37.0616 58.9616 37.1924 58.9616C37.8202 58.9355 38.4219 58.9616 39.0497 58.9095C39.7037 58.8574 39.9915 58.4929 39.9653 57.8681C39.913 57.035 39.7822 56.1758 39.6776 55.3427C39.6776 55.2906 39.6514 55.2646 39.6514 55.2125C39.6514 54.119 39.0497 54.0149 38.2649 54.0669C37.4278 54.145 36.5907 54.3793 35.7536 54.5356C35.6228 54.5616 35.492 54.5876 35.3612 54.5876C35.3351 54.5616 35.3089 54.5356 35.3089 54.4835C35.4136 54.3794 35.492 54.2492 35.6228 54.1711C36.8 53.3119 37.951 52.4007 38.9451 51.3332C40.4623 49.693 41.7965 47.9486 42.529 45.7877C42.6336 45.5013 42.7382 45.4752 42.9737 45.6835C43.4707 46.1522 43.7323 46.751 43.8892 47.4019C44.2293 48.964 44.3863 50.5261 44.2555 52.1143C44.0462 55.0042 43.5753 57.8421 42.6859 60.6278C42.6336 60.8101 42.6859 61.0184 42.6859 61.2267C42.8429 61.0965 43.026 60.9923 43.1306 60.8361C43.7846 59.6906 44.1508 58.4669 44.5432 57.2172C45.3019 54.7438 45.7989 52.2444 46.0082 49.6669C46.0343 49.2764 46.0605 48.8859 46.0867 48.4954C46.1128 48.1829 46.2698 48.0788 46.5575 48.209C47.0284 48.4172 47.2638 48.8078 47.3685 49.2764C47.6824 50.5521 48.0225 51.8018 48.2579 53.1036C48.8857 56.5403 49.4612 60.003 50.0367 63.4657C50.1937 64.455 50.0629 64.6113 49.0165 64.7154C47.8393 64.8456 46.6622 64.9237 45.485 65.0539C42.8429 65.3403 40.2008 65.6266 37.5586 65.913C37.1662 65.9651 36.7739 66.0172 36.3815 66.0692C35.9629 66.1213 35.8844 66.0432 35.8059 65.6266C35.4397 63.5438 34.7596 61.5912 33.6085 59.8207C33.5301 59.7166 33.5562 59.5604 33.5039 59.4302C33.6347 59.4302 33.8178 59.3521 33.9225 59.4042C34.8642 59.8728 35.8059 60.2894 36.6954 60.8361C37.7156 61.461 38.6835 62.19 39.6776 62.8669C39.7299 62.919 39.8084 62.971 39.8607 62.971C39.9392 62.971 40.07 62.9971 40.1223 62.945C40.1746 62.8929 40.1746 62.7627 40.1223 62.6846C39.913 62.3722 39.6776 62.0598 39.416 61.7734C38.605 60.9663 37.7941 60.2113 36.9831 59.4302C36.8785 59.3261 36.8 59.2219 36.7215 59.1178C36.7477 59.0657 36.7739 59.0397 36.7739 59.0136ZM39.5468 60.3675C39.6514 60.1071 39.7299 59.9249 39.8345 59.6906C39.8607 59.9509 39.8607 60.1071 39.8868 60.2633C39.913 60.2633 39.9392 60.2633 39.9915 60.2633C39.9915 60.003 39.9915 59.7166 39.9915 59.4302C39.5991 59.3781 39.756 59.8207 39.5468 59.9249C39.3636 59.7947 39.5206 59.3781 39.1282 59.4042C39.1282 59.6906 39.1282 59.977 39.1282 60.2633C39.1544 60.2633 39.1805 60.2633 39.2067 60.2633C39.2328 60.1071 39.2328 59.9509 39.259 59.7166C39.3636 59.9509 39.416 60.1071 39.5468 60.3675ZM38.605 60.3154C38.605 60.029 38.605 59.7947 38.605 59.5864C38.7358 59.5344 38.8143 59.5083 38.8928 59.4823C38.8928 59.4823 38.8928 59.4563 38.8666 59.4563C38.6312 59.4563 38.3957 59.4563 38.1603 59.4563C38.7097 59.5604 38.2649 60.0551 38.605 60.3154Z" fill="#F1F6FA"/>
<path d="M15.0898 61.6654C15.1422 60.598 15.1945 59.2962 15.2468 57.9684C15.273 57.4477 15.4038 56.9791 15.9793 56.7708C16.3193 56.6406 16.4501 56.6666 16.6333 56.9791C17.4965 58.5412 18.3336 60.1293 19.2754 61.6394C19.877 62.6027 20.688 63.4619 21.4466 64.295C21.996 64.8938 22.65 65.4145 23.2516 65.9613C23.4086 66.0915 23.6179 66.3258 23.801 66.1175C23.9841 65.9092 23.8271 65.6489 23.6702 65.4666C23.1208 64.8418 22.5976 64.2169 22.0483 63.566C20.6095 61.8216 19.6154 59.7909 18.8307 57.682C18.3859 56.4844 17.9412 55.3128 17.8889 54.011C17.8628 53.3341 17.9151 52.6572 17.9412 51.9803C17.9412 51.8501 17.9936 51.7199 18.0459 51.6158C18.2552 51.043 18.4121 51.043 18.8307 51.4335C19.9817 52.4749 21.2635 53.3341 22.6238 54.0371C23.4609 54.4797 24.3503 54.8442 25.1874 55.2607C25.3705 55.3388 25.5013 55.5211 25.6583 55.6513C25.5013 55.7294 25.3182 55.8335 25.1351 55.8856C24.5073 56.0418 23.8533 56.172 23.2516 56.3802C22.6761 56.5625 22.5715 56.7968 22.6238 57.3956C22.7023 58.2288 22.8069 59.0879 22.9116 59.9211C22.99 60.6501 23.2778 61.0146 24.1672 61.0146C24.8735 60.9885 25.5798 60.8063 26.2861 60.7021C26.4692 60.6761 26.6524 60.624 26.8616 60.598C26.9663 60.598 27.0971 60.598 27.1494 60.6761C27.2017 60.7282 27.1494 60.8844 27.0971 60.9625C26.8093 61.5092 26.4692 62.056 26.2077 62.6287C25.9722 63.1495 25.8153 63.7222 25.6583 64.295C25.6321 64.3731 25.6845 64.5033 25.7106 64.6074C25.7891 64.5554 25.9199 64.5033 25.9722 64.4252C26.4954 63.6441 26.9924 62.8631 27.568 62.108C28.1696 61.327 28.8236 60.598 29.6607 60.0773C29.7915 59.9992 30.0008 59.9731 30.1577 59.9211C30.1839 60.1033 30.2624 60.3116 30.2101 60.4678C29.9746 61.3009 29.7392 62.1601 29.4253 62.9672C28.9806 64.1128 28.4574 65.2583 27.9342 66.3778C27.6987 66.8725 27.3064 67.1589 26.7308 67.263C23.5394 67.8098 20.3741 68.3826 17.1826 68.9293C17.0257 68.9553 16.8949 68.9554 16.7379 68.9554C16.267 68.9554 16.0316 68.8252 15.9269 68.3565C15.7177 67.5234 15.5346 66.6903 15.4299 65.8571C15.2991 64.5814 15.2206 63.2536 15.0898 61.6654Z" fill="#F1F6FA"/>
<path d="M24.0382 28.9633C24.0121 29.2236 24.0382 29.51 23.9859 29.7443C23.8028 30.6816 23.3581 31.4627 22.6256 32.0875C21.9193 32.7124 21.4223 33.4413 21.3438 34.4047C21.3177 34.5609 21.1869 34.7431 21.0561 34.8212C20.2713 35.2378 19.5911 35.7845 18.9633 36.3833C18.4401 36.878 17.76 36.9301 17.1583 36.4875C16.1904 35.7585 15.3794 34.8733 14.8824 33.7277C14.8301 33.5976 14.8562 33.4413 14.8301 33.3112C14.9609 33.3372 15.1178 33.3372 15.2486 33.3893C15.5625 33.4934 15.8503 33.6236 16.1381 33.7277C16.452 33.8319 16.6351 33.7017 16.7397 33.3372C16.8705 32.9206 16.8182 32.7644 16.4781 32.6342C15.4579 32.2437 14.6993 31.5668 14.1499 30.6295C13.8883 30.1869 13.9407 30.0828 14.3331 29.7964C14.7254 29.484 15.0917 29.484 15.4841 29.7964C15.6149 29.9266 15.8241 29.9786 16.0073 30.0567C16.295 30.1609 16.5566 30.0828 16.7136 29.7964C17.4199 28.5727 18.4663 28.1301 19.8527 28.2603C20.716 28.3384 21.6054 28.3124 22.3902 27.8177C22.4687 27.7656 22.6256 27.7917 22.7303 27.7917C22.7041 27.8958 22.7041 28.052 22.6518 28.1301C22.2332 28.781 22.2594 28.9112 22.8611 29.4059C23.0703 29.5621 23.2273 29.5621 23.3843 29.3798C23.5412 29.2236 23.6459 29.0414 23.8028 28.8591C23.9336 28.8852 23.9859 28.9112 24.0382 28.9633Z" fill="#F1F6FA"/>
<path d="M7.60641 19.6448C7.55409 19.072 7.55409 18.4732 7.44946 17.9004C7.34482 17.2235 6.87395 16.7288 6.48155 16.1821C6.35075 15.9998 6.21996 15.8436 6.11532 15.6614C5.9322 15.3489 6.11532 15.0105 6.45539 14.9844C7.86801 14.8282 8.99287 14.0992 10.0654 13.2401C11.0595 12.433 12.0535 11.6259 13.0738 10.8969C13.8324 10.3762 14.6957 9.98565 15.6374 9.8815C15.742 9.8815 15.8467 9.85547 15.9513 9.85547C16.0559 9.8815 16.1606 9.93357 16.2391 9.95961C16.1867 10.0377 16.1344 10.1679 16.0559 10.22C15.5066 10.6365 14.9311 11.001 14.4341 11.4436C13.44 12.3809 12.7075 13.5004 12.2367 14.7762C11.9751 15.5052 11.6088 16.156 11.0333 16.6767C10.4578 17.1975 10.1962 17.8744 10.0393 18.6294C9.6207 20.7643 9.51606 22.9252 9.80382 25.0862C9.88229 25.685 9.3591 26.3098 8.73127 26.2838C8.60048 26.2838 8.3912 26.1016 8.36504 25.9453C8.1296 25.0862 7.89417 24.227 7.73721 23.3418C7.63257 22.743 7.60641 22.1181 7.58025 21.4933C7.58025 20.8945 7.60641 20.2957 7.60641 19.6448Z" fill="#F1F6FA"/>
<path d="M50.0382 38.5213C50.8491 37.9225 51.6339 37.2977 52.4448 36.6988C52.6279 36.5687 52.8111 36.4385 52.968 36.2823C53.2819 36.0219 53.2558 35.8657 52.8895 35.7095C52.8372 35.6835 52.7849 35.6574 52.7587 35.6574C52.8372 35.1628 52.8372 35.1628 53.3081 35.1628C54.3545 35.1628 55.3747 35.1628 56.4211 35.1628C56.5257 35.1628 56.6565 35.1628 56.7873 35.1628C56.7873 35.4752 56.7612 35.6835 56.4211 35.7355C56.2641 35.7616 56.1072 35.8397 56.0025 35.9438C54.8777 36.829 53.779 37.6882 52.6541 38.5994C52.9157 38.99 53.1511 39.3805 53.4127 39.771C53.7267 40.2397 54.0406 40.7343 54.3806 41.203C54.6684 41.6456 55.0346 42.0101 55.6363 42.1142C55.584 42.2965 55.5578 42.4527 55.4793 42.6609C54.6422 42.6349 53.779 42.6089 52.9419 42.5568C52.314 42.5047 51.817 42.1663 51.4508 41.6456C50.9014 40.8905 50.3521 40.1355 49.7766 39.3545C49.6196 39.9533 49.4365 40.5521 49.2795 41.1249C49.2534 41.203 49.2534 41.2811 49.2272 41.3331C49.1226 41.7497 49.1749 41.8538 49.6458 42.0621C49.6458 42.5828 49.6196 42.6089 49.0964 42.6089C48.05 42.6089 47.0298 42.6089 45.9834 42.6089C45.8788 42.6089 45.748 42.6089 45.6172 42.6089C45.6695 42.2965 45.6695 42.0621 46.0357 41.984C46.402 41.9059 46.5589 41.5675 46.6636 41.229C46.8728 40.6042 47.056 39.9533 47.2391 39.3024C47.5007 38.4172 47.7361 37.5059 47.9715 36.6207C48.1285 36.048 48.0762 35.8917 47.553 35.6314C47.553 35.1628 47.5792 35.1367 48.0239 35.1367C49.0179 35.1367 50.012 35.1367 51.0061 35.1367C51.1107 35.1367 51.2415 35.1367 51.3723 35.1367C51.3984 35.4231 51.3461 35.6314 51.0584 35.7355C50.9014 35.7876 50.7445 35.9699 50.6921 36.1C50.4567 36.8811 50.2474 37.6622 50.012 38.4432C49.9858 38.4953 50.012 38.4953 50.0382 38.5213Z" fill="#F1F6FA"/>
<path d="M0.152344 63.1745C0.93713 62.784 1.6696 62.3934 2.42823 62.0289C3.05605 61.7165 3.71004 61.4041 4.33787 61.0656C4.99186 60.7272 5.64585 60.6751 6.35216 60.8573C6.77071 60.9615 7.18926 61.0396 7.60782 61.1437C8.00021 61.2479 8.20949 61.4301 8.20949 61.8467C8.20949 62.1331 8.15717 62.4455 8.07869 62.7319C7.45086 65.049 6.79687 67.3922 6.16904 69.7094C6.14288 69.7875 6.11672 69.8395 6.11672 69.9177C5.17498 69.3709 1.06793 64.7366 0.152344 63.1745Z" fill="#F1F6FA"/>
<path d="M22.7809 40.0015C22.5455 39.8974 22.2577 39.8453 21.9962 39.6891C21.7084 39.5069 21.7346 39.3246 22.0223 39.1424C22.2839 38.9601 22.5978 38.8299 22.8333 38.6217C23.1733 38.2832 23.4872 37.8927 23.775 37.5021C24.4028 36.643 25.1615 36.4347 26.1555 36.8252C27.1234 37.1897 28.1175 37.2418 29.1115 37.0856C29.5824 37.0075 29.8963 36.669 30.1056 36.2524C30.2626 35.9661 30.4718 35.7578 30.7596 35.6276C31.3351 35.3933 31.806 35.0288 32.2507 34.5862C32.6431 34.1696 32.9047 34.1175 33.3232 34.482C33.8987 34.9507 34.3958 35.5234 34.8928 36.0702C35.3637 36.5909 35.913 36.9033 36.5932 37.0335C36.7501 37.0595 36.9071 37.1897 36.9856 37.3199C37.0379 37.398 36.9333 37.5802 36.8286 37.6844C36.4885 38.101 36.0177 38.101 35.5468 38.127C33.611 38.2572 31.649 38.3353 29.7132 38.4915C27.6989 38.6737 25.7108 39.0643 23.775 39.7412C23.5134 39.8714 23.1733 39.8974 22.7809 40.0015Z" fill="#F1F6FA"/>
<path d="M59.6667 42.0595C59.5882 42.5802 59.5882 42.5802 59.0912 42.5802C58.2279 42.5802 57.3908 42.5802 56.5276 42.5802C56.4229 42.5802 56.3183 42.5802 56.1875 42.5802C56.4229 41.695 56.6584 40.8879 56.8676 40.0808C57.1816 38.9353 57.4955 37.8158 57.8094 36.6702C57.9925 36.0193 57.9402 35.9412 57.3908 35.6288C57.417 35.1602 57.417 35.1602 57.8879 35.1602C59.876 35.1602 61.838 35.1602 63.8261 35.1602C63.9569 35.1602 64.0877 35.1602 64.2446 35.1602C64.0877 35.811 63.9307 36.4359 63.7738 37.0347C63.7214 37.217 63.5645 37.217 63.4599 37.0607C63.2767 36.7483 62.9628 36.6702 62.6228 36.6702C61.9949 36.6702 61.3933 36.6702 60.7654 36.6702C60.5561 36.6702 60.4777 36.7483 60.4515 36.9306C60.373 37.2951 60.2422 37.6596 60.1376 38.0761C61.0009 38.0761 61.838 38.0761 62.7274 38.0761C62.5704 38.701 62.4396 39.2738 62.2827 39.8726C61.5502 39.3258 60.6869 39.5601 59.9022 39.5341C59.8237 39.5341 59.6929 39.6643 59.6667 39.7424C59.5098 40.2631 59.379 40.7578 59.2482 41.2785C59.1435 41.643 59.222 41.7992 59.6667 42.0595Z" fill="#F1F6FA"/>
<path d="M72.0622 35.4225C71.9052 35.9952 71.7744 36.568 71.5913 37.1148C71.5129 37.3491 71.3297 37.271 71.1989 37.1668C69.9956 36.2035 67.8767 36.3597 66.8826 37.5313C65.8885 38.7029 66.3071 40.3952 67.7197 40.994C68.6091 41.3585 69.4986 41.3065 70.388 41.0982C70.5973 41.0461 70.8065 40.994 71.0943 40.9159C70.9635 41.4366 70.8589 41.9053 70.7542 42.3739C70.7281 42.426 70.6234 42.4781 70.5711 42.5041C69.08 42.7905 67.5889 42.9207 66.0978 42.5041C64.659 42.0875 63.7435 41.0721 63.6388 39.6923C63.5603 38.7029 63.9527 37.8437 64.6329 37.1148C65.8101 35.839 67.3273 35.3183 69.0277 35.1621C69.9956 35.084 70.9112 35.1621 71.8529 35.3964C71.9052 35.3704 71.9576 35.3964 72.0622 35.4225Z" fill="#F1F6FA"/>
<path d="M41.0391 66.8215C41.7454 66.7174 42.3994 66.6133 43.1057 66.5352C43.812 70.6487 44.5183 74.7363 45.2246 78.8759C44.3875 79.0842 43.6027 79.2925 42.7133 79.5268C42.1639 75.257 41.5884 71.0653 41.0391 66.8215Z" fill="#F1F6FA"/>
<path d="M48.1001 77.8864C47.3415 73.9811 46.5828 70.1019 45.8242 66.1705C46.5044 66.0924 47.2107 65.9883 47.9431 65.9102C48.2047 67.0036 48.4402 68.0711 48.6756 69.1385C49.1988 71.6379 49.722 74.1373 50.2713 76.6628C50.3237 76.8971 50.2713 77.0012 50.0359 77.1054C49.4081 77.3397 48.7541 77.6261 48.1001 77.8864Z" fill="#F1F6FA"/>
<path d="M23.776 48.5673C22.8866 48.5412 21.9971 48.1247 21.16 47.5259C19.7997 46.5626 18.8318 45.2868 18.0994 43.8288C17.7855 43.178 17.4977 42.5271 17.2623 41.8502C17.053 41.2513 17.1838 40.6265 17.3931 40.0537C17.6023 39.507 18.0209 39.1945 18.5441 39.0383C18.9888 38.9081 19.2765 39.1164 19.355 39.559C19.7213 41.3815 20.2183 43.1259 21.0816 44.7661C21.2908 45.1566 21.5524 45.5211 21.8663 45.8596C22.1541 46.1981 22.3895 46.12 22.5203 45.7034C22.5988 45.443 22.6511 45.1566 22.7558 44.9223C22.8081 44.7921 22.9389 44.662 23.0435 44.6359C23.0958 44.6099 23.2528 44.7661 23.3051 44.8963C23.7498 45.8596 24.1684 46.8489 24.5869 47.8123C24.8485 48.3069 24.6393 48.5673 23.776 48.5673Z" fill="#F1F6FA"/>
<path d="M52.7849 75.7787C52.0262 72.3421 51.2938 69.0095 50.5352 65.5989C51.2676 65.4947 51.9739 65.4166 52.7326 65.3125C52.9157 66.0155 53.0726 66.7184 53.2296 67.3953C53.8051 69.6865 54.3806 71.9515 54.9561 74.2426C54.9823 74.3468 54.9561 74.503 54.9038 74.5551C54.2237 74.9456 53.5173 75.3361 52.7849 75.7787Z" fill="#F1F6FA"/>
<path d="M32.9036 40.3411C32.799 40.4192 32.6682 40.4973 32.5636 40.5494C31.4649 41.0701 30.2615 41.3044 29.0582 41.5127C28.535 41.5908 28.0118 41.6689 27.4886 41.6429C27.2009 41.6429 26.9393 41.4346 26.6777 41.3044C26.5992 41.2784 26.5469 41.1482 26.5469 41.0701C26.5469 41.018 26.6777 40.9399 26.7562 40.9139C28.378 40.4973 29.9999 40.263 31.6741 40.1849C31.9881 40.1849 32.302 40.1328 32.5897 40.1328C32.6944 40.1328 32.799 40.1588 32.9036 40.1849C32.9036 40.263 32.9036 40.3151 32.9036 40.3411Z" fill="#F1F6FA"/>
<path d="M20.4025 26.4139C19.3038 26.2837 18.3883 26.7784 17.4988 27.2991C17.1326 27.5074 16.7402 27.6896 16.374 27.8719C16.2693 27.9239 16.1385 27.95 16.0339 27.9239C15.9293 27.8979 15.7723 27.8458 15.72 27.7417C15.6938 27.6896 15.7723 27.5074 15.8508 27.4553C16.6879 26.8825 17.525 26.2837 18.3882 25.737C18.8853 25.3985 19.4608 25.3204 20.0363 25.5808C20.2456 25.6849 20.4549 25.8671 20.6118 26.0494C20.7949 26.2577 20.6641 26.4399 20.4025 26.4139Z" fill="#F1F6FA"/>
<path d="M37.2189 25.4773C37.0619 25.7897 36.8003 25.7637 36.591 25.7116C36.1202 25.5554 35.6231 25.3992 35.2046 25.1388C34.5244 24.7222 33.8443 24.6702 33.138 24.9566C32.9287 25.0347 32.7456 25.1128 32.5363 25.1648C32.4317 25.1909 32.3009 25.1388 32.2485 25.0867C32.2224 25.0607 32.2485 24.8785 32.3009 24.8264C33.1641 23.7329 34.2628 23.6027 35.4139 24.4098C35.937 24.7743 36.5126 25.0867 37.0619 25.4252C37.1404 25.3992 37.1665 25.4252 37.2189 25.4773Z" fill="#F1F6FA"/>
<path d="M9.09766 28.2102C9.17613 28.1061 9.22845 27.9499 9.33309 27.8718C10.0917 27.3771 10.2225 27.4552 10.4056 28.3144C10.5626 29.0173 10.798 29.6682 10.9811 30.3451C11.0073 30.4232 11.0335 30.5013 11.0596 30.5794C11.1381 30.7617 11.1119 30.97 10.9027 31.022C10.7719 31.0481 10.5364 30.97 10.4841 30.8658C10.0656 30.1889 9.64701 29.486 9.28077 28.783C9.20229 28.6528 9.17613 28.4445 9.09766 28.2102Z" fill="#F1F6FA"/>
<path d="M13.9406 27.7158C13.6006 27.7158 13.3651 27.4815 13.4174 27.1951C13.5221 26.6484 13.7837 26.1798 14.333 25.9975C14.8039 25.8413 15.3009 25.7372 15.7718 25.633C15.9026 25.607 16.0595 25.7111 16.1903 25.7632C16.138 25.8934 16.1119 26.0496 16.0072 26.1277C15.4317 26.6224 14.8562 27.065 14.2807 27.5336C14.1761 27.6117 14.0191 27.6638 13.9406 27.7158Z" fill="#F1F6FA"/>
<path d="M24.1391 35.1361C24.0345 35.058 23.7467 34.9278 23.5898 34.7196C23.1712 34.2249 23.1189 33.6521 23.3543 33.0793C23.459 32.7929 23.6683 32.6367 23.9822 32.6367C24.2961 32.6367 24.4269 32.7669 24.3484 33.0793C24.2699 33.548 24.2699 34.0166 24.5577 34.4332C24.61 34.5113 24.6362 34.6154 24.6623 34.6935C24.7408 35.0059 24.6362 35.1622 24.1391 35.1361Z" fill="#F1F6FA"/>
<path d="M36.5936 22.9258C37.1691 22.9518 37.6662 23.0299 37.9801 23.4986C38.0585 23.6027 38.1109 23.7329 38.1109 23.837C38.1893 24.3317 37.9016 24.592 37.4307 24.3838C36.986 24.1755 36.5675 23.8891 36.1227 23.6548C35.9658 23.5767 35.8088 23.4986 35.6519 23.3944C35.5734 23.3423 35.5211 23.2642 35.4688 23.2122C35.5472 23.1601 35.5995 23.082 35.678 23.056C36.0181 23.0039 36.332 22.9518 36.5936 22.9258Z" fill="#F1F6FA"/>
<path d="M32.0131 64.1641C32.0654 64.3723 32.1439 64.5806 32.1962 64.7889C32.2747 65.1794 32.3793 65.57 32.4578 65.9865C32.5101 66.325 32.4317 66.4552 32.0916 66.5333C31.7777 66.5854 31.4637 66.6374 31.1498 66.6635C30.9667 66.6895 30.8098 66.6114 30.9667 66.4031C31.3853 65.7783 31.6469 65.0753 31.8561 64.3723C31.8823 64.2942 31.9346 64.2422 31.9608 64.1901C31.9608 64.1641 31.9869 64.1641 32.0131 64.1641Z" fill="#F1F6FA"/>
<path d="M12.5766 26.5698C12.4981 26.6219 12.4196 26.7 12.315 26.726C11.9749 26.8041 11.6348 26.8302 11.2686 26.8822C11.0855 26.9083 11.007 26.8302 10.9808 26.674C10.9547 26.5438 10.9023 26.4136 10.9023 26.2834C10.9023 26.1793 10.9808 26.0491 11.0593 26.0231C11.3994 25.945 11.7394 25.8929 12.0795 25.8408C12.2626 25.8148 12.3934 25.8929 12.4196 26.0751C12.4981 26.2053 12.5242 26.3355 12.5766 26.5698Z" fill="#F1F6FA"/>
<path d="M40.308 22.8188C40.3603 23.1052 40.1772 23.2353 39.8894 23.2353C39.6017 23.2614 39.3401 23.2874 39.0523 23.2874C38.5814 23.3134 38.7646 22.9229 38.7122 22.7146C38.6599 22.4803 38.843 22.4543 39 22.4543C39.2878 22.4282 39.5493 22.4022 39.8371 22.3762C40.2818 22.3501 40.308 22.3501 40.308 22.8188Z" fill="#F1F6FA"/>
<path d="M72.4838 36.02C72.4315 35.9159 72.4054 35.8378 72.3792 35.7597C72.3269 35.5514 72.4053 35.3431 72.5885 35.291C72.7193 35.265 72.9547 35.291 73.0332 35.3691C73.1378 35.4733 73.1901 35.7336 73.1117 35.8378C73.0593 35.9679 72.8239 35.994 72.6669 36.046C72.6408 36.0721 72.5623 36.02 72.4838 36.02ZM72.5885 35.8638C72.7454 35.5253 72.8762 35.8117 73.007 35.8898C72.9024 35.3431 72.9024 35.3431 72.5885 35.3952C72.5885 35.5514 72.5885 35.7076 72.5885 35.8638Z" fill="black"/>
<path d="M72.4806 36.02C72.5591 36.046 72.6376 36.0721 72.6899 36.0461C72.8469 35.994 73.0823 35.9419 73.1346 35.8378C73.1869 35.7076 73.1346 35.4733 73.0561 35.3691C72.9777 35.265 72.7422 35.239 72.6114 35.291C72.4021 35.3431 72.3498 35.5514 72.4022 35.7597C72.4022 35.8378 72.4283 35.9159 72.4806 36.02C72.219 35.7076 72.219 35.4993 72.4283 35.291C72.6114 35.1088 72.9253 35.0827 73.1346 35.265C73.3439 35.4472 73.3701 35.7336 73.1869 35.9419C73.0038 36.1762 72.7684 36.2023 72.4806 36.02Z" fill="#F1F6FA"/>
<path d="M39.5475 60.3668C39.4428 60.1065 39.3643 59.9503 39.2597 59.7159C39.2335 59.9503 39.2335 60.1065 39.2074 60.2627C39.1812 60.2627 39.1551 60.2627 39.1289 60.2627C39.1289 59.9763 39.1289 59.7159 39.1289 59.4035C39.5213 59.3775 39.3643 59.794 39.5475 59.9242C39.7567 59.8201 39.5998 59.3514 39.9922 59.4295C39.9922 59.7159 39.9922 60.0023 39.9922 60.2627C39.966 60.2627 39.9399 60.2627 39.8875 60.2627C39.8614 60.1065 39.8614 59.9503 39.8352 59.6899C39.7044 59.9242 39.6521 60.1065 39.5475 60.3668Z" fill="black"/>
<path d="M38.61 60.3149C38.2699 60.0806 38.7146 59.5599 38.1914 59.4297C38.4268 59.4297 38.6623 59.4297 38.8977 59.4297C38.8977 59.4297 38.8977 59.4557 38.9239 59.4557C38.8454 59.4818 38.7408 59.5078 38.6361 59.5599C38.61 59.7942 38.61 60.0285 38.61 60.3149Z" fill="black"/>
<path d="M72.5898 35.8614C72.5898 35.7052 72.5898 35.549 72.5898 35.3928C72.9038 35.3407 72.9038 35.3407 73.0084 35.8874C72.8776 35.8093 72.7468 35.5229 72.5898 35.8614Z" fill="#F1F6FA"/>
</g>
<defs>
<clipPath id="clip0_5131_16096">
<rect width="73.1421" height="79.0955" fill="white" transform="translate(0.152344 0.429688)"/>
</clipPath>
</defs>
</svg>
