<svg width="117" height="81" viewBox="0 0 117 81" fill="none" xmlns="http://www.w3.org/2000/svg">
<g clip-path="url(#clip0_5131_16059)">
<path d="M30.88 45.9862C30.9861 45.3493 31.0923 44.7389 31.225 44.102C31.7026 41.6341 32.313 39.2193 33.0825 36.8044C33.1887 36.4594 33.3745 36.141 33.4275 35.796C33.4541 35.6103 33.401 35.2918 33.2418 35.1857C32.5784 34.708 31.8088 34.5223 31.0127 34.5488C30.535 34.5488 30.2696 34.8672 30.1104 35.2918C29.7654 36.3268 29.3409 37.3352 29.1286 38.3966C28.7836 39.9888 28.1467 41.4218 27.1118 42.6691C27.0587 42.7221 27.0056 42.7752 26.926 42.8814C27.1648 42.1118 27.4302 41.4218 27.5894 40.7053C27.7752 39.8296 27.9344 38.9274 27.9344 38.0251C27.9344 36.8575 27.1914 36.0879 26.183 35.6103C25.2542 35.1857 24.3785 35.398 23.662 36.141C23.1843 36.6187 22.7863 37.1759 22.3351 37.7067C21.8044 37.0433 20.9552 37.0167 20.1591 36.8575C20.0264 36.831 19.8672 36.831 19.7345 36.8044C19.0977 36.7248 18.6996 36.884 18.4608 37.4678C18.1423 38.2109 17.8504 38.9539 17.6647 39.7235C17.2401 41.581 16.8155 43.4386 16.4971 45.3227C16.1255 47.6049 15.7806 49.8871 15.5417 52.1958C15.3294 54.1064 15.3029 56.0436 15.1702 57.9542C15.1437 58.4319 15.356 58.7769 15.7275 59.0157C16.3378 59.4138 17.0278 59.5465 17.7708 59.4138C18.1689 59.3607 18.3546 59.0953 18.3812 58.6973C18.5139 56.9989 18.62 55.3271 18.7527 53.6288C18.8323 52.6469 19.018 51.6916 19.1242 50.7097C19.708 50.7097 20.2653 50.7628 20.796 50.6832C21.8044 50.5505 22.5209 49.8605 23.1313 49.144C23.7681 48.4275 24.2723 47.6049 24.9092 46.8619C25.2011 46.4904 25.5992 46.225 25.9442 45.9065C26.6076 45.2962 27.271 44.6593 27.9079 44.0224C27.8548 44.4736 27.7487 44.9512 27.7221 45.4289C27.669 46.0658 27.5629 46.7292 27.6956 47.3395C27.9875 48.6398 29.2612 49.1175 30.4289 48.4806C31.1719 48.0826 31.7292 47.4722 32.1803 46.8088C32.6049 46.1984 33.0029 45.5616 33.401 44.9247C33.4275 45.0043 33.4806 45.0574 33.5071 45.1104C34.144 46.7026 35.5239 47.2068 37.0896 47.0742C39.0003 46.9149 40.3271 45.8269 41.4151 44.3939C41.7335 43.9694 42.0254 43.5182 42.3704 43.0406C42.4235 43.1467 42.4766 43.1998 42.5296 43.2794C43.1931 44.792 44.7057 45.2697 46.0856 45.137C48.2085 44.9512 49.5354 43.6244 50.6764 42.0322C52.3483 39.6439 53.4097 36.9371 54.312 34.2038C54.3916 33.965 54.4712 33.7262 54.5508 33.4873C54.71 33.0097 54.5508 32.6647 54.1793 32.532C53.7812 32.3993 53.3567 32.6116 53.1974 33.0627C52.9851 33.6996 52.7728 34.3365 52.534 34.9734C51.7114 37.1494 50.8357 39.2723 49.4027 41.1565C48.925 41.7933 48.3943 42.3772 47.5982 42.6691C46.6694 43.0406 46.006 42.7487 45.7406 41.7933C45.6344 41.4484 45.6079 41.0768 45.5548 40.7053C45.5548 40.6257 45.6344 40.493 45.6875 40.4665C47.2267 39.9623 48.5004 39.0335 49.615 37.8659C49.6415 37.8659 49.668 37.8924 49.7211 37.8924C49.668 38.2109 49.615 38.5559 49.5354 38.8743C49.4557 39.2193 49.3761 39.5643 49.7477 39.9358C49.8273 39.4316 49.9069 39.007 49.9599 38.5824C50.0661 37.8659 50.2253 37.2025 50.6234 36.5921C51.2072 35.7164 51.5787 34.7611 51.6583 33.6996C51.6848 33.5139 51.791 33.3016 51.9237 33.1423C52.4809 32.4524 53.0117 31.7359 53.622 31.099C54.1793 30.5152 54.8958 30.1968 55.7184 30.2764C55.9307 30.3029 56.1696 30.356 56.3818 30.4356C56.7003 30.5683 56.9657 30.7806 57.2576 30.9398C57.2841 30.9133 57.3106 30.8867 57.3372 30.8602C57.2045 30.7275 57.1249 30.5683 56.9657 30.4621C56.7268 30.3029 56.6738 30.1437 56.7534 29.8518C57.6822 26.8001 58.5844 23.7483 59.5132 20.6966C59.8582 19.529 60.4154 18.5206 61.6096 17.9633C62.3526 17.6183 63.1487 17.5387 63.9448 17.5918C64.7144 17.6714 65.4574 17.8306 66.227 17.9368C66.3331 17.9633 66.4924 17.9102 66.5454 17.8306C67.8192 16.2384 69.5441 15.6015 71.5078 15.6811C74.0023 15.7608 75.621 16.9814 76.311 19.7678C76.4967 20.5374 76.5498 21.36 76.6294 22.1561C76.656 22.4215 76.7356 22.5276 77.0009 22.4746C78.885 22.1561 80.7691 22.3153 82.6267 22.8195C83.0248 22.9257 83.2105 22.8726 83.4228 22.5011C84.1659 21.2804 85.3069 20.6701 86.7134 20.6435C87.483 20.617 88.2525 20.7231 88.9956 20.7762C89.0221 20.7762 89.0752 20.8027 89.1017 20.8027C89.3671 20.8027 90.747 19.927 90.8266 19.6882C91.4104 17.9633 92.7107 17.0876 94.4091 16.7161C94.8071 16.6365 94.9929 16.4507 95.099 16.0527C95.444 14.7524 96.0809 13.5847 97.1424 12.709C97.8854 12.0987 98.7611 11.7802 99.743 11.7537C101.096 11.7006 102.344 11.9129 103.432 12.7886C104.201 13.399 104.785 14.1685 105.289 14.9912C105.448 15.23 105.608 15.4688 105.714 15.7077C105.846 16.0792 106.112 16.0792 106.43 16.0527C108.288 15.92 109.933 16.3976 111.313 17.6449C111.685 17.9898 112.083 18.0164 112.507 18.0429C113.224 18.0695 113.94 18.2021 114.577 18.5737C115.718 19.2636 116.037 20.3516 116.037 21.6254C116.01 22.8991 115.453 24.0402 115.002 25.1813C114.152 27.3308 113.118 29.4007 111.764 31.2848C110.703 32.7708 109.508 34.1242 107.863 35.0265C105.846 36.141 103.723 36.2737 101.521 35.6899C101.096 35.5837 100.804 35.5837 100.433 35.9022C99.796 36.4594 99.053 36.9636 98.31 37.3617C97.1158 37.9986 95.8686 37.9455 94.6479 37.3617C94.3295 37.2025 94.1172 37.2556 93.8783 37.4944C92.9495 38.3701 91.8881 39.007 90.6143 39.1397C90.1101 39.1927 89.6059 39.1662 89.1282 39.1131C88.8363 39.0866 88.6506 39.1397 88.4118 39.2989C87.3503 39.9888 86.2357 40.4134 84.9354 40.3869C83.8474 40.3604 82.8656 39.9623 81.9368 39.405C81.8041 39.3254 81.6449 39.2193 81.5387 39.1397C81.008 39.6969 80.5038 40.2542 79.973 40.7319C79.0973 41.528 78.0359 41.9791 76.8417 42.0587C76.7356 42.0587 76.5763 42.1914 76.4967 42.3241C75.8333 43.4917 75.0903 44.6062 74.0554 45.5085C73.2858 46.1454 72.4366 46.623 71.4547 46.8619C71.2955 46.8884 71.1363 46.8884 71.0036 46.8619C68.4296 46.3046 66.5985 44.7655 65.2186 42.616C64.9532 42.1914 64.6879 41.7668 64.396 41.2891C64.2102 41.8199 64.0775 42.2975 63.8918 42.7487C63.0957 44.8185 61.185 46.0127 58.9825 45.8004C57.7352 45.6677 56.7534 45.0574 56.0103 44.0755C55.7184 43.704 55.4531 43.2794 55.1612 42.8283C54.8693 43.2529 54.5774 43.6509 54.2854 44.049C53.3036 45.3493 52.2156 46.5434 50.8091 47.3926C48.925 48.5337 46.9082 48.7725 44.8383 48.0295C44.1484 47.7907 43.7238 47.7641 43.1665 48.3745C42.1316 49.489 40.8048 50.179 39.2656 50.4443C37.9919 50.6566 36.7977 50.4443 35.6035 50.1259C35.3647 50.0463 35.2055 50.0994 35.0197 50.232C34.2767 50.7097 33.5337 51.2404 32.7376 51.5854C31.0127 52.3815 29.3409 52.1162 27.8017 51.0281C27.5629 50.8689 27.4037 50.8689 27.1648 51.0281C25.9176 51.9039 24.6438 52.8061 23.3701 53.6288C22.9986 53.8676 22.8659 54.1329 22.8128 54.531C22.6271 56.2559 22.4148 57.9808 22.229 59.7057C22.1494 60.316 21.8044 60.7406 21.4329 61.1652C19.8142 63.0493 16.6032 63.1555 14.8783 61.3244C13.8964 60.316 13.6842 59.0688 13.8699 57.7154C13.9495 57.1316 14.1353 56.5743 14.268 55.9375C14.0822 56.0171 13.9761 56.0436 13.8434 56.0967C12.6758 56.5743 11.5347 57.1316 10.3405 57.5562C8.3768 58.2196 6.38654 58.4054 4.3432 57.8481C1.98143 57.2908 0.521906 55.8578 0.0973173 53.4695C-0.221124 51.665 0.203464 49.9401 1.10572 48.3745C1.63645 47.4722 2.29987 46.6496 2.91022 45.8269C3.0429 45.6412 3.12251 45.482 2.98983 45.2431C2.43255 44.1551 2.16719 42.9875 2.11411 41.7668C2.06104 40.5726 2.27333 39.405 2.69792 38.2905C3.97169 35.053 5.90887 32.2932 8.82792 30.3294C10.5793 29.1618 12.5165 28.4719 14.6395 28.2861C16.7093 28.1004 18.5138 28.6842 19.9203 30.2498C20.8491 31.2848 21.3002 32.532 21.4329 33.9119C21.486 34.3365 21.5921 34.6019 22.0698 34.6549C22.3086 34.6815 22.5474 34.7876 22.7863 34.8142C23.2109 34.8672 23.5824 34.7876 23.9274 34.4692C25.2807 33.1954 26.8464 32.8239 28.6244 33.4608C29.1286 33.6465 29.6328 33.8588 30.19 34.0977C30.2431 33.8058 30.2962 33.5404 30.3227 33.2485C30.5085 31.7624 30.7738 30.2764 31.3046 28.8699C31.7292 27.7288 32.313 26.6674 33.2683 25.8713C34.3298 25.0221 35.5239 24.7567 36.8508 24.9425C37.6734 25.0486 38.4961 25.2875 39.2125 25.7917C40.0883 26.402 40.5394 27.2777 40.6721 28.3127C40.7517 28.923 40.6986 29.5864 40.6986 30.1968C40.6986 30.3294 40.6986 30.4621 40.6986 30.6214C40.9905 30.6214 41.2559 30.6479 41.4947 30.6214C42.5296 30.5417 43.485 30.8336 44.3341 31.3909C44.5464 31.5236 44.6791 31.4971 44.8649 31.3113C45.5814 30.5417 46.3509 29.8518 47.3063 29.3211C49.0046 28.3657 50.756 28.3923 52.5075 29.1884C53.0382 29.4272 53.5424 29.7456 54.1528 30.0906C53.0117 30.8071 52.2686 31.789 51.5787 32.8504C51.4195 32.6116 51.3133 32.4259 51.1806 32.2401C50.3315 31.1256 48.6331 30.5152 47.439 30.8867C46.5898 31.1521 45.9264 31.6828 45.3691 32.3462C43.6973 34.2304 42.7685 36.4594 42.2643 38.8743C42.1581 39.405 42.1316 39.9358 42.052 40.4665C42.052 40.5461 42.0254 40.6257 41.9989 40.7053C41.3886 41.9526 40.6986 43.1733 39.6371 44.102C39.1595 44.5001 38.6553 44.8185 38.0184 44.8451C37.5142 44.8716 37.1427 44.6593 36.9569 44.2082C36.7977 43.8367 36.665 43.4386 36.665 43.0406C36.6119 40.2277 37.3815 37.6801 39.0268 35.398C39.2922 35.0265 39.6371 34.708 40.2209 34.6284C40.1944 34.8407 40.2209 35.053 40.1679 35.2122C39.929 36.1941 39.3983 36.9902 38.6553 37.6536C38.4961 37.7863 38.3634 37.9455 38.2838 38.1313C38.1245 38.4232 38.2041 38.7151 38.443 38.9274C38.9472 39.352 39.531 39.5908 40.1944 39.6439C40.6455 39.6704 40.964 39.4846 41.2293 39.1397C41.8928 38.2639 42.1847 37.2555 42.3439 36.1941C42.4766 35.398 42.4766 34.6284 41.9724 33.9119C40.964 32.4789 38.8145 32.2401 37.355 33.4343C36.0016 34.5223 35.1259 35.9552 34.4359 37.4944C33.7725 38.9539 33.3745 40.493 33.1622 42.0852C33.1091 42.5629 32.8172 43.0406 32.5784 43.4917C32.1007 44.3409 31.5965 45.1901 31.0923 46.0392C30.9861 46.0392 30.9331 46.0127 30.88 45.9862ZM4.07784 50.922C4.02476 51.1608 3.99823 51.3731 3.94515 51.612C3.97169 51.612 3.99823 51.6385 4.0513 51.6385C4.13091 51.2935 4.21052 50.9485 4.29013 50.577C4.39628 50.4974 4.50242 50.4178 4.5555 50.3117C5.08623 49.5686 5.72312 48.9583 6.59883 48.6664C7.18264 48.4806 7.34186 48.056 7.02342 47.4988C6.12117 45.88 4.26359 45.6677 3.0429 47.0476C1.98143 48.2418 1.31801 49.5952 1.18533 51.2139C1.10572 52.1427 1.29147 53.0184 1.90182 53.7349C2.93675 54.9556 4.31667 55.221 5.77619 55.0617C7.6603 54.876 9.35866 54.1595 10.9243 53.098C12.9677 51.7181 14.5068 49.9667 15.1437 47.5253C15.5683 45.8535 15.0641 44.447 13.7107 43.6244C12.7554 43.0406 11.6674 42.9079 10.6059 42.7221C9.73017 42.5629 8.85446 42.4568 8.05835 41.9791C7.58069 41.6607 7.23571 41.2361 7.1561 40.6523C7.07649 39.9888 7.12957 39.3254 7.3684 38.7151C8.1645 36.486 9.51788 34.6815 11.4551 33.3281C12.0389 32.9301 12.6492 32.5851 13.4188 32.7178C13.6045 32.7443 13.8168 32.6116 14.1087 32.532C13.8964 32.4524 13.7903 32.3993 13.6842 32.3462C14.1618 32.2932 14.321 32.3728 14.4537 32.7974C14.5599 33.1423 14.6129 33.4873 14.6129 33.8323C14.6129 34.0711 14.5068 34.31 14.4272 34.5488C14.4006 34.5488 14.3476 34.5223 14.321 34.5223C14.3741 34.2038 14.4537 33.8854 14.5068 33.5669C14.5599 33.1689 14.2414 33.275 14.0557 33.2485C13.8168 33.1954 13.8168 33.3546 13.8168 33.5404C13.8699 34.0446 13.7372 34.5488 13.4719 34.9734C12.9146 35.8491 12.3308 36.6983 11.7735 37.574C11.3224 38.264 10.8978 38.9804 10.6855 39.8031C10.5263 40.44 10.4997 41.0768 11.0039 41.581C11.5612 42.1649 12.2512 42.4302 13.0473 42.3506C13.3657 42.3241 13.4984 42.1383 13.578 41.7933C13.7107 41.1565 13.8168 40.5196 14.0557 39.9358C14.3741 39.1397 14.7987 38.3966 15.1968 37.6536C15.7806 36.5391 16.444 35.451 16.7093 34.1773C16.8951 33.3016 16.789 32.532 16.0194 31.9482C15.9663 31.8951 15.9132 31.8155 15.8602 31.7624C15.2498 30.754 14.2945 30.356 13.18 30.3294C11.9062 30.2764 10.7386 30.6744 9.59749 31.2317C7.44801 32.3197 5.80273 33.965 4.58203 36.0083C3.52056 37.7332 2.85714 39.5908 3.09597 41.6607C3.22866 42.6425 3.57364 43.4917 4.29013 44.1817C5.0597 44.8981 5.98848 45.2431 6.97035 45.535C8.03182 45.8535 9.06675 46.1454 10.1017 46.4904C10.7651 46.7026 11.1897 47.2068 11.2693 47.8968C11.3489 48.5602 11.0835 49.144 10.712 49.6748C9.65056 51.1078 8.1645 51.9569 6.49268 52.5142C5.90887 52.7 5.29853 52.8061 4.68818 52.6734C3.94515 52.4611 3.62671 51.612 4.07784 50.922ZM99.7695 30.2233C99.8756 30.4621 99.9287 30.6479 100.008 30.8336C100.406 31.7624 101.07 32.4259 102.052 32.6647C103.299 32.9831 104.52 32.7974 105.661 32.187C106.669 31.6298 107.439 30.8071 108.076 29.8783C110.013 27.1981 111.101 24.1464 112.136 21.0416C112.321 20.4843 111.95 20.0862 111.393 20.1659C111.021 20.2189 110.835 20.4578 110.729 20.8027C110.331 21.9173 109.96 23.0318 109.508 24.1198C108.819 25.8447 108.022 27.5165 106.828 28.9761C106.324 29.613 105.767 30.1968 104.918 30.3825C104.122 30.5683 103.591 30.3029 103.352 29.5333C103.246 29.1884 103.193 28.8169 103.14 28.4719C103.087 28.2596 103.193 28.1534 103.405 28.0473C104.148 27.7023 104.918 27.3839 105.608 26.9062C107.253 25.7651 108.5 24.3056 109.084 22.3419C109.482 20.962 109.217 19.9801 108.102 19.184C106.722 18.1756 105.263 17.9633 103.856 19.0513C103.538 19.2901 103.219 19.5555 102.954 19.8474C101.415 21.4927 100.539 23.483 99.9818 25.6324C99.8491 26.1897 99.8491 26.8266 99.5837 27.3308C98.8407 28.7372 97.9915 30.0641 97.1954 31.444C97.1423 31.5236 97.0627 31.6032 96.9301 31.7359C96.9566 31.444 96.9566 31.2317 97.0097 31.0194C97.3281 29.1618 97.62 27.2777 97.9915 25.4201C98.363 23.536 98.8142 21.6519 99.2388 19.7678C99.2918 19.582 99.3714 19.4759 99.5837 19.4228C100.459 19.2105 101.335 19.1309 102.237 19.1575C102.609 19.184 102.821 18.9982 102.795 18.6002C102.768 18.2287 102.689 17.8837 102.609 17.5387C102.503 17.0876 102.184 16.8753 101.733 16.8488C101.441 16.8488 101.176 16.8488 100.884 16.8753C100.592 16.9018 100.3 16.9284 99.9022 16.9814C100.141 16.4242 100.327 15.9465 100.566 15.5219C100.858 15.0177 100.831 14.6727 100.247 14.4604C99.7164 14.2482 99.1326 14.0624 98.5753 14.0093C97.5139 13.8766 97.1954 14.0359 96.7974 15.0443C96.4524 15.92 96.2136 16.8753 95.9482 17.8041C95.8686 18.096 95.7624 18.3083 95.444 18.3879C94.5417 18.6267 93.6395 18.9186 92.7372 19.1575C92.2596 19.2901 92.0738 19.6617 92.3392 20.0597C92.4984 20.2985 92.7638 20.5374 93.0292 20.5904C93.4272 20.6966 93.8783 20.6701 94.3029 20.6435C94.6479 20.617 94.9663 20.5374 95.3644 20.4578C95.3379 20.6435 95.3113 20.7497 95.3113 20.8824C95.099 21.9704 94.8867 23.0849 94.6744 24.1729C94.4887 25.0752 94.4356 26.0305 94.1437 26.8797C93.5068 28.7638 92.6842 30.5683 91.6227 32.2666C91.4369 32.5585 91.2512 32.8239 91.0124 33.1423C90.9858 33.0362 90.9858 33.0097 90.9858 32.9831C91.4635 30.7806 91.8881 28.578 92.4188 26.3755C92.6842 25.2609 93.1088 24.1729 93.4537 23.0584C93.6395 22.5011 93.5599 22.2357 93.0026 22.0234C92.578 21.8377 92.1004 21.705 91.6492 21.5988C90.8266 21.4396 90.3755 21.705 90.1101 22.5011C89.8978 23.138 89.7121 23.7483 89.4998 24.3852C88.7037 26.7735 87.9606 29.1884 87.1114 31.5501C86.793 32.3993 86.2888 33.1954 85.8377 34.0181C85.7315 34.2038 85.4396 34.31 85.2539 34.4427C85.2273 34.2038 85.1477 33.965 85.1743 33.7527C85.3866 32.5585 85.5723 31.3378 85.8908 30.1702C86.395 28.2065 86.9788 26.2959 87.5626 24.3587C87.7218 23.8279 87.6422 23.536 87.138 23.3237C86.7665 23.1645 86.3684 23.0318 85.9704 22.9257C85.0416 22.7134 84.5374 22.9257 84.2986 23.6687C83.874 24.9159 83.4228 26.1897 83.1309 27.4635C82.8656 28.6311 82.2818 29.5864 81.6183 30.5417C81.5653 30.6214 81.5122 30.6744 81.5122 30.6744C81.5918 29.613 81.6979 28.5249 81.7776 27.4369C81.8041 26.8797 81.6183 26.402 81.2468 26.004C80.3711 24.969 79.2035 24.8363 77.9563 24.9159C77.7705 24.9159 77.5582 24.9159 77.3459 24.8629C76.5233 24.624 75.7006 24.6771 75.0107 25.2078C74.5595 25.5528 74.1084 25.9509 73.7634 26.402C71.6405 29.0822 70.6321 32.1605 70.6056 35.5572C70.6056 36.8044 71.1628 37.8394 72.1712 38.5824C73.3919 39.4846 74.7188 39.352 76.0191 38.7416C77.6113 37.972 78.6727 36.6717 79.5485 35.1857C79.7077 34.9203 79.8404 34.6284 80.0527 34.3896C80.663 33.7262 81.2999 33.1158 81.9102 32.4789C81.9368 32.4524 81.9633 32.4524 82.0429 32.4524C82.0164 32.7443 81.9633 33.0097 81.9368 33.275C81.8837 33.9385 81.7245 34.6019 81.7776 35.2388C81.8837 36.486 83.3432 37.3882 84.5904 37.0433C85.6519 36.7514 86.3153 35.9552 86.9257 35.1061C87.1645 34.7611 87.3768 34.4161 87.6156 34.0181C87.6687 34.2304 87.6953 34.3896 87.7483 34.5488C88.0137 35.5041 88.8894 36.1145 89.8182 35.9022C90.2959 35.796 90.7735 35.5041 91.145 35.1857C91.9146 34.5753 92.4453 33.7792 92.9495 32.9301C93.1618 32.5851 93.3476 32.2401 93.5864 31.8686C93.6395 32.3728 93.666 32.8504 93.7722 33.275C94.011 34.4161 94.8867 34.9203 95.9747 34.5488C96.3728 34.4161 96.7708 34.2038 97.0627 33.9119C97.6996 33.2485 98.31 32.5055 98.8672 31.7624C99.1857 31.2582 99.4511 30.754 99.7695 30.2233ZM65.8024 32.6381C65.9086 32.5851 65.9616 32.5585 65.9882 32.5585C67.3681 32.1605 68.4561 31.2848 69.3318 30.1968C70.7648 28.4719 71.614 26.4816 72.0916 24.3056C72.3835 22.8991 72.5162 21.4662 72.0916 20.0332C71.667 18.6267 70.7117 17.8837 69.4645 17.9368C68.3499 17.9898 67.4477 18.441 66.6516 19.184C65.882 19.9005 65.3778 20.7762 64.8471 21.6519C63.7591 23.536 62.9895 25.5794 62.2996 27.6227C62.1934 27.8881 62.0873 28.18 61.9811 28.4453C61.928 28.3657 61.928 28.3127 61.9546 28.2596C62.2996 26.9858 62.618 25.712 62.9895 24.4648C63.3345 23.3237 63.6795 22.1561 64.3694 21.1477C64.5552 20.8558 64.5021 20.5639 64.1571 20.3782C63.706 20.1659 63.2283 19.9536 62.7507 19.9005C60.9992 19.6617 60.8135 19.582 60.097 21.4396C59.3274 23.483 58.8232 25.6324 58.3986 27.7819C57.9741 29.8783 57.6025 32.0013 57.2576 34.1242C57.0187 35.6103 56.8595 37.0963 56.7003 38.5824C56.6207 39.4581 56.6472 40.3338 56.6207 41.2095C56.6207 41.5545 56.7534 41.8199 57.0453 42.0056C57.7352 42.5098 58.4783 42.6425 59.3009 42.4568C59.6989 42.3771 59.9378 42.1118 60.0439 41.6872C60.6012 39.3785 61.1319 37.0698 61.6892 34.7611C61.8219 34.2038 62.0076 33.6465 62.1403 33.1158C62.273 33.222 62.3261 33.3281 62.3792 33.4343C63.7591 36.5125 65.4309 39.405 67.66 41.9526C68.1376 42.5098 68.6418 43.0406 69.1991 43.5182C69.7033 43.9694 70.0218 43.9694 70.579 43.5448C71.0036 43.1998 71.4282 42.8548 71.7997 42.4568C72.0916 42.1383 72.3835 41.7933 72.5958 41.4218C72.8081 41.0768 72.702 40.8646 72.3305 40.6523C72.0386 40.493 71.7732 40.3073 71.5344 40.095C69.6502 38.3701 68.058 36.4064 66.7047 34.2304C66.4128 33.6996 66.1208 33.1689 65.8024 32.6381ZM31.4638 32.532C31.4903 32.6912 31.5169 32.877 31.5434 33.0893C31.6761 33.8058 32.3395 34.1242 32.9764 33.7262C33.1622 33.62 33.3479 33.4608 33.5071 33.275C33.8787 32.7974 34.2767 32.3197 34.5951 31.8155C35.179 30.8602 35.7097 29.9049 36.2139 28.923C36.5589 28.233 36.2935 27.7288 35.577 27.4635C35.0728 27.3043 34.5421 27.1716 34.0379 27.0389C33.6664 26.9593 33.3479 27.0654 33.1356 27.3839C32.9233 27.7554 32.711 28.1269 32.5518 28.4984C31.9945 29.7722 31.5965 31.099 31.4638 32.532Z" fill="#F1F6FA"/>
<path d="M29.7129 33.2739C29.5006 33.1943 29.3148 33.1412 29.1291 33.0616C27.0327 32.239 25.1751 32.5574 23.5033 34.0966C23.2379 34.3354 22.3091 34.3354 22.0703 34.07C22.0172 34.017 21.9907 33.8843 21.9907 33.8047C21.858 32.5309 21.4069 31.3367 20.6638 30.2753C20.5842 30.1426 20.5311 29.9303 20.5577 29.7711C20.7965 27.7012 21.1415 25.6579 21.7518 23.6676C22.8398 20.1117 24.5117 16.8477 26.6346 13.8225C28.4656 11.2484 30.509 8.88661 32.8442 6.76367C33.5872 6.07371 34.516 5.56952 35.3917 5.03878C39.16 2.75662 43.1936 1.19095 47.5456 0.500989C50.0135 0.102937 52.508 0.0498632 55.0024 0.235621C59.8587 0.607136 64.423 2.01359 68.8281 4.03038C69.3323 4.26921 69.863 4.50804 70.3672 4.74687C70.3672 4.77341 70.3407 4.79995 70.3407 4.82649C69.8896 4.6938 69.465 4.53458 69.0139 4.4019C66.944 3.81809 64.8476 3.3935 62.7246 3.12813C59.4606 2.70354 56.2497 2.83623 53.0387 3.49965C48.5805 4.42843 44.5469 6.33908 41.0972 9.33774C37.5412 12.4425 35.0468 16.2373 33.6669 20.7486C33.2423 22.1019 32.9769 23.5084 32.7646 24.9148C32.685 25.4986 32.4727 25.9232 32.1277 26.3478C31.1724 27.542 30.6682 28.9219 30.3232 30.3814C30.0579 31.3102 29.9252 32.2655 29.7129 33.2739Z" fill="#F1F6FA"/>
<path d="M78.6183 42.4255C79.3348 41.9213 79.9983 41.4436 80.6351 40.966C80.927 40.7537 81.1659 40.4618 81.4047 40.1699C81.5639 39.9576 81.6966 39.931 81.962 40.0637C82.9438 40.6475 84.0318 40.9925 85.1995 40.966C86.4732 40.9394 87.6143 40.5149 88.6758 39.8514C88.7819 39.7984 88.8881 39.7188 88.9942 39.7188C89.4984 39.7453 89.9761 39.7984 90.5599 39.8249C90.4537 40.6741 90.3741 41.5233 90.2415 42.3724C89.4984 47.1756 87.6409 51.5276 84.9872 55.5612C83.3684 58.0026 81.5905 60.3378 79.4675 62.3812C78.6714 63.1507 77.7161 63.7876 76.7873 64.398C73.6029 66.5209 70.1531 68.1131 66.438 69.0684C64.6865 69.5196 62.9351 69.838 61.1306 69.9176C59.618 69.9707 58.1054 70.0503 56.5928 69.9707C53.7799 69.8115 51.0201 69.2807 48.3133 68.5112C46.1904 67.9008 44.1205 67.1578 42.0772 66.2821C42.0241 66.2555 41.9445 66.229 41.918 66.1494C42.7406 66.3351 43.5633 66.574 44.3859 66.7332C46.4823 67.1843 48.6052 67.5028 50.7547 67.5558C53.4084 67.6089 56.0621 67.4232 58.6627 66.8128C61.4225 66.1759 64.0497 65.1675 66.491 63.7345C69.357 62.0362 71.8249 59.8336 73.8152 57.1534C76.2831 53.8363 77.8488 50.1212 78.4857 46.0345C78.6449 44.9996 78.8041 43.9646 78.6714 42.9032C78.6714 42.6909 78.6449 42.5316 78.6183 42.4255Z" fill="#F1F6FA"/>
<path d="M85.9171 20.2703C84.8556 20.4826 83.9534 20.9072 83.3696 21.7299C82.9715 22.3137 82.5735 22.3137 81.9631 22.2075C80.8486 22.0218 79.681 21.9687 78.5399 21.8891C78.1949 21.8625 77.8234 21.8891 77.4784 21.9687C77.1069 22.0483 77.1069 21.836 77.0804 21.5972C77.0008 21.0134 76.9742 20.4296 76.8415 19.8723C76.5762 18.7047 76.125 17.6167 75.2759 16.7409C74.4532 15.8918 73.4448 15.4937 72.3037 15.308C71.1892 15.1222 70.1012 15.2549 69.0132 15.5733C68.0579 15.8652 67.2352 16.396 66.5187 17.139C66.1737 17.5105 65.6695 17.5636 65.2715 17.2717C64.0508 16.396 62.6709 15.8122 61.2644 15.2549C60.4949 14.963 59.7253 14.6976 58.9027 14.618C57.6289 14.4588 56.992 13.4504 57.1778 12.0705C57.2043 11.8051 57.2574 11.5132 57.2839 11.2478C57.3105 10.8498 57.2574 10.7702 56.8593 10.7967C56.249 10.8232 55.6121 10.8763 55.0018 10.9294C52.5604 11.2213 50.1721 11.699 47.943 12.7339C47.2795 13.0258 46.6957 13.4238 46.0589 13.7688C45.8996 13.875 45.7139 13.9546 45.5281 14.0342C44.9708 14.2465 44.4932 14.1138 44.1747 13.7157C43.7767 13.185 43.7236 12.5747 44.0686 12.097C44.5197 11.4867 45.2097 11.1948 45.8731 10.8763C47.8368 9.94752 49.9067 9.41679 52.0562 9.12488C53.7545 8.88605 55.4529 8.72683 57.1512 8.54108C57.4431 8.51454 57.5758 8.43493 57.5758 8.14302C57.6024 7.45307 57.7085 6.76311 57.7085 6.07315C57.7085 5.48934 58.08 4.93207 58.6904 4.82593C59.3007 4.71978 59.9376 4.69324 60.5214 4.77285C63.812 5.19744 67.0495 5.96701 70.1543 7.16116C73.6571 8.488 76.8681 10.2925 79.734 12.7074C80.9813 13.7688 82.202 14.8568 83.29 16.0775C84.0065 16.8736 84.4841 17.9086 85.0679 18.8373C85.3598 19.2089 85.6252 19.7131 85.9171 20.2703Z" fill="#F1F6FA"/>
<path d="M26.2383 52.4108C26.9282 51.7208 27.512 51.5616 28.4143 52.0923C29.8473 52.9415 31.4395 52.8088 32.9521 52.1454C33.7217 51.8004 34.4116 51.2962 35.1281 50.8982C35.2873 50.8186 35.4996 50.7655 35.6588 50.8186C37.6491 51.4024 39.6128 51.3228 41.4704 50.3675C41.5765 50.3144 41.7623 50.3409 41.8419 50.4205C44.1771 52.5435 46.8574 54.1091 49.7764 55.2768C50.1214 55.4094 50.4664 55.4625 50.8379 55.5421C51.8728 55.7279 52.6689 56.4444 52.5362 57.7181C52.4832 58.1693 52.4566 58.6204 52.377 59.0715C52.3239 59.39 52.4036 59.5226 52.7485 59.5226C54.0223 59.443 55.3226 59.443 56.5698 59.3104C58.3743 59.1246 60.1523 58.7 61.8507 58.0101C62.4875 57.7447 63.0979 57.4262 63.7348 57.1343C63.9205 57.0547 64.1063 56.9486 64.3186 56.8955C64.982 56.7097 65.38 56.8424 65.6985 57.3997C66.0169 57.957 65.9639 58.5939 65.5393 59.0184C64.9024 59.6553 64.0797 59.9472 63.2836 60.2657C61.4261 60.9556 59.4889 61.3006 57.5252 61.4864C55.8268 61.6456 54.1284 61.7252 52.4036 61.8313C52.0851 61.8579 51.9524 61.9375 51.9259 62.2559C51.8728 62.9459 51.7667 63.6358 51.6871 64.3258C51.6075 64.9362 51.3155 65.3873 50.6787 65.4669C50.0418 65.5465 49.3518 65.5465 48.7149 65.4404C45.7694 64.8831 42.8768 64.087 40.0905 62.9459C35.3669 60.9822 31.2537 58.1427 27.7774 54.3745C27.3528 53.9234 26.9548 53.4723 26.5567 53.0211C26.4771 52.7558 26.371 52.57 26.2383 52.4108Z" fill="#F1F6FA"/>
<path d="M19.5195 48.0006C19.5991 47.7087 19.6522 47.4168 19.7318 47.1249C20.6075 44.0997 21.8282 41.2072 23.6062 38.58C23.7389 38.3943 23.9246 38.2616 24.0839 38.1289C24.1369 38.3412 24.2431 38.58 24.2431 38.7923C24.1635 40.8622 23.6062 42.8259 22.8101 44.71C22.5182 45.4531 22.1467 46.143 21.7752 46.8595C21.6955 47.0453 21.5098 47.2045 21.324 47.2841C20.7402 47.576 20.1564 47.8148 19.5726 48.0802C19.5991 48.0537 19.5461 48.0271 19.5195 48.0006Z" fill="#F1F6FA"/>
<path d="M30.1645 64.5026C30.138 65.4314 29.5276 65.9887 29.1296 66.7582C28.8907 66.5194 28.6784 66.3336 28.5192 66.1213C28.4396 66.0152 28.4396 65.8294 28.4927 65.6968C28.6254 65.4314 28.7846 65.166 28.9703 64.9007C29.3684 64.2903 29.3153 64.0249 28.6784 63.6003C28.2538 63.9984 27.8027 64.3965 27.3251 64.8476C27.0862 64.5822 26.8474 64.3434 26.582 64.0515C27.7497 62.9369 28.8907 61.8489 30.0584 60.7344C30.8014 61.3447 31.5179 61.9551 31.9425 62.8042C32.1548 63.2288 32.0221 63.6534 31.7567 63.9984C31.4383 64.3965 31.0402 64.5822 30.536 64.5291C30.4299 64.5291 30.2972 64.5291 30.1645 64.5026ZM29.3949 62.9635C29.448 63.0962 29.5011 63.2288 29.5807 63.2819C29.8195 63.4411 30.0849 63.6534 30.3237 63.6534C30.536 63.6534 30.8014 63.3881 30.9341 63.2023C31.1198 62.9104 30.9075 62.5389 30.5891 62.2735C30.2441 61.9816 30.1114 62.247 29.9257 62.4327C29.7399 62.592 29.5807 62.7777 29.3949 62.9635Z" fill="#F1F6FA"/>
<path d="M85.4119 69.3911C86.8714 68.5685 87.0041 68.2766 86.2345 67.4274C86.1549 68.197 85.7038 68.5685 85.0138 68.7012C84.8546 68.7277 84.6423 68.7012 84.4831 68.6746C83.6604 68.4623 82.8643 67.3213 82.9705 66.4721C83.0501 65.7025 83.5012 65.331 84.4831 65.1718C84.2443 64.641 84.7484 64.588 84.9873 64.2695C85.3588 64.7207 85.7303 65.1187 86.0753 65.5433C86.4468 65.9679 86.8183 66.3925 87.1633 66.8171C87.9329 67.7459 87.8798 68.542 86.9775 69.3381C86.7652 69.5503 86.4999 69.7096 86.2345 69.8688C85.8365 70.1342 85.6772 70.0811 85.4915 69.63C85.4915 69.6034 85.4649 69.4973 85.4119 69.3911ZM85.0404 67.7193C85.518 67.7193 85.9161 67.1355 85.6507 66.7375C85.4384 66.4455 85.1465 66.1802 84.8546 65.9679C84.5096 65.7556 84.1116 65.9679 84.032 66.3394C83.8727 66.8701 84.5096 67.7193 85.0404 67.7193Z" fill="#F1F6FA"/>
<path d="M66.4121 77.0864C66.9429 77.8295 66.9163 77.9091 66.0406 78.1479C65.5895 78.2806 65.1118 78.3602 64.6342 78.3337C63.2012 78.2275 62.4051 76.7149 62.5378 75.4146C62.7235 73.7428 64.2892 73.0529 65.6691 73.159C65.9345 73.1855 66.0406 73.4774 65.9875 73.902C65.961 74.1409 65.8018 74.1143 65.6426 74.0878C64.0769 73.9816 63.3604 74.99 63.8646 76.3965C64.13 77.166 64.6342 77.4314 65.4833 77.3253C65.7753 77.2987 66.0937 77.166 66.4121 77.0864Z" fill="#F1F6FA"/>
<path d="M44.1457 72.5453C45.4461 72.9434 45.1807 72.8372 44.8357 73.7925C44.5438 74.6152 44.1988 75.3847 43.8804 76.1808C43.2966 76.1012 42.9781 75.8624 42.9516 75.4909C42.4209 75.6501 41.8901 75.6501 41.4655 75.2255C41.1206 74.8805 40.9613 74.509 41.1206 74.0314C41.3859 73.2883 41.6778 72.5718 41.9432 71.8553C41.9697 71.8023 41.9963 71.7227 41.9963 71.7227C42.2882 71.8023 42.5801 71.8819 42.872 71.988C42.9251 72.0146 42.9516 72.2534 42.9251 72.3595C42.7393 72.8637 42.5535 73.3414 42.3678 73.8191C42.3147 73.9783 42.2086 74.1906 42.2616 74.3233C42.3412 74.5356 42.5535 74.8009 42.7128 74.8009C42.8985 74.8275 43.217 74.6417 43.3231 74.456C43.5885 73.9783 43.7742 73.421 43.9865 72.9168C44.0396 72.8107 44.0927 72.678 44.1457 72.5453Z" fill="#F1F6FA"/>
<path d="M52.2449 78.3592C52.1653 78.3592 52.0857 78.3592 52.0326 78.3592C51.1835 78.3061 51.1569 78.2796 51.2365 77.4569C51.3162 76.6343 51.4223 75.7851 51.5284 74.9625C51.555 74.7502 51.6611 74.644 51.8734 74.6971C52.1123 74.7767 52.5103 74.6175 52.5103 75.1217C52.6165 75.0952 52.6961 75.0686 52.7757 75.0421C53.2799 74.7767 53.7841 74.7237 54.2617 75.0686C54.7659 75.4136 54.9252 75.9178 54.8455 76.5016C54.7659 77.1916 54.6598 77.9081 54.5536 78.6776C54.2352 78.598 53.9168 78.545 53.5983 78.4653C53.5452 78.4388 53.4922 78.2796 53.4922 78.2C53.5452 77.6162 53.6248 77.0058 53.7045 76.422C53.7575 75.9974 53.5983 75.7586 53.2268 75.7055C52.8818 75.6524 52.643 75.8117 52.5899 76.2362C52.4307 76.9262 52.3511 77.6427 52.2449 78.3592Z" fill="#F1F6FA"/>
<path d="M49.0301 77.5898C48.6055 77.8021 48.0748 77.7225 47.6237 77.2449C47.0664 76.6876 47.2787 75.6792 48.0217 75.4404C48.4463 75.3077 48.924 75.3873 49.3751 75.3607C49.4812 75.3607 49.5874 75.3077 49.6935 75.2811C49.6405 75.175 49.6405 74.9892 49.5343 74.9362C49.3486 74.83 49.1363 74.7769 48.924 74.7239C48.8444 74.6973 48.7382 74.6973 48.6321 74.6973C48.0217 74.6708 47.9952 74.6443 48.0748 74.0074C48.7913 73.8747 49.4547 73.9278 50.1181 74.2993C50.6754 74.6177 50.9142 75.1485 50.7815 75.7853C50.6489 76.4488 50.4896 77.1122 50.3304 77.7756C50.3039 77.8552 50.2243 77.9613 50.1977 77.9613C49.8262 77.8817 49.4812 77.7756 49.0301 77.5898ZM49.5078 76.3691C49.5343 76.0507 49.2955 76.0507 49.0832 76.0507C48.6055 76.0507 48.4463 76.1303 48.4463 76.4753C48.4463 76.7672 48.5525 76.953 48.8709 76.953C49.1893 76.9795 49.5078 76.6876 49.5078 76.3691Z" fill="#F1F6FA"/>
<path d="M70.3424 76.981C69.7586 77.2995 69.4137 77.2995 69.2014 77.0607C69.0421 77.2199 68.8829 77.3791 68.6972 77.5118C68.0603 77.9098 67.4234 77.7771 67.0519 77.1668C66.6273 76.5034 66.9192 75.893 67.4499 75.5215C67.7684 75.3092 68.1399 75.1765 68.5645 74.9377C68.3787 74.8316 68.2195 74.6989 68.1134 74.6989C67.8215 74.7254 67.503 74.7785 67.2642 74.9377C66.9457 75.15 66.7865 75.0704 66.6804 74.752C66.6538 74.6723 66.6273 74.6193 66.5742 74.5662C67.105 73.9028 68.4053 73.5843 69.0156 74.0089C69.281 74.1947 69.5463 74.5131 69.6525 74.805C69.9709 75.5481 70.1302 76.2646 70.3424 76.981ZM68.6706 75.7073C68.4583 75.8134 68.2726 75.9196 68.0868 76.0257C67.8745 76.1849 67.9011 76.3972 68.0072 76.6095C68.1399 76.8484 68.3256 76.8484 68.5379 76.7687C69.0156 76.6361 69.0687 76.2645 68.6706 75.7073Z" fill="#F1F6FA"/>
<path d="M39.9285 74.5645C39.557 74.3256 39.2385 74.1133 38.8405 73.8214C38.3628 73.901 37.8586 73.6357 37.5136 73.1315C37.089 72.4946 37.5932 71.5658 38.3893 71.4862C38.6547 71.4597 38.9201 71.4862 39.1854 71.5658C39.4508 71.6189 39.6896 71.7516 39.9285 71.8577C40.1408 71.5923 40.1408 71.4331 39.8489 71.2474C39.61 71.1147 39.3447 71.0085 39.0793 70.9289C38.6016 70.7697 38.5486 70.6635 38.7609 70.1328C39.4773 70.2655 40.1673 70.4247 40.698 70.9555C41.0961 71.3535 41.2288 71.7781 40.9899 72.3088C40.6715 73.0253 40.3265 73.7684 39.9285 74.5645ZM38.9997 73.1845C39.3181 73.1845 39.7427 72.8396 39.6366 72.6273C39.5304 72.4415 39.2385 72.3354 38.9997 72.2823C38.7078 72.2292 38.5486 72.415 38.522 72.7069C38.4689 72.9723 38.7078 73.1845 38.9997 73.1845Z" fill="#F1F6FA"/>
<path d="M79.947 68.4342C80.0797 68.5669 80.1859 68.6465 80.292 68.7526C80.3716 68.2219 80.6105 67.7973 81.0616 67.5585C81.4862 67.3197 81.9373 67.2931 82.2823 67.6381C82.6803 68.0096 82.9988 68.4607 83.3438 68.8853C83.5561 69.1242 83.7153 69.3895 83.901 69.6549C84.0337 69.8141 84.0337 69.9468 83.848 70.0795C83.2376 70.5306 83.2376 70.5306 82.7865 69.9203C82.5477 69.6284 82.3619 69.3099 82.1231 69.018C81.9904 68.8588 81.8312 68.6996 81.6454 68.62C81.4597 68.5669 81.1943 68.5669 81.0616 68.673C80.8493 68.8057 80.7432 69.0711 80.9024 69.3099C81.2474 69.8672 81.5923 70.3979 81.9638 70.9287C82.1496 71.1675 82.1496 71.3002 81.8842 71.4594C81.327 71.8309 81.4066 71.9901 80.9289 71.3002C80.4247 70.5837 79.894 69.8672 79.3632 69.1772C79.2306 69.018 79.2306 68.9119 79.4163 68.7792C79.6021 68.673 79.7613 68.5669 79.947 68.4342Z" fill="#F1F6FA"/>
<path d="M76.3119 74.5636C75.6485 75.1474 74.9585 75.572 74.0828 75.5189C73.2602 75.4658 72.5171 74.4309 72.5437 73.449C72.5702 72.4672 73.3663 71.7242 74.3216 71.7507C74.9585 71.7772 75.7015 72.4937 75.8873 73.2898C75.2239 73.6083 74.5339 73.9267 73.844 74.2186C74.242 74.7759 74.587 74.7228 75.8077 73.9532C75.9669 74.1655 76.1261 74.3513 76.3119 74.5636ZM74.6931 73.051C74.4808 72.6529 74.1624 72.5203 73.8705 72.6264C73.5521 72.7326 73.4194 72.9979 73.499 73.5287C73.9236 73.3429 74.2951 73.1837 74.6931 73.051Z" fill="#F1F6FA"/>
<path d="M31.0664 66.7599C30.8541 67.1579 30.9603 67.609 31.3318 67.9275C31.5175 68.0867 31.7033 68.2194 31.889 68.3255C32.2075 68.4848 32.0483 68.6705 31.9687 68.8828C31.8625 69.1216 31.7298 69.1216 31.5441 68.989C30.8541 68.5644 30.1642 68.1132 29.9784 67.2375C29.9253 66.9722 29.9784 66.6803 30.058 66.4149C30.3499 65.5126 31.3318 64.9023 32.1544 65.088C32.8709 65.2473 33.4282 65.6984 33.6139 66.3883C33.7997 67.0518 33.4016 67.5825 32.9771 68.0602C32.7913 68.2725 32.6851 68.0867 32.5525 67.9806C32.0748 67.5825 31.5706 67.1845 31.0664 66.7599ZM32.3667 67.1314C32.7913 66.7068 32.8444 66.3618 32.6586 66.1495C32.3667 65.8311 31.9952 65.8311 31.491 66.2291C31.7829 66.5476 32.0748 66.8395 32.3667 67.1314Z" fill="#F1F6FA"/>
<path d="M45.6602 39.0867C46.0317 37.0964 46.5889 35.1858 47.8892 33.5405C47.9954 33.4078 48.1281 33.2752 48.2873 33.169C48.5527 32.9832 48.7384 33.0629 48.7384 33.3813C48.7384 33.6997 48.7384 34.0447 48.6588 34.3632C48.3669 36.0615 47.677 37.5476 46.3766 38.6887C46.1909 38.8744 45.9521 39.0071 45.7398 39.1398C45.7132 39.1398 45.6867 39.1132 45.6602 39.0867Z" fill="#F1F6FA"/>
<path d="M57.4181 77.9635C57.4446 78.0431 57.4446 78.0697 57.4446 78.0962C57.5508 78.7862 57.3915 78.9454 56.675 78.8658C56.1178 78.8127 55.6932 78.3881 55.6401 77.8043C55.6136 77.3001 55.6401 76.7694 55.6401 76.2652C55.6401 76.0529 55.587 75.9467 55.3747 75.8406C55.2421 75.761 55.2155 75.4425 55.1094 75.1506C55.6666 75.2302 55.7463 74.9649 55.7197 74.6199C55.7197 74.5403 55.7993 74.3811 55.8524 74.3811C56.1178 74.3015 56.4097 74.2484 56.7281 74.1953C56.7547 74.3015 56.7812 74.4076 56.7812 74.4872C56.7547 74.9118 56.8077 75.2833 57.3915 75.2568C57.4446 75.2568 57.5508 75.6018 57.5508 75.7875C57.5508 75.8671 57.3915 75.9998 57.3119 76.0529C57.1792 76.106 56.9935 76.0529 56.7547 76.0529C56.7547 76.5571 56.7281 77.0613 56.7547 77.5655C56.7812 77.8839 57.0731 77.9635 57.4181 77.9635Z" fill="#F1F6FA"/>
<path d="M72.1178 73.426C72.0648 73.4791 72.0382 73.5056 72.0382 73.5056C71.3748 73.7975 71.3748 73.7975 71.6402 74.4875C71.6933 74.6467 71.7463 74.8059 71.8259 74.9651C72.0382 75.5224 72.0913 75.5489 72.6486 75.3632C72.6751 75.3632 72.7016 75.3897 72.7016 75.4162C72.7547 75.6816 73.1793 75.8674 72.8874 76.1593C72.4894 76.5573 71.7729 76.6369 71.4544 76.3185C71.2156 76.0797 71.0298 75.7878 70.8706 75.4959C70.7114 75.2039 70.6583 74.8855 70.5256 74.5671C70.446 74.3282 70.3133 74.1955 70.0214 74.1159C69.8357 74.0629 69.7295 73.7444 69.5703 73.5321C69.7826 73.426 69.9153 73.3464 70.0214 73.2933C69.9684 73.0279 69.8091 72.7095 69.8887 72.5768C70.048 72.338 70.3664 72.2053 70.6318 72.0195C70.7379 72.2318 70.8706 72.391 70.9237 72.5503C71.0298 72.8952 71.2156 72.9483 71.5075 72.7891C71.5606 72.7626 71.6402 72.736 71.7463 72.7095C71.9055 72.9749 72.0117 73.2137 72.1178 73.426Z" fill="#F1F6FA"/>
<path d="M36.2672 69.0694C36.5326 68.4856 36.5591 68.4591 37.1164 68.6979C37.1694 68.6448 37.196 68.5918 37.2491 68.5387C37.3552 68.406 37.4879 68.1406 37.594 68.1406C37.8859 68.1672 38.1513 68.2998 38.4167 68.4325C38.4698 68.4591 38.4698 68.6714 38.4167 68.751C38.3371 68.9367 38.2044 69.0694 38.0982 69.2286C38.284 69.4144 38.5228 69.6002 38.6024 69.8124C38.6555 69.9717 38.4167 70.2105 38.3105 70.4228C38.0452 70.2901 37.8329 70.184 37.5675 70.0513C37.3021 70.4759 37.0368 70.8739 36.7979 71.272C36.6387 71.5373 36.7979 71.7496 36.9837 71.9354C37.3021 72.2538 36.9306 72.4131 36.851 72.6253C36.7449 72.8642 36.5856 72.705 36.453 72.6253C36.2672 72.5192 36.0814 72.3865 35.9222 72.2273C35.5772 71.9354 35.4711 71.5639 35.6569 71.1393C35.8691 70.6882 36.1345 70.2636 36.3999 69.839C36.6653 69.3879 36.6653 69.3879 36.2672 69.0694Z" fill="#F1F6FA"/>
<path d="M32.9764 69.0737C33.2153 69.339 33.4276 69.6044 33.6399 69.8432C33.7991 70.0024 33.9848 70.0821 34.1971 69.8963C34.4094 69.7105 34.3033 69.5513 34.1971 69.3656C34.0645 69.0737 33.8787 68.8083 33.7991 68.5164C33.6133 67.9326 34.0379 67.3753 34.6748 67.3488C35.3382 67.3222 36.0282 67.7734 36.4528 68.5164C36.2935 68.6491 36.1078 68.7818 35.9751 68.8879C35.7097 68.6756 35.4974 68.4633 35.2586 68.3041C35.179 68.251 35.0463 68.2775 34.9136 68.2775C34.9136 68.4102 34.8606 68.5429 34.9136 68.6491C34.9932 68.8614 35.0994 69.0471 35.2055 69.2329C35.4709 69.7371 35.4178 70.1617 35.0463 70.5863C34.7279 70.9047 34.1441 71.0374 33.7195 70.7455C33.2949 70.4536 32.9499 70.0555 32.5784 69.684C32.5253 69.6309 32.5519 69.4452 32.6315 69.3656C32.7111 69.2329 32.8438 69.1798 32.9764 69.0737Z" fill="#F1F6FA"/>
<path d="M59.6996 73.2648C59.9384 73.2648 60.1242 73.2383 60.3895 73.2383C60.4426 73.5567 60.4957 73.8486 60.4957 74.1405C60.5753 76.1573 60.6284 78.1741 60.708 80.2175C60.708 80.4297 60.7345 80.6686 60.4161 80.642C60.1773 80.6155 59.9119 80.642 59.9119 80.2705C59.8323 78.0149 59.7527 75.7327 59.6996 73.4771C59.6731 73.3975 59.6731 73.3444 59.6996 73.2648Z" fill="#F1F6FA"/>
<path d="M47.6495 74.6978C46.7207 74.4589 46.535 74.5651 46.2431 75.4408C46.1104 75.8123 46.0042 76.2104 45.8715 76.5819C45.845 76.6615 45.7919 76.7411 45.7389 76.8738C45.4204 76.7411 45.102 76.6084 44.7305 76.4492C44.9958 75.6796 45.2347 74.9366 45.4735 74.2201C45.5266 74.0343 45.5796 73.822 45.6593 73.6363C45.7389 73.4771 45.6327 73.1586 45.9512 73.1852C46.3492 73.1852 46.6146 73.3975 46.6677 73.7424C46.9065 73.6894 47.1453 73.6363 47.3576 73.6363C47.7822 73.6097 47.9149 73.769 47.7822 74.1936C47.8087 74.3262 47.7291 74.4855 47.6495 74.6978Z" fill="#F1F6FA"/>
<path d="M75.6211 71.0615C75.8865 70.9288 76.1253 70.8226 76.3641 70.7165C76.4703 70.8492 76.5499 70.9553 76.6826 71.1145C76.7887 70.8757 76.8418 70.6634 76.9479 70.4777C77.0541 70.3184 77.2398 70.1858 77.4521 70C77.6644 70.345 77.8236 70.6104 77.9829 70.8757C77.9563 70.9288 77.9298 70.9553 77.9298 70.9553C77.1868 71.4065 77.1337 71.5922 77.5052 72.3618C77.744 72.8129 77.9563 73.264 78.1686 73.7152C78.1421 73.7417 78.1421 73.7682 78.1421 73.7682C77.3194 74.352 77.2398 74.3255 76.8152 73.4498C76.4437 72.7068 76.0722 71.9903 75.7007 71.2738C75.7007 71.2207 75.6742 71.1676 75.6211 71.0615Z" fill="#F1F6FA"/>
<path d="M77.7188 69.869C78.0372 69.6832 78.3026 69.4975 78.621 69.2852C79.2844 70.3201 79.9213 71.302 80.5847 72.3369C80.3194 72.4961 80.1071 72.6553 79.8682 72.788C79.7886 72.8145 79.6294 72.7615 79.5763 72.7084C78.9394 71.7796 78.3291 70.8508 77.7188 69.869Z" fill="#F1F6FA"/>
<path d="M77.6385 68.168C77.9304 68.168 78.2223 68.4864 78.2223 68.7783C78.2223 69.0172 77.8773 69.3356 77.612 69.3091C77.3731 69.3091 77.0547 68.9641 77.0547 68.7252C77.0547 68.4333 77.3466 68.168 77.6385 68.168Z" fill="#F1F6FA"/>
<path d="M78.0886 28.2035C77.9294 30.6449 77.3986 32.927 76.3106 35.0765C76.2045 35.2623 75.9922 35.448 75.8064 35.5542C75.4349 35.7665 75.0369 35.9257 74.6388 36.0849C74.2142 36.2441 74.1346 36.2176 74.1346 35.793C74.1081 34.9173 74.055 34.015 74.1612 33.1393C74.3735 31.3879 74.8776 29.7161 75.833 28.2035C76.1249 27.7523 76.4964 27.3278 76.8679 26.9297C77.3986 26.399 77.8498 26.5582 78.009 27.3012C78.0355 27.6197 78.0355 27.9381 78.0886 28.2035Z" fill="#F1F6FA"/>
<path d="M103.246 26.6676C103.273 26.4553 103.273 26.2695 103.326 26.1103C103.644 24.4916 104.175 22.9259 105.104 21.546C105.289 21.2806 105.502 21.0418 105.714 20.8295C105.82 20.7233 106.006 20.6703 106.139 20.6172C106.192 20.7764 106.271 20.9356 106.271 21.0683C106.298 21.9706 106.059 22.8197 105.714 23.6158C105.263 24.7039 104.653 25.6857 103.697 26.4022C103.591 26.4818 103.485 26.5349 103.405 26.6145C103.405 26.641 103.352 26.641 103.246 26.6676Z" fill="#F1F6FA"/>
<path d="M63.0156 30.2731C63.1748 29.7955 63.3341 29.2647 63.5198 28.734C64.1832 26.7437 64.8732 24.7535 65.8816 22.9225C66.2266 22.2856 66.6512 21.7018 67.0758 21.1179C67.2084 20.9322 67.4207 20.7995 67.6065 20.6668C68.0045 20.428 68.323 20.5076 68.4557 20.9587C68.5884 21.3833 68.6945 21.861 68.6945 22.3121C68.668 24.8331 67.978 27.1949 66.4919 29.2647C66.1204 29.7955 65.6162 30.2731 64.9793 30.512C64.8732 30.5385 64.7671 30.6181 64.6609 30.5916C64.1567 30.512 63.5994 30.3793 63.0156 30.2731Z" fill="#F1F6FA"/>
</g>
<defs>
<clipPath id="clip0_5131_16059">
<rect width="116.045" height="80.4861" fill="white" transform="translate(-0.0078125 0.132812)"/>
</clipPath>
</defs>
</svg>
