<svg width="74" height="80" viewBox="0 0 74 80" fill="none" xmlns="http://www.w3.org/2000/svg">
<g clip-path="url(#clip0_5131_16219)">
<path d="M4.68652 4.44284C9.41539 3.2602 13.4911 2.05129 17.6713 1.23659C28.148 -0.76075 38.5463 -0.655627 48.4482 3.73326C62.687 10.0669 70.5249 21.3676 72.6673 36.6893C74.1826 47.6484 71.8835 57.7665 64.9861 66.5705C59.2645 73.9028 51.4004 77.5821 42.5436 79.2116C30.9957 81.3403 20.4668 78.6071 11.7668 70.7754C1.05495 61.183 -1.32255 48.831 2.59641 35.2701C3.82435 30.9864 6.22797 27.0443 8.08294 22.9445C8.2397 22.6291 8.44871 22.34 8.63159 22.0247C12.7073 15.1917 12.4199 12.7738 6.95951 6.88695C6.38473 6.30877 5.80995 5.67803 4.68652 4.44284ZM10.9046 4.81077C15.4767 11.3021 15.738 14.5346 12.3938 21.3939C10.9046 24.4425 9.28475 27.4122 7.7433 30.4082C1.73424 42.1294 1.29009 53.7718 9.10187 64.7834C17.201 76.1893 32.6156 80.7621 46.4103 76.5835C60.4401 72.326 68.6438 63.0489 70.3159 48.3842C71.7529 35.6118 67.1807 24.8367 58.5329 15.6647C56.4167 13.4046 53.9347 11.4861 51.6356 9.4099C51.4527 9.56758 51.2698 9.75155 51.113 9.90923C51.6617 11.013 52.2626 12.1168 52.7329 13.2469C53.2031 14.4032 53.9086 15.6384 52.4455 17.0313C50.1986 12.7476 46.7761 10.0406 42.5175 7.85933C42.622 9.6727 42.7004 11.1181 42.7787 12.5636C42.5175 12.7213 42.2562 12.879 41.9949 13.0366C38.494 9.93551 33.948 8.25354 31.3093 3.8121C29.3498 7.2286 31.8057 10.6188 31.1003 13.7199C27.4164 10.6188 23.8894 7.62281 20.3623 4.60052C20.2056 4.75821 20.0488 4.91589 19.8921 5.07358C21.3813 7.96446 23.2101 10.7502 22.2957 14.3507C19.5263 10.1458 15.8425 7.14975 10.9046 4.81077Z" fill="#F1F6FA"/>
<path d="M65.2738 30.2507C64.4116 30.0667 63.5495 29.909 62.7134 29.6988C58.8467 28.7264 54.98 27.754 51.1133 26.7553C50.9827 26.7291 50.8259 26.7028 50.6953 26.7028C48.3439 26.6239 45.7835 26.44 44.5556 28.8841C43.406 31.1442 44.843 33.1941 46.2538 34.8235C49.0755 38.0561 52.1845 41.0258 55.0061 44.232C56.8872 46.3871 58.7422 48.6735 60.1792 51.1176C62.1386 54.4553 61.6684 57.5827 58.7683 60.1056C56.417 62.1555 53.6737 63.7849 51.0349 65.4932C50.5385 65.8085 49.6241 65.4932 48.9187 65.4932C49.1277 64.8887 49.2061 64.1529 49.5719 63.6535C53.8043 57.7666 54.1178 52.8784 49.4151 47.2806C45.6006 42.734 41.0285 38.8182 36.5871 34.8235C32.642 31.2756 32.851 27.4912 37.7105 25.2311C43.7979 22.3927 50.1728 22.7081 56.4431 24.4952C59.0818 25.2573 61.5116 26.8079 64.0459 28.0168C64.7251 28.3322 65.4044 28.7001 66.0837 29.0418C65.7963 29.436 65.5351 29.8302 65.2738 30.2507Z" fill="#F1F6FA"/>
<path d="M25.7172 64.7567C26.0046 64.2574 26.2658 63.7055 26.6055 63.2324C31.0469 57.3193 31.3082 52.1157 26.501 46.5442C22.6604 42.1027 18.1667 38.2132 13.7774 34.2973C9.83235 30.7494 10.172 26.6759 15.0576 24.5735C21.6937 21.7089 28.4343 22.2608 35.3317 24.4158C34.3911 26.1766 33.5028 27.1227 31.3605 26.7022C29.0091 26.2554 26.4748 26.2029 24.0973 26.5445C21.6153 26.9125 20.6487 28.8835 21.7721 31.1437C22.8171 33.2461 24.2018 35.2434 25.7694 37.0305C28.6956 40.3682 31.9614 43.3905 34.8353 46.7281C40.2434 53.0355 39.747 57.0039 33.0848 62.0235C31.7524 63.0222 30.3154 63.942 28.8262 64.7304C28.0163 65.1509 27.0496 65.2035 26.1352 65.44C26.0046 65.2035 25.8478 64.967 25.7172 64.7567Z" fill="#F1F6FA"/>
<path d="M49.4679 55.1117C48.4751 51.0119 45.3138 48.7255 42.3615 46.2551C39.3047 43.7059 36.1434 41.2092 33.374 38.3709C32.0938 37.0568 31.4407 34.9807 30.9182 33.141C30.5001 31.7219 29.9515 31.0648 28.5145 31.1437C27.3388 31.2225 26.137 31.3539 24.9613 31.3014C24.5172 31.2751 24.0731 30.802 23.6289 30.5392C23.9685 30.0662 24.2821 29.2252 24.6217 29.1989C26.6334 29.1201 28.6452 29.1989 30.6569 29.3566C30.9704 29.3829 31.4929 30.0136 31.4668 30.329C31.2317 33.2461 33.1128 35.1121 34.8632 36.8466C38.4425 40.4208 42.257 43.7321 45.9147 47.2275C47.012 48.2787 48.0832 49.4614 48.867 50.7754C49.5724 51.9843 49.8075 53.4297 50.2778 54.7701C49.9904 54.9015 49.7291 55.0066 49.4679 55.1117Z" fill="#F1F6FA"/>
<path d="M26.8959 54.2495C24.3616 48.3889 18.6138 45.8134 14.4598 41.661C12.5003 39.69 10.7498 37.4824 9.12998 35.2222C8.50294 34.3287 8.42456 33.0409 8.39844 31.832C10.0967 33.7768 11.6904 35.853 13.5453 37.6401C16.8634 40.8726 20.4427 43.8423 23.7085 47.1274C25.6157 48.9934 27.5752 51.0695 26.8959 54.2495Z" fill="#F1F6FA"/>
<path d="M66.9469 32.8269C66.7902 34.2986 65.7451 35.1921 64.0208 34.9819C62.5838 34.7979 61.1208 34.43 59.7883 33.9044C56.0522 32.4064 52.3162 31.1449 48.1621 31.8545C47.6396 31.9596 46.9603 31.2237 46.3594 30.8821C46.908 30.4353 47.4567 29.5681 47.9792 29.5943C50.1216 29.6206 52.3162 29.7257 54.4063 30.1462C56.6532 30.593 58.7955 31.5917 61.0424 32.1173C62.8712 32.5115 64.8046 32.5903 66.9469 32.8269Z" fill="#F1F6FA"/>
<path d="M62.9772 58.6562C61.9844 60.3645 61.1745 62.2304 59.9465 63.7284C57.0726 67.1975 53.7285 70.0621 49.1041 70.8768C46.4392 71.3499 45.4725 70.2986 45.9689 67.4603C48.3464 69.8519 50.8023 68.8269 52.814 67.3289C56.315 64.6483 59.5024 61.6523 62.9772 58.6562Z" fill="#F1F6FA"/>
<path d="M39.7739 58.6055C38.4415 63.6251 31.6487 69.7485 26.1882 70.4581C23.6017 70.7997 22.7134 69.8536 23.2098 67.1204C25.6135 69.2229 28.0432 68.4607 30.0811 66.8576C33.5559 64.177 36.7433 61.2073 39.7739 58.6055Z" fill="#F1F6FA"/>
</g>
<defs>
<clipPath id="clip0_5131_16219">
<rect width="72.2916" height="79.946" fill="white" transform="translate(0.820312 0.00390625)"/>
</clipPath>
</defs>
</svg>
