<svg width="24" height="25" viewBox="0 0 24 25" fill="none" xmlns="http://www.w3.org/2000/svg">
<path d="M13.8 24.1273C19.5732 23.2585 24 18.2773 24 12.2617C24 5.63412 18.6276 0.261719 12 0.261719C5.3724 0.261719 0 5.63412 0 12.2617C0 18.2773 4.4268 23.2597 10.2 24.1273V15.8617H8.4C7.92261 15.8617 7.46477 15.6721 7.12721 15.3345C6.78964 14.9969 6.6 14.5391 6.6 14.0617C6.6 13.5843 6.78964 13.1265 7.12721 12.7889C7.46477 12.4514 7.92261 12.2617 8.4 12.2617H10.2V9.86172C10.2 8.74781 10.6425 7.67952 11.4302 6.89187C12.2178 6.10422 13.2861 5.66172 14.4 5.66172H15C15.4774 5.66172 15.9352 5.85136 16.2728 6.18893C16.6104 6.52649 16.8 6.98433 16.8 7.46172C16.8 7.93911 16.6104 8.39695 16.2728 8.73451C15.9352 9.07208 15.4774 9.26172 15 9.26172H14.4C14.2409 9.26172 14.0883 9.32493 13.9757 9.43745C13.8632 9.54998 13.8 9.70259 13.8 9.86172V12.2617H15.6C16.0774 12.2617 16.5352 12.4514 16.8728 12.7889C17.2104 13.1265 17.4 13.5843 17.4 14.0617C17.4 14.5391 17.2104 14.9969 16.8728 15.3345C16.5352 15.6721 16.0774 15.8617 15.6 15.8617H13.8V24.1273Z" fill="#FF7834"/>
</svg>
