<svg width="24" height="25" viewBox="0 0 24 25" fill="none" xmlns="http://www.w3.org/2000/svg">
<path d="M13.9334 12.4214C13.9261 12.8015 13.8062 13.171 13.5887 13.4829C13.3713 13.7948 13.0661 14.0351 12.712 14.1733C12.3578 14.3116 11.9705 14.3416 11.5993 14.2595C11.228 14.1775 10.8895 13.987 10.6266 13.7123C10.3638 13.4377 10.1883 13.0911 10.1226 12.7166C10.0569 12.3421 10.1039 11.9566 10.2576 11.6088C10.4112 11.261 10.6647 10.9667 10.9858 10.7632C11.307 10.5596 11.6813 10.456 12.0614 10.4654C12.5665 10.4841 13.0444 10.6988 13.3938 11.064C13.7433 11.4291 13.9368 11.916 13.9334 12.4214Z" fill="#FF7834"/>
<path d="M15.3137 6.41016H8.80377C8.15962 6.41016 7.54185 6.66604 7.08637 7.12153C6.63089 7.57701 6.375 8.19478 6.375 8.83893V15.4952C6.375 15.8142 6.43782 16.13 6.55988 16.4247C6.68194 16.7194 6.86084 16.9871 7.08637 17.2126C7.3119 17.4382 7.57965 17.6171 7.87432 17.7391C8.16899 17.8612 8.48482 17.924 8.80377 17.924H15.3137C15.6326 17.924 15.9485 17.8612 16.2431 17.7391C16.5378 17.6171 16.8056 17.4382 17.0311 17.2126C17.2566 16.9871 17.4355 16.7194 17.5576 16.4247C17.6796 16.13 17.7425 15.8142 17.7425 15.4952V8.85093C17.7437 8.53106 17.6818 8.21408 17.5604 7.91816C17.4389 7.62225 17.2603 7.35321 17.0346 7.12647C16.809 6.89973 16.5409 6.71974 16.2455 6.59682C15.9502 6.4739 15.6336 6.41047 15.3137 6.41016ZM12.0581 15.6776C11.4137 15.6922 10.7795 15.5144 10.2366 15.1669C9.69366 14.8195 9.26655 14.3182 9.00979 13.7269C8.75303 13.1356 8.67826 12.4813 8.79503 11.8474C8.91179 11.2134 9.21479 10.6287 9.66536 10.1677C10.1159 9.70672 10.6936 9.39045 11.3247 9.25925C11.9558 9.12804 12.6117 9.18786 13.2087 9.43106C13.8056 9.67426 14.3166 10.0898 14.6764 10.6247C15.0361 11.1596 15.2283 11.7895 15.2285 12.4341C15.2334 12.8553 15.1553 13.2733 14.9986 13.6642C14.8419 14.0552 14.6097 14.4115 14.3153 14.7127C14.0209 15.0139 13.67 15.2542 13.2827 15.4197C12.8954 15.5853 12.4793 15.6729 12.0581 15.6776ZM15.5813 9.19172C15.5021 9.19174 15.4237 9.17595 15.3507 9.1453C15.2777 9.11464 15.2115 9.06972 15.1561 9.01317C15.1007 8.95663 15.0571 8.88959 15.0279 8.81599C14.9987 8.74238 14.9845 8.6637 14.9861 8.58453C14.9861 8.42349 15.0501 8.26905 15.1639 8.15518C15.2778 8.04131 15.4322 7.97734 15.5933 7.97734C15.7543 7.97734 15.9088 8.04131 16.0226 8.15518C16.1365 8.26905 16.2005 8.42349 16.2005 8.58453C16.2029 8.67025 16.1867 8.75548 16.1531 8.83437C16.1195 8.91326 16.0692 8.98396 16.0057 9.04163C15.9423 9.09929 15.8671 9.14255 15.7853 9.16846C15.7036 9.19437 15.6172 9.2023 15.5321 9.19172H15.5813Z" fill="#FF7834"/>
<path d="M12.06 0.129056C8.87744 0.113144 5.81891 1.36215 3.55725 3.60131C1.29559 5.84046 0.016063 8.88635 0.000150207 12.0689C-0.0157626 15.2515 1.23324 18.31 3.4724 20.5717C5.71156 22.8333 8.75744 24.1128 11.94 24.1288C13.5158 24.1366 15.0778 23.8341 16.5367 23.2383C17.9956 22.6425 19.3229 21.7652 20.4428 20.6565C21.5626 19.5478 22.4531 18.2294 23.0635 16.7765C23.6738 15.3236 23.992 13.7647 23.9999 12.1889C24.0077 10.6131 23.7051 9.0511 23.1094 7.5922C22.5136 6.13329 21.6363 4.80602 20.5276 3.68616C19.4189 2.5663 18.1005 1.67578 16.6476 1.06545C15.1947 0.455123 13.6358 0.136936 12.06 0.129056ZM19.3475 15.3713C19.3509 15.9096 19.2473 16.4433 19.0429 16.9413C18.8384 17.4394 18.5372 17.8919 18.1565 18.2726C17.7759 18.6533 17.3235 18.9547 16.8255 19.1593C16.3275 19.3639 15.7939 19.4676 15.2556 19.4644H8.86684C8.32858 19.4674 7.79506 19.3637 7.29717 19.1591C6.79928 18.9546 6.3469 18.6533 5.96623 18.2727C5.58556 17.8922 5.28415 17.4399 5.07945 16.942C4.87475 16.4442 4.77083 15.9107 4.77369 15.3725V8.98255C4.77035 8.44419 4.8739 7.91053 5.07834 7.4125C5.28278 6.91446 5.58404 6.46196 5.96467 6.08122C6.34529 5.70049 6.7977 5.39909 7.29568 5.1945C7.79365 4.98992 8.32729 4.88621 8.86564 4.8894H15.2556C15.7938 4.88621 16.3273 4.98988 16.8252 5.19439C17.3231 5.3989 17.7755 5.70019 18.1561 6.0808C18.5367 6.46141 18.838 6.91377 19.0425 7.41166C19.247 7.90956 19.3507 8.44309 19.3475 8.98135V15.3713Z" fill="#FF7834"/>
</svg>
