<svg width="27" height="27" viewBox="0 0 27 27" fill="none" xmlns="http://www.w3.org/2000/svg">
<rect y="0.636719" width="26.25" height="26.2507" rx="13.125" fill="#FF7834"/>
<path d="M13.125 13.4806C12.752 13.4806 12.3944 13.3325 12.1306 13.0687C11.8669 12.805 11.7188 12.4473 11.7188 12.0743C11.7188 11.7014 11.8669 11.3437 12.1306 11.0799C12.3944 10.8162 12.752 10.668 13.125 10.668C13.498 10.668 13.8556 10.8162 14.1194 11.0799C14.3831 11.3437 14.5312 11.7014 14.5312 12.0743C14.5312 12.259 14.4949 12.4419 14.4242 12.6125C14.3535 12.7831 14.25 12.9381 14.1194 13.0687C13.9888 13.1993 13.8338 13.3029 13.6631 13.3736C13.4925 13.4442 13.3097 13.4806 13.125 13.4806ZM13.125 8.13672C12.0807 8.13672 11.0792 8.55157 10.3408 9.29002C9.60234 10.0285 9.1875 11.03 9.1875 12.0743C9.1875 15.0275 13.125 19.387 13.125 19.387C13.125 19.387 17.0625 15.0275 17.0625 12.0743C17.0625 11.03 16.6477 10.0285 15.9092 9.29002C15.1708 8.55157 14.1693 8.13672 13.125 8.13672Z" fill="#073126"/>
</svg>
