<svg width="27" height="27" viewBox="0 0 27 27" fill="none" xmlns="http://www.w3.org/2000/svg">
<rect y="0.511719" width="26.25" height="26.2507" rx="13.125" fill="#FF7834"/>
<path d="M9.64144 7.28088L10.731 6.95237C11.0906 6.84413 11.4773 6.87039 11.8189 7.02627C12.1606 7.18214 12.4339 7.45698 12.5878 7.79952L13.3517 9.49832C13.4843 9.79304 13.5212 10.1219 13.4574 10.4387C13.3935 10.7555 13.232 11.0443 12.9956 11.2646L11.8329 12.348C11.6771 12.496 11.7953 13.0725 12.3645 14.0592C12.9343 15.0464 13.3748 15.4368 13.5778 15.3761L15.1011 14.9103C15.4098 14.8158 15.7404 14.8204 16.0465 14.9233C16.3525 15.0262 16.6187 15.2223 16.8077 15.4841L17.8933 16.9888C18.1126 17.2926 18.2141 17.6658 18.1791 18.0388C18.144 18.4119 17.9747 18.7596 17.7026 19.0172L16.8634 19.8121C16.5925 20.0686 16.2583 20.2487 15.8951 20.334C15.5318 20.4193 15.1524 20.4067 14.7956 20.2975C13.0373 19.7592 11.4088 18.1616 9.88838 15.5274C8.36457 12.8892 7.78913 10.6639 8.19019 8.8458C8.27108 8.47947 8.44821 8.14133 8.7033 7.86625C8.9584 7.59118 9.28224 7.38911 9.64144 7.28088Z" fill="#073126"/>
</svg>
