<svg width="24" height="25" viewBox="0 0 24 25" fill="none" xmlns="http://www.w3.org/2000/svg">
<path d="M12 0.128906C18.6343 0.128906 24 5.49462 24 12.1289C24 18.7632 18.6343 24.1289 12 24.1289C5.36571 24.1289 0 18.7632 0 12.1289C0 5.49462 5.36571 0.128906 12 0.128906ZM9.80571 18.4546C15.12 18.4546 18.0343 14.0489 18.0343 10.226V9.84891C18.6 9.43748 19.0971 8.92319 19.4743 8.34033C18.96 8.56319 18.3943 8.71748 17.8114 8.80319C18.4114 8.44319 18.8743 7.87748 19.08 7.20891C18.5143 7.53462 17.8971 7.77462 17.2457 7.91176C16.7143 7.34605 15.96 7.00319 15.1371 7.00319C13.5429 7.00319 12.24 8.30605 12.24 9.90033C12.24 10.1232 12.2571 10.346 12.3257 10.5518C9.92571 10.4318 7.78286 9.28319 6.36 7.53462C6.12 7.96319 5.96571 8.46033 5.96571 8.99176C5.96571 9.98605 6.48 10.8775 7.25143 11.3918C6.77143 11.3918 6.32571 11.2546 5.94857 11.0318V11.066C5.94857 12.4718 6.94286 13.6375 8.26286 13.9118C8.02286 13.9803 7.76571 14.0146 7.50857 14.0146C7.32 14.0146 7.14857 13.9975 6.96 13.9632C7.32 15.1118 8.4 15.9518 9.65143 15.9689C8.65714 16.7403 7.40571 17.2032 6.05143 17.2032C5.81143 17.2032 5.58857 17.2032 5.36571 17.1689C6.63429 17.9918 8.16 18.4718 9.78857 18.4718" fill="#FF7834"/>
</svg>
