<svg width="175" height="112" viewBox="0 0 175 112" fill="none" xmlns="http://www.w3.org/2000/svg">
<circle cx="26.3751" cy="18.8556" r="5.57826" stroke="#073126" stroke-width="2"/>
<circle cx="69.6017" cy="105.313" r="5.57826" stroke="#073126" stroke-width="2"/>
<circle cx="107.192" cy="105.313" r="5.57826" stroke="#073126" stroke-width="2"/>
<path d="M32.0117 17.9141H41.4092C43.602 17.9141 48.3634 19.0418 49.867 23.5526C51.3706 28.0634 56.7585 54.2511 59.2645 66.7811C59.5778 68.9739 59.8284 73.9232 58.3247 76.1786C56.8211 78.434 55.1922 80.2509 54.5657 80.8774C53.626 81.8171 52.3103 85.2002 54.5657 87.4556C56.8211 89.711 59.2645 89.3351 60.2043 89.3351H122.228" stroke="#073126" stroke-width="2" stroke-linecap="round" stroke-linejoin="round"/>
<path d="M116.589 31.0713H51.7461L60.2039 68.6639V72.4229H110.011C113.77 72.4229 115.336 69.9169 115.649 68.6639C117.529 60.2053 121.476 41.9725 122.227 36.7098C122.979 31.4472 118.782 30.7581 116.589 31.0713Z" stroke="#073126" stroke-width="2" stroke-linecap="round" stroke-linejoin="round"/>
<path d="M87.4558 16.036V1M72.4198 17.9155L66.7812 8.51801M102.492 17.9155L108.13 8.51801" stroke="#073126" stroke-width="2" stroke-linecap="round" stroke-linejoin="round"/>
<circle cx="78.9989" cy="47.0497" r="1.81925" fill="#D9D9D9" stroke="#073126" stroke-width="2"/>
<path d="M129.746 15.0977H136.324" stroke="#073126" stroke-width="2" stroke-linecap="round" stroke-linejoin="round"/>
<path d="M133.035 11.8086L133.035 18.3869" stroke="#073126" stroke-width="2" stroke-linecap="round" stroke-linejoin="round"/>
<path d="M32.9531 40H39.5314" stroke="#073126" stroke-width="2" stroke-linecap="round" stroke-linejoin="round"/>
<path d="M36.2422 36.7109L36.2422 43.2892" stroke="#073126" stroke-width="2" stroke-linecap="round" stroke-linejoin="round"/>
<circle cx="97.7958" cy="47.0497" r="1.81925" fill="#D9D9D9" stroke="#073126" stroke-width="2"/>
<path d="M81.8203 61.1457C82.4468 59.8927 84.4516 57.3867 87.4588 57.3867C90.466 57.3867 92.4708 59.8927 93.0973 61.1457" stroke="#073126" stroke-width="2" stroke-linecap="round" stroke-linejoin="round"/>
<path d="M8.51801 61.1445H1" stroke="#073126" stroke-width="2" stroke-linecap="round" stroke-linejoin="round"/>
<path d="M173.913 61.1445H166.395" stroke="#073126" stroke-width="2" stroke-linecap="round" stroke-linejoin="round"/>
</svg>
